SplineFontDB: 1.0
FontName: Vytis
FullName: Vytis
FamilyName: Vytis
Weight: Book
Copyright: Copyleft Atviras kodas Lietuvai (AKL), 2005
Version: 1.002 2005
ItalicAngle: 0
UnderlinePosition: -223
UnderlineWidth: 100
Ascent: 1638
Descent: 410
Order2: 1
NeedsXUIDChange: 1
XUID: [1021 703 207864929 13083676]
FSType: 0
PfmFamily: 17
TTFWeight: 400
TTFWidth: 5
Panose: 2 2 6 3 5 4 5 2 3 4
LineGap: 87
VLineGap: 0
OS2TypoAscent: 1420
OS2TypoDescent: -442
OS2TypoLinegap: 0
OS2WinAscent: -233
OS2WinAOffset: 1
OS2WinDescent: -185
OS2WinDOffset: 1
HheadAscent: -233
HheadAOffset: 1
HheadDescent: 185
HheadDOffset: 1
OS2SubXSize: 1434
OS2SubYSize: 1331
OS2SubXOff: 0
OS2SubYOff: 293
OS2SupXSize: 1434
OS2SupYSize: 1331
OS2SupXOff: 0
OS2SupYOff: 928
OS2StrikeYSize: 102
OS2StrikeYPos: 530
OS2FamilyClass: 261
OS2Vendor: 'euge'
ScriptLang: 4
 1 latn 1 dflt 
 1 cyrl 1 dflt 
 1 grek 1 dflt 
 1 DFLT 1 dflt 
TtfTable: prep 1086
\,]eb\,]GX5d9/(()It?eJ8r@H[HSJ5^O%V3I?,k?[-O7J9V1DdM<W=G'=]<*,TX1(E@70()Is+
DAF0fCZ&t0CMnWB)K^*9'c^k$'GVU"BbV:%AS;bs+DCieBHLn@AciQW^M*X\"!;21AO'gGAUn?R
A\_m(AI(P7%Mh(>BE>>K!K^sq&7pB'OCc4=ct*AlBSCFE)06R>6Q%%m6Q%$K!^Nt$&im2""=k"g
!C4@E,rrL8^d'(+&/$uggCkDa:W*:5V[k;RV[k;SV[k;TV[k:CV_UV"\Gs@NiA3>O\Gs@Ni><Xs
\Gs?0$/l@,3C)R5%6:ru^pC$`-98U9^pC$K&376&l*?QV/%GVp5SWT%+$&\U!\9[t""TRt""TOs
""Un]^p]@O-99G?!P&0F5S'G<0KDq#!M5VX/!cM(/%>]LZA8T5\-)+`0T6)aoC;l3nq@,qb!HOZ
aiFH4aFs[G5eeQj3C(8',rq(U!U5:>/*;O'+6A1Y/%GVpZ`tDg3Oo+)\$6S]3O,ag/%GVp5V0)T
*'(3V!@uG^0HmA]0Hn]b!%Z9N!\97f!%X"c!%Wtb""T4c"=o@_!%YSZ^pAP9-98U9^d-k1,UPO&
IfM!JIfq9MIfq8eIkNZ>It\"UOG*`dLkPgZLP5j]L4om`KS'IZK7sFY5_V*U3C&9G.leP-'c8hD
'f?^=1_gNW'aui4#r*/!0GO[C'`]j$-799O-P%[W%P0+@+sRRC,7bh;%Nli(%hK<]#mq%K"pYDB
!sAc9!!*-0"p8BX5QD9(3C!QW'0-$p#qO@)!=o\A%g*=Q57_*3":5SL*s2QL)Z^rg(^Crg'bD/j
&d/mX/3GCE-p/h=,Wm85+?U]-)a"s"'g**k%m1.\#!;uM!'F(6!O*20!)$9XYS.%1!)$6WYVRe&
\-!jOYVI_%YQn!/=Kql-N`iSB/$K)2\,cS/YQTcl!WZ3(&joi,=L\ALYlOlcKc@Q&!<E2)943I5
=g8#.6EgKHYTm(KYQ9Qa5Z(Xf+GdN=!*!(*!WbVj=]qsf92J`q!WYPi.ikj)92ersJ/qds1.tPJ

StartChar: .notdef
Encoding: 65536 -1 0
Width: 1593
Flags: W
Fore
284 0 m 1,0,-1
 284 1536 l 1,1,-1
 1337 1536 l 1,2,-1
 1337 0 l 1,3,-1
 284 0 l 1,0,-1
412 128 m 1,4,-1
 1209 128 l 1,5,-1
 1209 1408 l 1,6,-1
 412 1408 l 1,7,-1
 412 128 l 1,4,-1
EndSplineSet
EndChar
StartChar: exclam
Encoding: 33 33 4
Width: 682
Flags: W
Fore
315 358 m 1,0,1
 315 567 315 567 244 1090 c 0,2,3
 225 1228 225 1228 225 1243 c 0,4,5
 225 1304 225 1304 256 1345 c 128,-1,6
 287 1386 287 1386 340 1386 c 0,7,8
 393 1386 393 1386 424 1345 c 128,-1,9
 455 1304 455 1304 455 1243 c 0,10,11
 455 1228 455 1228 436 1090 c 0,12,13
 365 567 365 567 365 358 c 1,14,-1
 315 358 l 1,0,1
340 190 m 0,15,16
 386 190 386 190 418.5 158 c 128,-1,17
 451 126 451 126 451 80 c 0,18,19
 451 34 451 34 418.5 1.5 c 128,-1,20
 386 -31 386 -31 340 -31 c 0,21,22
 294 -31 294 -31 261.5 1.5 c 128,-1,23
 229 34 229 34 229 80 c 0,24,25
 229 126 229 126 261.5 158 c 128,-1,26
 294 190 294 190 340 190 c 0,15,16
EndSplineSet
EndChar
StartChar: quotedbl
Encoding: 34 34 5
Width: 836
Flags: W
Fore
578 803 m 1,0,1
 547 990 547 990 524.5 1108 c 128,-1,2
 502 1226 502 1226 502 1276 c 0,3,4
 502 1324 502 1324 529 1355 c 128,-1,5
 556 1386 556 1386 602 1386 c 0,6,7
 647 1386 647 1386 674.5 1355 c 128,-1,8
 702 1324 702 1324 702 1276 c 0,9,10
 702 1233 702 1233 671 1060 c 128,-1,11
 640 887 640 887 627 803 c 1,12,-1
 578 803 l 1,0,1
211 803 m 1,13,14
 180 990 180 990 157.5 1108 c 128,-1,15
 135 1226 135 1226 135 1276 c 0,16,17
 135 1324 135 1324 162.5 1355 c 128,-1,18
 190 1386 190 1386 236 1386 c 0,19,20
 281 1386 281 1386 308.5 1355 c 128,-1,21
 336 1324 336 1324 336 1276 c 0,22,23
 336 1233 336 1233 305 1060 c 128,-1,24
 274 887 274 887 260 803 c 1,25,-1
 211 803 l 1,13,14
EndSplineSet
EndChar
StartChar: numbersign
Encoding: 35 35 6
Width: 1024
Flags: W
Fore
987 428 m 1,0,-1
 696 428 l 1,1,-1
 602 -31 l 1,2,-1
 518 -31 l 1,3,-1
 612 428 l 1,4,-1
 309 428 l 1,5,-1
 215 -31 l 1,6,-1
 131 -31 l 1,7,-1
 225 428 l 1,8,-1
 37 428 l 1,9,-1
 37 510 l 1,10,-1
 242 510 l 1,11,-1
 311 846 l 1,12,-1
 37 846 l 1,13,-1
 37 928 l 1,14,-1
 328 928 l 1,15,-1
 422 1386 l 1,16,-1
 506 1386 l 1,17,-1
 412 928 l 1,18,-1
 715 928 l 1,19,-1
 809 1386 l 1,20,-1
 893 1386 l 1,21,-1
 799 928 l 1,22,-1
 987 928 l 1,23,-1
 987 846 l 1,24,-1
 782 846 l 1,25,-1
 713 510 l 1,26,-1
 987 510 l 1,27,-1
 987 428 l 1,0,-1
698 846 m 1,28,-1
 395 846 l 1,29,-1
 326 510 l 1,30,-1
 629 510 l 1,31,-1
 698 846 l 1,28,-1
EndSplineSet
EndChar
StartChar: dollar
Encoding: 36 36 7
Width: 1024
Flags: W
Fore
535 809 m 1,0,1
 761 687 761 687 843.5 585 c 128,-1,2
 926 483 926 483 926 360 c 0,3,4
 926 195 926 195 817.5 82 c 128,-1,5
 709 -31 709 -31 541 -31 c 2,6,-1
 535 -31 l 1,7,-1
 535 -156 l 1,8,-1
 461 -156 l 1,9,-1
 461 -27 l 1,10,11
 397 -20 397 -20 298 9 c 0,12,13
 226 31 226 31 197 31 c 0,14,15
 158 31 158 31 152 -31 c 1,16,-1
 109 -31 l 1,17,-1
 109 399 l 1,18,-1
 152 399 l 1,19,20
 175 105 175 105 461 57 c 1,21,-1
 461 606 l 1,22,23
 262 717 262 717 191.5 811.5 c 128,-1,24
 121 906 121 906 121 1024 c 0,25,26
 121 1172 121 1172 212 1271 c 128,-1,27
 303 1370 303 1370 461 1384 c 1,28,-1
 461 1470 l 1,29,-1
 535 1470 l 1,30,-1
 535 1384 l 1,31,32
 580 1381 580 1381 677 1354 c 0,33,34
 743 1335 743 1335 762 1335 c 0,35,36
 805 1335 805 1335 815 1386 c 1,37,-1
 856 1386 l 1,38,-1
 856 983 l 1,39,-1
 815 983 l 1,40,41
 769 1283 769 1283 535 1300 c 1,42,-1
 535 809 l 1,0,1
461 852 m 1,43,-1
 461 1300 l 1,44,45
 370 1289 370 1289 317 1229 c 128,-1,46
 264 1169 264 1169 264 1085 c 0,47,48
 264 966 264 966 461 852 c 1,43,-1
535 53 m 1,49,50
 641 56 641 56 702.5 114 c 128,-1,51
 764 172 764 172 764 270 c 0,52,53
 764 354 764 354 711.5 422.5 c 128,-1,54
 659 491 659 491 535 563 c 1,55,-1
 535 53 l 1,49,50
EndSplineSet
EndChar
StartChar: percent
Encoding: 37 37 8
Width: 1706
Flags: W
Fore
1380 1386 m 1,0,-1
 412 -31 l 1,1,-1
 322 -31 l 1,2,-1
 1290 1386 l 1,3,-1
 1380 1386 l 1,0,-1
446 1384 m 0,4,5
 576 1384 576 1384 655.5 1277 c 128,-1,6
 735 1170 735 1170 735 1018 c 0,7,8
 735 866 735 866 655.5 758.5 c 128,-1,9
 576 651 576 651 446 651 c 0,10,11
 317 651 317 651 237 758.5 c 128,-1,12
 157 866 157 866 157 1018 c 0,13,14
 157 1170 157 1170 237 1277 c 128,-1,15
 317 1384 317 1384 446 1384 c 0,4,5
575 1016 m 0,17,18
 575 1173 575 1173 543.5 1252 c 128,-1,19
 512 1331 512 1331 449 1331 c 0,20,21
 386 1331 386 1331 351.5 1261.5 c 128,-1,22
 317 1192 317 1192 317 1016 c 0,23,24
 317 860 317 860 348.5 782.5 c 128,-1,25
 380 705 380 705 444 705 c 0,26,27
 507 705 507 705 541 772.5 c 128,-1,16
 575 840 575 840 575 1016 c 0,17,18
1245 705 m 0,28,29
 1375 705 1375 705 1454.5 597.5 c 128,-1,30
 1534 490 1534 490 1534 338 c 0,31,32
 1534 186 1534 186 1454.5 78.5 c 128,-1,33
 1375 -29 1375 -29 1245 -29 c 0,34,35
 1116 -29 1116 -29 1036 78.5 c 128,-1,36
 956 186 956 186 956 338 c 0,37,38
 956 490 956 490 1036 597.5 c 128,-1,39
 1116 705 1116 705 1245 705 c 0,28,29
1374 336 m 0,41,42
 1374 492 1374 492 1342 571.5 c 128,-1,43
 1310 651 1310 651 1247 651 c 0,44,45
 1185 651 1185 651 1150.5 581.5 c 128,-1,46
 1116 512 1116 512 1116 336 c 0,47,48
 1116 180 1116 180 1147.5 102.5 c 128,-1,49
 1179 25 1179 25 1243 25 c 0,50,51
 1306 25 1306 25 1340 92.5 c 128,-1,40
 1374 160 1374 160 1374 336 c 0,41,42
EndSplineSet
EndChar
StartChar: ampersand
Encoding: 38 38 9
Width: 1593
Flags: W
Fore
1565 47 m 1,0,1
 1435 -25 1435 -25 1278 -25 c 0,2,3
 1185 -25 1185 -25 1098 24.5 c 128,-1,4
 1011 74 1011 74 907 186 c 1,5,6
 776 66 776 66 676 17.5 c 128,-1,7
 576 -31 576 -31 465 -31 c 0,8,9
 292 -31 292 -31 182 67 c 128,-1,10
 72 165 72 165 72 311 c 0,11,12
 72 441 72 441 149 536 c 128,-1,13
 226 631 226 631 457 739 c 1,14,15
 313 940 313 940 313 1104 c 0,16,17
 313 1226 313 1226 406 1306 c 128,-1,18
 499 1386 499 1386 649 1386 c 0,19,20
 778 1386 778 1386 856 1316.5 c 128,-1,21
 934 1247 934 1247 934 1137 c 0,22,23
 934 1022 934 1022 871 935 c 128,-1,24
 808 848 808 848 659 766 c 1,25,26
 820 540 820 540 973 383 c 1,27,28
 1120 558 1120 558 1120 643 c 0,29,30
 1120 677 1120 677 1078 701 c 128,-1,31
 1036 725 1036 725 987 725 c 1,32,-1
 987 772 l 1,33,-1
 1483 772 l 1,34,-1
 1483 725 l 1,35,36
 1423 725 1423 725 1381.5 707 c 128,-1,37
 1340 689 1340 689 1311.5 659 c 128,-1,38
 1283 629 1283 629 1199 519 c 128,-1,39
 1115 409 1115 409 1038 317 c 1,40,41
 1173 182 1173 182 1259 126 c 128,-1,42
 1345 70 1345 70 1417 70 c 0,43,44
 1492 70 1492 70 1565 88 c 1,45,-1
 1565 47 l 1,0,1
612 831 m 1,46,47
 823 951 823 951 823 1128 c 0,48,49
 823 1206 823 1206 772.5 1259.5 c 128,-1,50
 722 1313 722 1313 651 1313 c 0,51,52
 576 1313 576 1313 525.5 1261 c 128,-1,53
 475 1209 475 1209 475 1133 c 0,54,55
 475 1011 475 1011 612 831 c 1,46,47
844 254 m 1,56,57
 651 461 651 461 502 672 c 1,58,59
 279 540 279 540 279 330 c 0,60,61
 279 225 279 225 345 157.5 c 128,-1,62
 411 90 411 90 504 90 c 0,63,64
 666 90 666 90 844 254 c 1,56,57
EndSplineSet
EndChar
StartChar: quotesingle
Encoding: 39 39 10
Width: 369
Flags: W
Fore
160 803 m 1,0,1
 129 990 129 990 106.5 1108 c 128,-1,2
 84 1226 84 1226 84 1276 c 0,3,4
 84 1324 84 1324 111.5 1355 c 128,-1,5
 139 1386 139 1386 184 1386 c 0,6,7
 230 1386 230 1386 257.5 1355 c 128,-1,8
 285 1324 285 1324 285 1276 c 0,9,10
 285 1233 285 1233 253.5 1060 c 128,-1,11
 222 887 222 887 209 803 c 1,12,-1
 160 803 l 1,0,1
EndSplineSet
EndChar
StartChar: parenleft
Encoding: 40 40 11
Width: 682
Flags: W
Fore
637 -442 m 1,0,1
 368 -298 368 -298 226 -54.5 c 128,-1,2
 84 189 84 189 84 489 c 0,3,4
 84 790 84 790 226 1033.5 c 128,-1,5
 368 1277 368 1277 637 1421 c 1,6,-1
 637 1366 l 1,7,8
 276 1121 276 1121 276 489 c 0,9,10
 276 -126 276 -126 637 -389 c 1,11,-1
 637 -442 l 1,0,1
EndSplineSet
EndChar
StartChar: parenright
Encoding: 41 41 12
Width: 682
Flags: W
Fore
43 1421 m 1,0,1
 311 1277 311 1277 453.5 1033.5 c 128,-1,2
 596 790 596 790 596 489 c 0,3,4
 596 189 596 189 453.5 -54.5 c 128,-1,5
 311 -298 311 -298 43 -442 c 1,6,-1
 43 -389 l 1,7,8
 403 -126 403 -126 403 489 c 0,9,10
 403 1121 403 1121 43 1366 c 1,11,-1
 43 1421 l 1,0,1
EndSplineSet
EndChar
StartChar: asterisk
Encoding: 42 42 13
Width: 1024
Flags: W
Fore
551 963 m 1,0,1
 576 943 576 943 689 921 c 0,2,3
 824 896 824 896 861.5 866 c 128,-1,4
 899 836 899 836 899 795 c 0,5,6
 899 765 899 765 876 744 c 128,-1,7
 853 723 853 723 823 723 c 0,8,9
 791 723 791 723 753.5 742.5 c 128,-1,10
 716 762 716 762 643 834 c 0,11,12
 567 911 567 911 530 926 c 1,13,14
 530 871 530 871 565 768 c 0,15,16
 594 683 594 683 594 647 c 0,17,18
 594 600 594 600 572 569.5 c 128,-1,19
 550 539 550 539 512 539 c 0,20,21
 474 539 474 539 452 569.5 c 128,-1,22
 430 600 430 600 430 647 c 0,23,24
 430 683 430 683 459 768 c 0,25,26
 494 871 494 871 494 926 c 1,27,28
 457 911 457 911 381 834 c 0,29,30
 308 762 308 762 270.5 742.5 c 128,-1,31
 233 723 233 723 201 723 c 0,32,33
 171 723 171 723 148 744 c 128,-1,34
 125 765 125 765 125 795 c 0,35,36
 125 836 125 836 162.5 866 c 128,-1,37
 200 896 200 896 335 921 c 0,38,39
 448 943 448 943 473 963 c 1,40,41
 448 982 448 982 335 1004 c 0,42,43
 200 1029 200 1029 162.5 1059 c 128,-1,44
 125 1089 125 1089 125 1130 c 0,45,46
 125 1160 125 1160 148 1181 c 128,-1,47
 171 1202 171 1202 201 1202 c 0,48,49
 233 1202 233 1202 270.5 1183 c 128,-1,50
 308 1164 308 1164 381 1091 c 0,51,52
 457 1014 457 1014 494 999 c 1,53,54
 494 1054 494 1054 459 1158 c 0,55,56
 430 1242 430 1242 430 1278 c 0,57,58
 430 1325 430 1325 452 1355.5 c 128,-1,59
 474 1386 474 1386 512 1386 c 0,60,61
 550 1386 550 1386 572 1355.5 c 128,-1,62
 594 1325 594 1325 594 1278 c 0,63,64
 594 1242 594 1242 565 1158 c 0,65,66
 530 1054 530 1054 530 999 c 1,67,68
 567 1014 567 1014 643 1091 c 0,69,70
 716 1164 716 1164 753.5 1183 c 128,-1,71
 791 1202 791 1202 823 1202 c 0,72,73
 853 1202 853 1202 876 1181 c 128,-1,74
 899 1160 899 1160 899 1130 c 0,75,76
 899 1089 899 1089 861.5 1059 c 128,-1,77
 824 1029 824 1029 689 1004 c 0,78,79
 576 982 576 982 551 963 c 1,0,1
EndSplineSet
EndChar
StartChar: plus
Encoding: 43 43 14
Width: 1155
Flags: W
Fore
1116 639 m 1,0,-1
 618 639 l 1,1,-1
 618 141 l 1,2,-1
 537 141 l 1,3,-1
 537 639 l 1,4,-1
 39 639 l 1,5,-1
 39 721 l 1,6,-1
 537 721 l 1,7,-1
 537 1219 l 1,8,-1
 618 1219 l 1,9,-1
 618 721 l 1,10,-1
 1116 721 l 1,11,-1
 1116 639 l 1,0,-1
EndSplineSet
EndChar
StartChar: comma
Encoding: 44 44 15
Width: 512
Flags: W
Fore
111 -289 m 1,0,1
 194 -263 194 -263 244.5 -211.5 c 128,-1,2
 295 -160 295 -160 295 -104 c 0,3,4
 295 -31 295 -31 213 -16 c 0,5,6
 111 2 111 2 111 88 c 0,7,8
 111 136 111 136 144.5 163 c 128,-1,9
 178 190 178 190 231 190 c 0,10,11
 298 190 298 190 343.5 124.5 c 128,-1,12
 389 59 389 59 389 -23 c 0,13,14
 389 -136 389 -136 315.5 -220 c 128,-1,15
 242 -304 242 -304 111 -342 c 1,16,-1
 111 -289 l 1,0,1
EndSplineSet
EndChar
StartChar: hyphen
Encoding: 45 45 16
Width: 682
Flags: W
Fore
600 381 m 1,0,-1
 82 381 l 1,1,-1
 82 539 l 1,2,-1
 600 539 l 1,3,-1
 600 381 l 1,0,-1
EndSplineSet
EndChar
StartChar: period
Encoding: 46 46 17
Width: 512
Flags: W
Fore
256 190 m 0,0,1
 302 190 302 190 334.5 158 c 128,-1,2
 367 126 367 126 367 80 c 0,3,4
 367 34 367 34 334.5 1.5 c 128,-1,5
 302 -31 302 -31 256 -31 c 0,6,7
 210 -31 210 -31 177.5 1.5 c 128,-1,8
 145 34 145 34 145 80 c 0,9,10
 145 126 145 126 177.5 158 c 128,-1,11
 210 190 210 190 256 190 c 0,0,1
EndSplineSet
EndChar
StartChar: slash
Encoding: 47 47 18
Width: 569
Flags: W
Fore
569 1421 m 1,0,-1
 80 -29 l 1,1,-1
 0 -29 l 1,2,-1
 492 1421 l 1,3,-1
 569 1421 l 1,0,-1
EndSplineSet
EndChar
StartChar: zero
Encoding: 48 48 19
Width: 1024
Flags: W
Fore
512 1386 m 0,0,1
 708 1386 708 1386 829 1200.5 c 128,-1,2
 950 1015 950 1015 950 678 c 0,3,4
 950 341 950 341 829 155 c 128,-1,5
 708 -31 708 -31 512 -31 c 0,6,7
 316 -31 316 -31 195 155 c 128,-1,8
 74 341 74 341 74 678 c 0,9,10
 74 1015 74 1015 195 1200.5 c 128,-1,11
 316 1386 316 1386 512 1386 c 0,0,1
512 41 m 0,12,13
 629 41 629 41 691.5 204 c 128,-1,14
 754 367 754 367 754 678 c 0,15,16
 754 996 754 996 693.5 1155.5 c 128,-1,17
 633 1315 633 1315 512 1315 c 0,18,19
 395 1315 395 1315 332.5 1152 c 128,-1,20
 270 989 270 989 270 678 c 0,21,22
 270 365 270 365 332 203 c 128,-1,23
 394 41 394 41 512 41 c 0,12,13
EndSplineSet
EndChar
StartChar: one
Encoding: 49 49 20
Width: 1024
Flags: W
Fore
829 0 m 1,0,-1
 195 0 l 1,1,-1
 195 47 l 1,2,3
 310 47 310 47 360 59.5 c 128,-1,4
 410 72 410 72 424 102 c 128,-1,5
 438 132 438 132 438 201 c 2,6,-1
 438 1124 l 2,7,8
 438 1181 438 1181 417 1201 c 128,-1,9
 396 1221 396 1221 326 1221 c 2,10,-1
 184 1221 l 1,11,-1
 184 1270 l 1,12,13
 298 1270 298 1270 383.5 1293.5 c 128,-1,14
 469 1317 469 1317 565 1384 c 1,15,-1
 610 1384 l 1,16,-1
 610 201 l 2,17,18
 610 132 610 132 623.5 102 c 128,-1,19
 637 72 637 72 682 59.5 c 128,-1,20
 727 47 727 47 829 47 c 1,21,-1
 829 0 l 1,0,-1
EndSplineSet
KernsSLIFO: 20 -76 0 0
EndChar
StartChar: two
Encoding: 50 50 21
Width: 1024
Flags: W
Fore
920 0 m 1,0,-1
 70 0 l 1,1,-1
 70 74 l 1,2,3
 521 509 521 509 621 669 c 128,-1,4
 721 829 721 829 721 958 c 0,5,6
 721 1085 721 1085 650 1162 c 128,-1,7
 579 1239 579 1239 469 1239 c 0,8,9
 257 1239 257 1239 133 1016 c 1,10,-1
 90 1032 l 1,11,12
 147 1209 147 1209 249.5 1297.5 c 128,-1,13
 352 1386 352 1386 500 1386 c 0,14,15
 690 1386 690 1386 802.5 1274.5 c 128,-1,16
 915 1163 915 1163 915 979 c 0,17,18
 915 855 915 855 838 731.5 c 128,-1,19
 761 608 761 608 561.5 433.5 c 128,-1,20
 362 259 362 259 244 147 c 1,21,-1
 707 147 l 2,22,23
 798 147 798 147 835 187 c 128,-1,24
 872 227 872 227 872 338 c 1,25,-1
 920 338 l 1,26,-1
 920 0 l 1,0,-1
EndSplineSet
EndChar
StartChar: three
Encoding: 51 51 22
Width: 1024
Flags: W
Fore
604 811 m 1,0,1
 762 794 762 794 853 691.5 c 128,-1,2
 944 589 944 589 944 442 c 0,3,4
 944 221 944 221 786.5 96 c 128,-1,5
 629 -29 629 -29 381 -29 c 0,6,7
 196 -29 196 -29 49 61 c 1,8,-1
 78 119 l 1,9,10
 216 49 216 49 369 49 c 0,11,12
 541 49 541 49 646.5 147.5 c 128,-1,13
 752 246 752 246 752 416 c 0,14,15
 752 551 752 551 675 631 c 128,-1,16
 598 711 598 711 473 711 c 0,17,18
 426 711 426 711 352 696 c 1,19,-1
 352 770 l 1,20,21
 499 808 499 808 579 888 c 128,-1,22
 659 968 659 968 659 1067 c 0,23,24
 659 1141 659 1141 609 1194 c 128,-1,25
 559 1247 559 1247 475 1247 c 0,26,27
 296 1247 296 1247 152 1079 c 1,28,-1
 111 1104 l 1,29,30
 190 1249 190 1249 292 1317.5 c 128,-1,31
 394 1386 394 1386 535 1386 c 0,32,33
 669 1386 669 1386 760.5 1305 c 128,-1,34
 852 1224 852 1224 852 1108 c 0,35,36
 852 1016 852 1016 783.5 934.5 c 128,-1,37
 715 853 715 853 604 815 c 1,38,-1
 604 811 l 1,0,1
EndSplineSet
EndChar
StartChar: four
Encoding: 52 52 23
Width: 1024
Flags: W
Fore
971 371 m 1,0,-1
 764 371 l 1,1,-1
 764 201 l 2,2,3
 764 104 764 104 797.5 75.5 c 128,-1,4
 831 47 831 47 956 47 c 1,5,-1
 956 0 l 1,6,-1
 348 0 l 1,7,-1
 348 47 l 1,8,9
 464 47 464 47 514 59.5 c 128,-1,10
 564 72 564 72 578 102 c 128,-1,11
 592 132 592 132 592 201 c 2,12,-1
 592 371 l 1,13,-1
 31 371 l 1,14,-1
 31 500 l 1,15,-1
 655 1384 l 1,16,-1
 764 1384 l 1,17,-1
 764 514 l 1,18,-1
 971 514 l 1,19,-1
 971 371 l 1,0,-1
592 514 m 1,20,-1
 592 1167 l 1,21,-1
 129 514 l 1,22,-1
 592 514 l 1,20,-1
EndSplineSet
EndChar
StartChar: five
Encoding: 53 53 24
Width: 1024
Flags: W
Fore
221 811 m 1,0,1
 330 866 330 866 475 866 c 0,2,3
 683 866 683 866 802.5 754.5 c 128,-1,4
 922 643 922 643 922 453 c 0,5,6
 922 239 922 239 770 104 c 128,-1,7
 618 -31 618 -31 375 -31 c 0,8,9
 231 -31 231 -31 82 29 c 1,10,-1
 98 96 l 1,11,12
 229 47 229 47 342 47 c 0,13,14
 513 47 513 47 622 153.5 c 128,-1,15
 731 260 731 260 731 440 c 0,16,17
 731 592 731 592 653.5 682 c 128,-1,18
 576 772 576 772 438 772 c 0,19,20
 298 772 298 772 178 686 c 1,21,-1
 127 694 l 1,22,-1
 195 1356 l 1,23,-1
 825 1356 l 1,24,-1
 825 1208 l 1,25,-1
 266 1208 l 1,26,-1
 221 811 l 1,0,1
EndSplineSet
EndChar
StartChar: six
Encoding: 54 54 25
Width: 1024
Flags: W
Fore
274 729 m 1,0,1
 326 804 326 804 409 848.5 c 128,-1,2
 492 893 492 893 580 893 c 0,3,4
 740 893 740 893 849 774.5 c 128,-1,5
 958 656 958 656 958 475 c 0,6,7
 958 241 958 241 842 106 c 128,-1,8
 726 -29 726 -29 543 -29 c 0,9,10
 328 -29 328 -29 201 126.5 c 128,-1,11
 74 282 74 282 74 571 c 0,12,13
 74 919 74 919 288 1151.5 c 128,-1,14
 502 1384 502 1384 836 1384 c 1,15,-1
 836 1335 l 1,16,17
 590 1321 590 1321 437.5 1135.5 c 128,-1,18
 285 950 285 950 274 729 c 1,0,1
541 39 m 0,19,20
 644 39 644 39 705 143 c 128,-1,21
 766 247 766 247 766 430 c 0,22,23
 766 596 766 596 704.5 699.5 c 128,-1,24
 643 803 643 803 549 803 c 0,25,26
 503 803 503 803 459 785.5 c 128,-1,27
 415 768 415 768 377.5 739 c 128,-1,28
 340 710 340 710 304.5 666 c 128,-1,29
 269 622 269 622 268 605 c 2,30,-1
 266 567 l 2,31,32
 266 324 266 324 342 181.5 c 128,-1,33
 418 39 418 39 541 39 c 0,19,20
EndSplineSet
EndChar
StartChar: seven
Encoding: 55 55 26
Width: 1024
Flags: W
Fore
932 1319 m 1,0,-1
 471 -29 l 1,1,-1
 297 -29 l 1,2,-1
 795 1208 l 1,3,-1
 311 1208 l 2,4,5
 211 1208 211 1208 180.5 1157.5 c 128,-1,6
 150 1107 150 1107 150 989 c 1,7,-1
 100 989 l 1,8,-1
 100 1356 l 1,9,-1
 932 1356 l 1,10,-1
 932 1319 l 1,0,-1
EndSplineSet
EndChar
StartChar: eight
Encoding: 56 56 27
Width: 1024
Flags: W
Fore
668 752 m 1,0,1
 956 609 956 609 956 358 c 0,2,3
 956 190 956 190 831 82.5 c 128,-1,4
 706 -25 706 -25 508 -25 c 0,5,6
 319 -25 319 -25 191 78 c 128,-1,7
 63 181 63 181 63 330 c 0,8,9
 63 574 63 574 352 700 c 1,10,11
 220 770 220 770 157 849.5 c 128,-1,12
 94 929 94 929 94 1034 c 0,13,14
 94 1179 94 1179 217 1281.5 c 128,-1,15
 340 1384 340 1384 512 1384 c 0,16,17
 683 1384 683 1384 801.5 1290.5 c 128,-1,18
 920 1197 920 1197 920 1065 c 0,19,20
 920 859 920 859 668 752 c 1,0,1
590 788 m 1,21,22
 677 829 677 829 723.5 898 c 128,-1,23
 770 967 770 967 770 1049 c 0,24,25
 770 1158 770 1158 692 1234.5 c 128,-1,26
 614 1311 614 1311 498 1311 c 0,27,28
 399 1311 399 1311 328.5 1246.5 c 128,-1,29
 258 1182 258 1182 258 1096 c 0,30,31
 258 1021 258 1021 314 954 c 128,-1,32
 370 887 370 887 590 788 c 1,21,22
793 301 m 0,33,34
 793 421 793 421 711 500.5 c 128,-1,35
 629 580 629 580 426 664 c 1,36,37
 327 616 327 616 272 530.5 c 128,-1,38
 217 445 217 445 217 346 c 0,39,40
 217 214 217 214 303.5 131.5 c 128,-1,41
 390 49 390 49 524 49 c 0,42,43
 644 49 644 49 718.5 120.5 c 128,-1,44
 793 192 793 192 793 301 c 0,33,34
EndSplineSet
EndChar
StartChar: nine
Encoding: 57 57 28
Width: 1024
Flags: W
Fore
748 629 m 1,0,1
 696 554 696 554 613 509.5 c 128,-1,2
 530 465 530 465 442 465 c 0,3,4
 282 465 282 465 172.5 583.5 c 128,-1,5
 63 702 63 702 63 883 c 0,6,7
 63 1117 63 1117 179 1251.5 c 128,-1,8
 295 1386 295 1386 479 1386 c 0,9,10
 693 1386 693 1386 820.5 1231 c 128,-1,11
 948 1076 948 1076 948 786 c 0,12,13
 948 439 948 439 734 206 c 128,-1,14
 520 -27 520 -27 186 -27 c 1,15,-1
 186 23 l 1,16,17
 432 37 432 37 584.5 222.5 c 128,-1,18
 737 408 737 408 748 629 c 1,0,1
473 555 m 0,19,20
 519 555 519 555 563 572 c 128,-1,21
 607 589 607 589 644.5 618.5 c 128,-1,22
 682 648 682 648 717.5 692 c 128,-1,23
 753 736 753 736 754 753 c 2,24,-1
 756 791 l 2,25,26
 756 1033 756 1033 680 1176 c 128,-1,27
 604 1319 604 1319 481 1319 c 0,28,29
 378 1319 378 1319 317 1215 c 128,-1,30
 256 1111 256 1111 256 928 c 0,31,32
 256 762 256 762 317 658.5 c 128,-1,33
 378 555 378 555 473 555 c 0,19,20
EndSplineSet
EndChar
StartChar: colon
Encoding: 58 58 29
Width: 569
Flags: W
Fore
285 944 m 0,0,1
 331 944 331 944 363 911.5 c 128,-1,2
 395 879 395 879 395 834 c 0,3,4
 395 787 395 787 363 755 c 128,-1,5
 331 723 331 723 285 723 c 0,6,7
 239 723 239 723 206.5 755.5 c 128,-1,8
 174 788 174 788 174 834 c 0,9,10
 174 879 174 879 206.5 911.5 c 128,-1,11
 239 944 239 944 285 944 c 0,0,1
285 190 m 0,12,13
 331 190 331 190 363 158 c 128,-1,14
 395 126 395 126 395 80 c 0,15,16
 395 34 395 34 363 1.5 c 128,-1,17
 331 -31 331 -31 285 -31 c 0,18,19
 239 -31 239 -31 206.5 1.5 c 128,-1,20
 174 34 174 34 174 80 c 0,21,22
 174 126 174 126 206.5 158 c 128,-1,23
 239 190 239 190 285 190 c 0,12,13
EndSplineSet
EndChar
StartChar: semicolon
Encoding: 59 59 30
Width: 569
Flags: W
Fore
143 -289 m 1,0,1
 227 -263 227 -263 277.5 -211.5 c 128,-1,2
 328 -160 328 -160 328 -104 c 0,3,4
 328 -31 328 -31 246 -16 c 0,5,6
 143 2 143 2 143 88 c 0,7,8
 143 135 143 135 176.5 162.5 c 128,-1,9
 210 190 210 190 264 190 c 0,10,11
 330 190 330 190 376 124.5 c 128,-1,12
 422 59 422 59 422 -23 c 0,13,14
 422 -136 422 -136 348.5 -220 c 128,-1,15
 275 -304 275 -304 143 -342 c 1,16,-1
 143 -289 l 1,0,1
285 944 m 0,17,18
 331 944 331 944 363 911.5 c 128,-1,19
 395 879 395 879 395 834 c 0,20,21
 395 787 395 787 363 755 c 128,-1,22
 331 723 331 723 285 723 c 0,23,24
 239 723 239 723 206.5 755.5 c 128,-1,25
 174 788 174 788 174 834 c 0,26,27
 174 879 174 879 206.5 911.5 c 128,-1,28
 239 944 239 944 285 944 c 0,17,18
EndSplineSet
EndChar
StartChar: less
Encoding: 60 60 31
Width: 1155
Flags: W
Fore
1116 186 m 1,0,-1
 41 655 l 1,1,-1
 41 705 l 1,2,-1
 1116 1174 l 1,3,-1
 1116 1085 l 1,4,-1
 190 680 l 1,5,-1
 1116 274 l 1,6,-1
 1116 186 l 1,0,-1
EndSplineSet
EndChar
StartChar: equal
Encoding: 61 61 32
Width: 1155
Flags: W
Fore
1116 801 m 1,0,-1
 41 801 l 1,1,-1
 41 883 l 1,2,-1
 1116 883 l 1,3,-1
 1116 801 l 1,0,-1
1116 477 m 1,4,-1
 41 477 l 1,5,-1
 41 559 l 1,6,-1
 1116 559 l 1,7,-1
 1116 477 l 1,4,-1
EndSplineSet
EndChar
StartChar: greater
Encoding: 62 62 33
Width: 1155
Flags: W
Fore
1116 655 m 1,0,-1
 41 186 l 1,1,-1
 41 274 l 1,2,-1
 967 680 l 1,3,-1
 41 1085 l 1,4,-1
 41 1174 l 1,5,-1
 1116 705 l 1,6,-1
 1116 655 l 1,0,-1
EndSplineSet
EndChar
StartChar: question
Encoding: 63 63 34
Width: 909
Flags: W
Fore
299 625 m 1,0,1
 491 683 491 683 571 753 c 128,-1,2
 651 823 651 823 651 915 c 0,3,4
 651 1038 651 1038 571.5 1133.5 c 128,-1,5
 492 1229 492 1229 381 1229 c 0,6,7
 342 1229 342 1229 286 1201 c 0,8,9
 236 1178 236 1178 207 1178 c 0,10,11
 169 1178 169 1178 143 1205 c 128,-1,12
 117 1232 117 1232 117 1272 c 0,13,14
 117 1329 117 1329 160 1357.5 c 128,-1,15
 203 1386 203 1386 289 1386 c 0,16,17
 396 1386 396 1386 509 1298.5 c 128,-1,18
 622 1211 622 1211 698 1078 c 128,-1,19
 774 945 774 945 774 852 c 0,20,21
 774 720 774 720 678 630 c 128,-1,22
 582 540 582 540 348 469 c 1,23,-1
 348 313 l 1,24,-1
 299 313 l 1,25,-1
 299 625 l 1,0,1
324 190 m 0,26,27
 369 190 369 190 401.5 158 c 128,-1,28
 434 126 434 126 434 80 c 0,29,30
 434 34 434 34 401.5 1.5 c 128,-1,31
 369 -31 369 -31 324 -31 c 0,32,33
 278 -31 278 -31 245.5 1.5 c 128,-1,34
 213 34 213 34 213 80 c 0,35,36
 213 126 213 126 245.5 158 c 128,-1,37
 278 190 278 190 324 190 c 0,26,27
EndSplineSet
EndChar
StartChar: at
Encoding: 64 64 35
Width: 1886
Flags: W
Fore
1669 -133 m 1,0,1
 1540 -280 1540 -280 1357 -359 c 128,-1,2
 1174 -438 1174 -438 977 -438 c 0,3,4
 599 -438 599 -438 349.5 -187.5 c 128,-1,5
 100 63 100 63 100 440 c 0,6,7
 100 841 100 841 370.5 1113.5 c 128,-1,8
 641 1386 641 1386 1044 1386 c 0,9,10
 1356 1386 1356 1386 1558.5 1193 c 128,-1,11
 1761 1000 1761 1000 1761 700 c 0,12,13
 1761 434 1761 434 1599.5 232.5 c 128,-1,14
 1438 31 1438 31 1192 31 c 0,15,16
 1125 31 1125 31 1082.5 63.5 c 128,-1,17
 1040 96 1040 96 1040 143 c 0,18,19
 1040 202 1040 202 1081 334 c 1,20,21
 881 31 881 31 702 31 c 0,22,23
 613 31 613 31 555.5 99.5 c 128,-1,24
 498 168 498 168 498 274 c 0,25,26
 498 430 498 430 583.5 594.5 c 128,-1,27
 669 759 669 759 805.5 860 c 128,-1,28
 942 961 942 961 1083 961 c 0,29,30
 1175 961 1175 961 1260 915 c 1,31,-1
 1354 961 l 1,32,-1
 1413 961 l 1,33,-1
 1271 474 l 2,34,35
 1213 276 1213 276 1207.5 243.5 c 128,-1,36
 1202 211 1202 211 1202 188 c 0,37,38
 1202 133 1202 133 1274 133 c 0,39,40
 1434 133 1434 133 1567 306 c 128,-1,41
 1700 479 1700 479 1700 700 c 0,42,43
 1700 978 1700 978 1517.5 1152.5 c 128,-1,44
 1335 1327 1335 1327 1049 1327 c 0,45,46
 674 1327 674 1327 434.5 1063.5 c 128,-1,47
 195 800 195 800 195 414 c 0,48,49
 195 70 195 70 413.5 -153.5 c 128,-1,50
 632 -377 632 -377 977 -377 c 0,51,52
 1372 -377 1372 -377 1626 -94 c 1,53,-1
 1669 -133 l 1,0,1
1202 745 m 2,54,55
 1207 761 1207 761 1185 805 c 0,56,57
 1172 830 1172 830 1152 847.5 c 128,-1,58
 1132 865 1132 865 1106.5 874 c 128,-1,59
 1081 883 1081 883 1051 883 c 0,60,61
 906 883 906 883 784 691 c 128,-1,62
 662 499 662 499 662 340 c 0,63,64
 662 247 662 247 691.5 205.5 c 128,-1,65
 721 164 721 164 786 164 c 0,66,67
 874 164 874 164 997.5 315 c 128,-1,68
 1121 466 1121 466 1126 485 c 2,69,-1
 1202 745 l 2,54,55
EndSplineSet
EndChar
StartChar: A
Encoding: 65 65 36
Width: 1479
Flags: W
Fore
913 528 m 1,0,-1
 682 1075 l 1,1,-1
 446 528 l 1,2,-1
 913 528 l 1,0,-1
756 1386 m 5,3,-1
 1217 291 l 6,4,5
 1255 198 1255 198 1278.5 155 c 128,-1,6
 1302 112 1302 112 1345.5 81 c 128,-1,7
 1389 50 1389 50 1458 47 c 1,8,-1
 1458 0 l 1,9,-1
 924 0 l 1,10,-1
 924 47 l 1,11,12
 1000 50 1000 50 1031.5 71 c 128,-1,13
 1063 92 1063 92 1063 139 c 0,14,15
 1063 189 1063 189 1025 271 c 2,16,-1
 944 444 l 1,17,-1
 412 444 l 1,18,19
 316 226 316 226 302.5 185.5 c 128,-1,20
 289 145 289 145 289 127 c 0,21,22
 289 91 289 91 322 72 c 128,-1,23
 355 53 355 53 446 47 c 1,24,-1
 446 0 l 1,25,-1
 20 0 l 1,26,-1
 20 47 l 1,27,28
 98 55 98 55 140.5 98.5 c 128,-1,29
 183 142 183 142 231 254 c 2,30,-1
 719 1386 l 1,31,-1
 756 1386 l 5,3,-1
EndSplineSet
KernsSLIFO: 182 -227 0 0 91 -188 0 0 89 -188 0 0 88 -152 0 0 60 -188 0 0 58 -164 0 0 57 -264 0 0 55 -227 0 0 3 -113 0 0
EndChar
StartChar: B
Encoding: 66 66 37
Width: 1366
Flags: W
Fore
934 700 m 1,0,1
 1085 679 1085 679 1171 592 c 128,-1,2
 1257 505 1257 505 1257 377 c 0,3,4
 1257 272 1257 272 1199.5 184.5 c 128,-1,5
 1142 97 1142 97 1025.5 48.5 c 128,-1,6
 909 0 909 0 735 0 c 2,7,-1
 72 0 l 1,8,-1
 72 47 l 1,9,10
 187 47 187 47 215.5 87 c 128,-1,11
 244 127 244 127 244 262 c 2,12,-1
 244 1096 l 2,13,14
 244 1196 244 1196 235 1235.5 c 128,-1,15
 226 1275 226 1275 187 1292 c 128,-1,16
 148 1309 148 1309 51 1309 c 1,17,-1
 51 1356 l 1,18,-1
 678 1356 l 2,19,20
 926 1356 926 1356 1054 1260.5 c 128,-1,21
 1182 1165 1182 1165 1182 991 c 0,22,23
 1182 893 1182 893 1117.5 815.5 c 128,-1,24
 1053 738 1053 738 934 700 c 1,0,1
436 735 m 1,25,-1
 651 735 l 2,26,27
 811 735 811 735 892 805 c 128,-1,28
 973 875 973 875 973 999 c 0,29,30
 973 1137 973 1137 875 1211.5 c 128,-1,31
 777 1286 777 1286 612 1286 c 0,32,33
 515 1286 515 1286 436 1264 c 1,34,-1
 436 735 l 1,25,-1
436 100 m 1,35,36
 541 74 541 74 657 74 c 0,37,38
 817 74 817 74 922.5 148 c 128,-1,39
 1028 222 1028 222 1028 354 c 0,40,41
 1028 503 1028 503 914 580 c 128,-1,42
 800 657 800 657 598 657 c 2,43,-1
 436 657 l 1,44,-1
 436 100 l 1,35,36
EndSplineSet
EndChar
StartChar: C
Encoding: 67 67 38
Width: 1366
Flags: W
Fore
733 -31 m 0,0,1
 445 -31 445 -31 260.5 169.5 c 128,-1,2
 76 370 76 370 76 678 c 0,3,4
 76 982 76 982 272.5 1184 c 128,-1,5
 469 1386 469 1386 770 1386 c 0,6,7
 881 1386 881 1386 1065 1345 c 0,8,9
 1125 1331 1125 1331 1137 1331 c 0,10,11
 1178 1331 1178 1331 1188 1386 c 1,12,-1
 1233 1386 l 1,13,-1
 1233 975 l 1,14,-1
 1192 975 l 1,15,16
 1153 1140 1153 1140 1045.5 1226.5 c 128,-1,17
 938 1313 938 1313 778 1313 c 0,18,19
 562 1313 562 1313 430.5 1148 c 128,-1,20
 299 983 299 983 299 680 c 0,21,22
 299 494 299 494 365 361 c 128,-1,23
 431 228 431 228 550.5 158 c 128,-1,24
 670 88 670 88 811 88 c 0,25,26
 1075 88 1075 88 1264 276 c 1,27,-1
 1294 246 l 1,28,29
 1094 -31 1094 -31 733 -31 c 0,0,1
EndSplineSet
EndChar
StartChar: D
Encoding: 68 68 39
Width: 1479
Flags: W
Fore
51 1356 m 1,0,-1
 563 1356 l 2,1,2
 762 1356 762 1356 907 1331 c 128,-1,3
 1052 1306 1052 1306 1167 1216.5 c 128,-1,4
 1282 1127 1282 1127 1342.5 985.5 c 128,-1,5
 1403 844 1403 844 1403 684 c 0,6,7
 1403 486 1403 486 1314.5 328.5 c 128,-1,8
 1226 171 1226 171 1060 85.5 c 128,-1,9
 894 0 894 0 670 0 c 2,10,-1
 51 0 l 1,11,-1
 51 47 l 1,12,13
 148 47 148 47 187 64 c 128,-1,14
 226 81 226 81 235 120.5 c 128,-1,15
 244 160 244 160 244 260 c 2,16,-1
 244 1096 l 2,17,18
 244 1196 244 1196 235 1235.5 c 128,-1,19
 226 1275 226 1275 187 1292 c 128,-1,20
 148 1309 148 1309 51 1309 c 1,21,-1
 51 1356 l 1,0,-1
436 100 m 1,22,23
 543 74 543 74 637 74 c 0,24,25
 883 74 883 74 1031.5 244.5 c 128,-1,26
 1180 415 1180 415 1180 678 c 0,27,28
 1180 945 1180 945 1030.5 1113.5 c 128,-1,29
 881 1282 881 1282 629 1282 c 0,30,31
 522 1282 522 1282 436 1257 c 1,32,-1
 436 100 l 1,22,23
EndSplineSet
EndChar
StartChar: E
Encoding: 69 69 40
Width: 1251
Flags: W
Fore
1163 0 m 1,0,-1
 51 0 l 1,1,-1
 51 47 l 1,2,3
 148 47 148 47 187 64 c 128,-1,4
 226 81 226 81 235 120.5 c 128,-1,5
 244 160 244 160 244 260 c 2,6,-1
 244 1096 l 2,7,8
 244 1196 244 1196 235 1235.5 c 128,-1,9
 226 1275 226 1275 187 1292 c 128,-1,10
 148 1309 148 1309 51 1309 c 1,11,-1
 51 1356 l 1,12,-1
 1110 1356 l 1,13,-1
 1110 1038 l 1,14,-1
 1059 1038 l 1,15,16
 1059 1175 1059 1175 1005 1228.5 c 128,-1,17
 951 1282 951 1282 782 1282 c 2,18,-1
 436 1282 l 1,19,-1
 436 745 l 1,20,-1
 707 745 l 2,21,22
 795 745 795 745 837.5 758 c 128,-1,23
 880 771 880 771 899 813 c 128,-1,24
 918 855 918 855 918 946 c 1,25,-1
 967 946 l 1,26,-1
 967 471 l 1,27,-1
 918 471 l 1,28,29
 918 602 918 602 877 637 c 128,-1,30
 836 672 836 672 707 672 c 2,31,-1
 436 672 l 1,32,-1
 436 176 l 2,33,34
 436 116 436 116 457 95 c 128,-1,35
 478 74 478 74 547 74 c 2,36,-1
 825 74 l 2,37,38
 963 74 963 74 1038.5 152.5 c 128,-1,39
 1114 231 1114 231 1114 373 c 1,40,-1
 1163 373 l 1,41,-1
 1163 0 l 1,0,-1
EndSplineSet
EndChar
StartChar: F
Encoding: 70 70 41
Width: 1139
Flags: W
Fore
1083 1059 m 1,0,-1
 1032 1059 l 1,1,2
 1032 1157 1032 1157 1006 1204.5 c 128,-1,3
 980 1252 980 1252 923 1267 c 128,-1,4
 866 1282 866 1282 756 1282 c 2,5,-1
 436 1282 l 1,6,-1
 436 717 l 1,7,-1
 680 717 l 2,8,9
 769 717 769 717 811 730 c 128,-1,10
 853 743 853 743 872 784.5 c 128,-1,11
 891 826 891 826 891 918 c 1,12,-1
 940 918 l 1,13,-1
 940 442 l 1,14,-1
 891 442 l 1,15,16
 891 573 891 573 850.5 608 c 128,-1,17
 810 643 810 643 680 643 c 2,18,-1
 436 643 l 1,19,-1
 436 260 l 2,20,21
 436 167 436 167 452 124.5 c 128,-1,22
 468 82 468 82 520.5 64.5 c 128,-1,23
 573 47 573 47 690 47 c 1,24,-1
 690 0 l 1,25,-1
 51 0 l 1,26,-1
 51 47 l 1,27,28
 148 47 148 47 187 64 c 128,-1,29
 226 81 226 81 235 120.5 c 128,-1,30
 244 160 244 160 244 260 c 2,31,-1
 244 1096 l 2,32,33
 244 1196 244 1196 235 1235.5 c 128,-1,34
 226 1275 226 1275 187 1292 c 128,-1,35
 148 1309 148 1309 51 1309 c 1,36,-1
 51 1356 l 1,37,-1
 1083 1356 l 1,38,-1
 1083 1059 l 1,0,-1
EndSplineSet
KernsSLIFO: 36 -152 0 0 17 -164 0 0 15 -164 0 0
EndChar
StartChar: G
Encoding: 71 71 42
Width: 1479
Flags: W
Fore
756 -31 m 0,0,1
 451 -31 451 -31 263.5 167.5 c 128,-1,2
 76 366 76 366 76 678 c 0,3,4
 76 979 76 979 280.5 1182.5 c 128,-1,5
 485 1386 485 1386 791 1386 c 0,6,7
 901 1386 901 1386 1066 1350 c 0,8,9
 1148 1331 1148 1331 1176 1331 c 0,10,11
 1218 1331 1218 1331 1229 1386 c 1,12,-1
 1274 1386 l 1,13,-1
 1274 975 l 1,14,-1
 1233 975 l 1,15,16
 1139 1313 1139 1313 799 1313 c 0,17,18
 579 1313 579 1313 439 1147 c 128,-1,19
 299 981 299 981 299 680 c 0,20,21
 299 484 299 484 366 341.5 c 128,-1,22
 433 199 433 199 553.5 123 c 128,-1,23
 674 47 674 47 811 47 c 0,24,25
 976 47 976 47 1106 127 c 1,26,-1
 1106 369 l 2,27,28
 1106 469 1106 469 1097 508.5 c 128,-1,29
 1088 548 1088 548 1049 565 c 128,-1,30
 1010 582 1010 582 913 582 c 1,31,-1
 913 629 l 1,32,-1
 1452 629 l 1,33,-1
 1452 582 l 1,34,35
 1361 582 1361 582 1329.5 551 c 128,-1,36
 1298 520 1298 520 1298 401 c 2,37,-1
 1298 92 l 1,38,39
 1062 -31 1062 -31 756 -31 c 0,0,1
EndSplineSet
EndChar
StartChar: H
Encoding: 72 72 43
Width: 1479
Flags: W
Fore
1427 0 m 1,0,-1
 850 0 l 1,1,-1
 850 47 l 1,2,3
 946 47 946 47 985.5 64 c 128,-1,4
 1025 81 1025 81 1033.5 120.5 c 128,-1,5
 1042 160 1042 160 1042 260 c 2,6,-1
 1042 653 l 1,7,-1
 436 653 l 1,8,-1
 436 260 l 2,9,10
 436 160 436 160 445 120.5 c 128,-1,11
 454 81 454 81 493 64 c 128,-1,12
 532 47 532 47 629 47 c 1,13,-1
 629 0 l 1,14,-1
 51 0 l 1,15,-1
 51 47 l 1,16,17
 148 47 148 47 187 64 c 128,-1,18
 226 81 226 81 235 120.5 c 128,-1,19
 244 160 244 160 244 260 c 2,20,-1
 244 1096 l 2,21,22
 244 1196 244 1196 235 1235.5 c 128,-1,23
 226 1275 226 1275 187 1292 c 128,-1,24
 148 1309 148 1309 51 1309 c 1,25,-1
 51 1356 l 1,26,-1
 629 1356 l 1,27,-1
 629 1309 l 1,28,29
 532 1309 532 1309 493 1292 c 128,-1,30
 454 1275 454 1275 445 1235.5 c 128,-1,31
 436 1196 436 1196 436 1096 c 2,32,-1
 436 737 l 1,33,-1
 1042 737 l 1,34,-1
 1042 1096 l 2,35,36
 1042 1196 1042 1196 1033.5 1235.5 c 128,-1,37
 1025 1275 1025 1275 985.5 1292 c 128,-1,38
 946 1309 946 1309 850 1309 c 1,39,-1
 850 1356 l 1,40,-1
 1427 1356 l 1,41,-1
 1427 1309 l 1,42,43
 1331 1309 1331 1309 1292 1292 c 128,-1,44
 1253 1275 1253 1275 1244 1235.5 c 128,-1,45
 1235 1196 1235 1196 1235 1096 c 2,46,-1
 1235 260 l 2,47,48
 1235 160 1235 160 1244 120.5 c 128,-1,49
 1253 81 1253 81 1292 64 c 128,-1,50
 1331 47 1331 47 1427 47 c 1,51,-1
 1427 0 l 1,0,-1
EndSplineSet
EndChar
StartChar: I
Encoding: 73 73 44
Width: 682
Flags: W
Fore
629 0 m 1,0,-1
 51 0 l 1,1,-1
 51 47 l 1,2,3
 148 47 148 47 187 64 c 128,-1,4
 226 81 226 81 235 120.5 c 128,-1,5
 244 160 244 160 244 260 c 2,6,-1
 244 1096 l 2,7,8
 244 1196 244 1196 235 1235.5 c 128,-1,9
 226 1275 226 1275 187 1292 c 128,-1,10
 148 1309 148 1309 51 1309 c 1,11,-1
 51 1356 l 1,12,-1
 629 1356 l 1,13,-1
 629 1309 l 1,14,15
 532 1309 532 1309 493 1292 c 128,-1,16
 454 1275 454 1275 445 1235.5 c 128,-1,17
 436 1196 436 1196 436 1096 c 2,18,-1
 436 260 l 2,19,20
 436 160 436 160 445 120.5 c 128,-1,21
 454 81 454 81 493 64 c 128,-1,22
 532 47 532 47 629 47 c 1,23,-1
 629 0 l 1,0,-1
EndSplineSet
EndChar
StartChar: J
Encoding: 74 74 45
Width: 797
Flags: W
Fore
786 1309 m 1,0,1
 690 1309 690 1309 651 1292 c 128,-1,2
 612 1275 612 1275 603 1235.5 c 128,-1,3
 594 1196 594 1196 594 1096 c 2,4,-1
 594 399 l 2,5,6
 594 186 594 186 503 77.5 c 128,-1,7
 412 -31 412 -31 256 -31 c 0,8,9
 161 -31 161 -31 97 18 c 128,-1,10
 33 67 33 67 33 139 c 0,11,12
 33 178 33 178 54.5 202.5 c 128,-1,13
 76 227 76 227 113 227 c 0,14,15
 140 227 140 227 163.5 209.5 c 128,-1,16
 187 192 187 192 217 127 c 0,17,18
 243 69 243 69 261.5 54 c 128,-1,19
 280 39 280 39 301 39 c 0,20,21
 347 39 347 39 374 89 c 128,-1,22
 401 139 401 139 401 215 c 2,23,-1
 401 1096 l 2,24,25
 401 1196 401 1196 392.5 1235.5 c 128,-1,26
 384 1275 384 1275 344.5 1292 c 128,-1,27
 305 1309 305 1309 209 1309 c 1,28,-1
 209 1356 l 1,29,-1
 786 1356 l 1,30,-1
 786 1309 l 1,0,1
EndSplineSet
EndChar
StartChar: K
Encoding: 75 75 46
Width: 1479
Flags: W
Fore
1493 0 m 1,0,1
 1377 -20 1377 -20 1253 -20 c 0,2,3
 1112 -20 1112 -20 986.5 123 c 128,-1,4
 861 266 861 266 559 700 c 1,5,-1
 436 592 l 1,6,-1
 436 260 l 2,7,8
 436 166 436 166 449 124 c 128,-1,9
 462 82 462 82 505 64.5 c 128,-1,10
 548 47 548 47 645 47 c 1,11,-1
 645 0 l 1,12,-1
 51 0 l 1,13,-1
 51 47 l 1,14,15
 148 47 148 47 187 64 c 128,-1,16
 226 81 226 81 235 120.5 c 128,-1,17
 244 160 244 160 244 260 c 2,18,-1
 244 1096 l 2,19,20
 244 1196 244 1196 235 1235.5 c 128,-1,21
 226 1275 226 1275 187 1292 c 128,-1,22
 148 1309 148 1309 51 1309 c 1,23,-1
 51 1356 l 1,24,-1
 629 1356 l 1,25,-1
 629 1309 l 1,26,27
 532 1309 532 1309 493 1292 c 128,-1,28
 454 1275 454 1275 445 1235.5 c 128,-1,29
 436 1196 436 1196 436 1096 c 2,30,-1
 436 700 l 1,31,32
 790 1018 790 1018 824 1049.5 c 128,-1,33
 858 1081 858 1081 914.5 1147.5 c 128,-1,34
 971 1214 971 1214 971 1247 c 0,35,36
 971 1309 971 1309 848 1309 c 1,37,-1
 848 1356 l 1,38,-1
 1346 1356 l 1,39,-1
 1346 1309 l 1,40,41
 1277 1309 1277 1309 1201.5 1265 c 128,-1,42
 1126 1221 1126 1221 1017 1122 c 2,43,-1
 709 840 l 1,44,45
 1029 368 1029 368 1180.5 205.5 c 128,-1,46
 1332 43 1332 43 1432 43 c 0,47,48
 1447 43 1447 43 1493 47 c 1,49,-1
 1493 0 l 1,0,1
EndSplineSet
EndChar
StartChar: L
Encoding: 76 76 47
Width: 1251
Flags: W
Fore
1153 0 m 1,0,-1
 51 0 l 1,1,-1
 51 47 l 1,2,3
 148 47 148 47 187 64 c 128,-1,4
 226 81 226 81 235 120.5 c 128,-1,5
 244 160 244 160 244 260 c 2,6,-1
 244 1096 l 2,7,8
 244 1196 244 1196 235 1235.5 c 128,-1,9
 226 1275 226 1275 187 1292 c 128,-1,10
 148 1309 148 1309 51 1309 c 1,11,-1
 51 1356 l 1,12,-1
 664 1356 l 1,13,-1
 664 1309 l 1,14,15
 550 1309 550 1309 503.5 1289.5 c 128,-1,16
 457 1270 457 1270 446.5 1226.5 c 128,-1,17
 436 1183 436 1183 436 1075 c 2,18,-1
 436 266 l 2,19,20
 436 139 436 139 460.5 108.5 c 128,-1,21
 485 78 485 78 528 78 c 2,22,-1
 831 78 l 2,23,24
 971 78 971 78 1035.5 156.5 c 128,-1,25
 1100 235 1100 235 1100 412 c 1,26,-1
 1153 412 l 1,27,-1
 1153 0 l 1,0,-1
EndSplineSet
KernsSLIFO: 182 -188 0 0 91 -113 0 0 60 -205 0 0 58 -152 0 0 57 -188 0 0 55 -188 0 0 3 -76 0 0
EndChar
StartChar: M
Encoding: 77 77 48
Width: 1821
Flags: W
Fore
1769 0 m 1,0,-1
 1192 0 l 1,1,-1
 1192 47 l 1,2,3
 1288 47 1288 47 1327.5 64 c 128,-1,4
 1367 81 1367 81 1375.5 120.5 c 128,-1,5
 1384 160 1384 160 1384 260 c 2,6,-1
 1384 1133 l 1,7,-1
 864 0 l 1,8,-1
 831 0 l 1,9,-1
 332 1135 l 1,10,-1
 332 260 l 2,11,12
 332 160 332 160 341 120.5 c 128,-1,13
 350 81 350 81 389 64 c 128,-1,14
 428 47 428 47 524 47 c 1,15,-1
 524 0 l 1,16,-1
 51 0 l 1,17,-1
 51 47 l 1,18,19
 148 47 148 47 187 64 c 128,-1,20
 226 81 226 81 235 120.5 c 128,-1,21
 244 160 244 160 244 260 c 2,22,-1
 244 1098 l 2,23,24
 244 1226 244 1226 210 1267.5 c 128,-1,25
 176 1309 176 1309 51 1309 c 1,26,-1
 51 1356 l 1,27,-1
 436 1356 l 1,28,-1
 903 297 l 1,29,-1
 1389 1356 l 1,30,-1
 1769 1356 l 1,31,-1
 1769 1309 l 1,32,33
 1673 1309 1673 1309 1634 1292 c 128,-1,34
 1595 1275 1595 1275 1586 1235.5 c 128,-1,35
 1577 1196 1577 1196 1577 1096 c 2,36,-1
 1577 260 l 2,37,38
 1577 160 1577 160 1586 120.5 c 128,-1,39
 1595 81 1595 81 1634 64 c 128,-1,40
 1673 47 1673 47 1769 47 c 1,41,-1
 1769 0 l 1,0,-1
EndSplineSet
EndChar
StartChar: N
Encoding: 78 78 49
Width: 1479
Flags: W
Fore
1454 1309 m 1,0,1
 1358 1309 1358 1309 1318.5 1292 c 128,-1,2
 1279 1275 1279 1275 1270.5 1235.5 c 128,-1,3
 1262 1196 1262 1196 1262 1096 c 2,4,-1
 1262 -23 l 1,5,-1
 1214 -23 l 1,6,-1
 332 1135 l 1,7,-1
 332 260 l 2,8,9
 332 160 332 160 341 120.5 c 128,-1,10
 350 81 350 81 389 64 c 128,-1,11
 428 47 428 47 524 47 c 1,12,-1
 524 0 l 1,13,-1
 51 0 l 1,14,-1
 51 47 l 1,15,16
 148 47 148 47 187 64 c 128,-1,17
 226 81 226 81 235 120.5 c 128,-1,18
 244 160 244 160 244 260 c 2,19,-1
 244 1096 l 2,20,21
 244 1179 244 1179 232 1221.5 c 128,-1,22
 220 1264 220 1264 176.5 1286.5 c 128,-1,23
 133 1309 133 1309 39 1309 c 1,24,-1
 39 1356 l 1,25,-1
 403 1356 l 1,26,-1
 1174 346 l 1,27,-1
 1174 1096 l 2,28,29
 1174 1196 1174 1196 1165 1235.5 c 128,-1,30
 1156 1275 1156 1275 1117 1292 c 128,-1,31
 1078 1309 1078 1309 981 1309 c 1,32,-1
 981 1356 l 1,33,-1
 1454 1356 l 1,34,-1
 1454 1309 l 1,0,1
EndSplineSet
EndChar
StartChar: O
Encoding: 79 79 50
Width: 1479
Flags: W
Fore
739 1386 m 0,0,1
 1035 1386 1035 1386 1219 1188 c 128,-1,2
 1403 990 1403 990 1403 678 c 0,3,4
 1403 367 1403 367 1220.5 168 c 128,-1,5
 1038 -31 1038 -31 739 -31 c 0,6,7
 444 -31 444 -31 260 167 c 128,-1,8
 76 365 76 365 76 678 c 0,9,10
 76 990 76 990 260 1188 c 128,-1,11
 444 1386 444 1386 739 1386 c 0,0,1
739 45 m 0,12,13
 953 45 953 45 1066.5 216.5 c 128,-1,14
 1180 388 1180 388 1180 678 c 0,15,16
 1180 968 1180 968 1066.5 1140.5 c 128,-1,17
 953 1313 953 1313 739 1313 c 0,18,19
 526 1313 526 1313 412.5 1140.5 c 128,-1,20
 299 968 299 968 299 678 c 0,21,22
 299 388 299 388 412.5 216.5 c 128,-1,23
 526 45 526 45 739 45 c 0,12,13
EndSplineSet
EndChar
StartChar: P
Encoding: 80 80 51
Width: 1139
Flags: W
Fore
51 1356 m 1,0,-1
 604 1356 l 2,1,2
 824 1356 824 1356 950.5 1248.5 c 128,-1,3
 1077 1141 1077 1141 1077 975 c 0,4,5
 1077 781 1077 781 949.5 673 c 128,-1,6
 822 565 822 565 582 565 c 2,7,-1
 436 565 l 1,8,-1
 436 260 l 2,9,10
 436 167 436 167 452 124.5 c 128,-1,11
 468 82 468 82 520.5 64.5 c 128,-1,12
 573 47 573 47 690 47 c 1,13,-1
 690 0 l 1,14,-1
 51 0 l 1,15,-1
 51 47 l 1,16,17
 148 47 148 47 187 64 c 128,-1,18
 226 81 226 81 235 120.5 c 128,-1,19
 244 160 244 160 244 260 c 2,20,-1
 244 1096 l 2,21,22
 244 1196 244 1196 235 1235.5 c 128,-1,23
 226 1275 226 1275 187 1292 c 128,-1,24
 148 1309 148 1309 51 1309 c 1,25,-1
 51 1356 l 1,0,-1
436 643 m 1,26,-1
 582 643 l 2,27,28
 704 643 704 643 779 729.5 c 128,-1,29
 854 816 854 816 854 967 c 0,30,31
 854 1112 854 1112 773 1198 c 128,-1,32
 692 1284 692 1284 557 1284 c 0,33,34
 498 1284 498 1284 436 1272 c 1,35,-1
 436 643 l 1,26,-1
EndSplineSet
KernsSLIFO: 36 -188 0 0 17 -227 0 0 15 -227 0 0 3 -76 0 0
EndChar
StartChar: Q
Encoding: 81 81 52
Width: 1479
Flags: W
Fore
1526 -365 m 1,0,1
 1418 -389 1418 -389 1323 -389 c 0,2,3
 1195 -389 1195 -389 1106 -359 c 128,-1,4
 1017 -329 1017 -329 958 -283.5 c 128,-1,5
 899 -238 899 -238 815 -155 c 0,6,7
 729 -68 729 -68 680 -29 c 1,8,9
 404 -7 404 -7 240 190 c 128,-1,10
 76 387 76 387 76 678 c 0,11,12
 76 990 76 990 260 1188 c 128,-1,13
 444 1386 444 1386 739 1386 c 0,14,15
 1035 1386 1035 1386 1219 1188 c 128,-1,16
 1403 990 1403 990 1403 678 c 0,17,18
 1403 432 1403 432 1283 249.5 c 128,-1,19
 1163 67 1163 67 944 -2 c 1,20,-1
 1087 -137 l 2,21,22
 1157 -203 1157 -203 1210 -240 c 128,-1,23
 1263 -277 1263 -277 1323 -298 c 128,-1,24
 1383 -319 1383 -319 1454 -319 c 0,25,26
 1487 -319 1487 -319 1526 -311 c 1,27,-1
 1526 -365 l 1,0,1
739 43 m 0,28,29
 953 43 953 43 1066.5 215 c 128,-1,30
 1180 387 1180 387 1180 678 c 0,31,32
 1180 968 1180 968 1066.5 1140.5 c 128,-1,33
 953 1313 953 1313 739 1313 c 0,34,35
 526 1313 526 1313 412.5 1140.5 c 128,-1,36
 299 968 299 968 299 678 c 0,37,38
 299 387 299 387 412.5 215 c 128,-1,39
 526 43 526 43 739 43 c 0,28,29
EndSplineSet
EndChar
StartChar: R
Encoding: 82 82 53
Width: 1366
Flags: W
Fore
1382 0 m 1,0,1
 1281 -20 1281 -20 1157 -20 c 0,2,3
 1029 -20 1029 -20 921 108 c 128,-1,4
 813 236 813 236 586 602 c 1,5,-1
 436 602 l 1,6,-1
 436 260 l 2,7,8
 436 127 436 127 473.5 87 c 128,-1,9
 511 47 511 47 651 47 c 1,10,-1
 651 0 l 1,11,-1
 51 0 l 1,12,-1
 51 47 l 1,13,14
 148 47 148 47 187 64 c 128,-1,15
 226 81 226 81 235 120.5 c 128,-1,16
 244 160 244 160 244 260 c 2,17,-1
 244 1096 l 2,18,19
 244 1196 244 1196 235 1235.5 c 128,-1,20
 226 1275 226 1275 187 1292 c 128,-1,21
 148 1309 148 1309 51 1309 c 1,22,-1
 51 1356 l 1,23,-1
 614 1356 l 2,24,25
 859 1356 859 1356 981.5 1268 c 128,-1,26
 1104 1180 1104 1180 1104 1004 c 0,27,28
 1104 880 1104 880 1015 774.5 c 128,-1,29
 926 669 926 669 795 633 c 1,30,31
 1004 327 1004 327 1067 246 c 128,-1,32
 1130 165 1130 165 1202 104 c 128,-1,33
 1274 43 1274 43 1327 43 c 0,34,35
 1342 43 1342 43 1382 47 c 1,36,-1
 1382 0 l 1,0,1
436 678 m 1,37,-1
 498 678 l 2,38,39
 674 678 674 678 777.5 759 c 128,-1,40
 881 840 881 840 881 989 c 0,41,42
 881 1125 881 1125 790 1204.5 c 128,-1,43
 699 1284 699 1284 561 1284 c 0,44,45
 511 1284 511 1284 436 1268 c 1,46,-1
 436 678 l 1,37,-1
EndSplineSet
KernsSLIFO: 91 -82 0 0 60 -113 0 0 58 -113 0 0 57 -164 0 0 55 -123 0 0
EndChar
StartChar: S
Encoding: 83 83 54
Width: 1139
Flags: W
Fore
604 -31 m 0,0,1
 487 -31 487 -31 334 10 c 0,2,3
 255 31 255 31 223 31 c 0,4,5
 179 31 179 31 172 -31 c 1,6,-1
 125 -31 l 1,7,-1
 125 399 l 1,8,-1
 172 399 l 1,9,10
 187 229 187 229 303 141 c 128,-1,11
 419 53 419 53 592 53 c 0,12,13
 708 53 708 53 781 111 c 128,-1,14
 854 169 854 169 854 270 c 0,15,16
 854 347 854 347 798.5 418.5 c 128,-1,17
 743 490 743 490 525 603 c 0,18,19
 399 668 399 668 322.5 718.5 c 128,-1,20
 246 769 246 769 192.5 845 c 128,-1,21
 139 921 139 921 139 1024 c 0,22,23
 139 1186 139 1186 256 1286 c 128,-1,24
 373 1386 373 1386 561 1386 c 0,25,26
 626 1386 626 1386 758 1353 c 0,27,28
 830 1335 830 1335 850 1335 c 0,29,30
 900 1335 900 1335 909 1386 c 1,31,-1
 956 1386 l 1,32,-1
 956 983 l 1,33,-1
 909 983 l 1,34,35
 881 1144 881 1144 796 1223.5 c 128,-1,36
 711 1303 711 1303 553 1303 c 0,37,38
 440 1303 440 1303 368.5 1241 c 128,-1,39
 297 1179 297 1179 297 1085 c 0,40,41
 297 1026 297 1026 349 967.5 c 128,-1,42
 401 909 401 909 609 803 c 0,43,44
 745 734 745 734 829 679.5 c 128,-1,45
 913 625 913 625 972.5 545.5 c 128,-1,46
 1032 466 1032 466 1032 360 c 0,47,48
 1032 196 1032 196 913.5 82.5 c 128,-1,49
 795 -31 795 -31 604 -31 c 0,0,1
EndSplineSet
EndChar
StartChar: T
Encoding: 84 84 55
Width: 1251
Flags: W
Fore
1178 997 m 1,0,-1
 1126 997 l 1,1,2
 1126 1132 1126 1132 1075.5 1200 c 128,-1,3
 1025 1268 1025 1268 924 1268 c 2,4,-1
 721 1268 l 1,5,-1
 721 260 l 2,6,7
 721 160 721 160 730 120.5 c 128,-1,8
 739 81 739 81 778 64 c 128,-1,9
 817 47 817 47 913 47 c 1,10,-1
 913 0 l 1,11,-1
 336 0 l 1,12,-1
 336 47 l 1,13,14
 432 47 432 47 471.5 64 c 128,-1,15
 511 81 511 81 519.5 120.5 c 128,-1,16
 528 160 528 160 528 260 c 2,17,-1
 528 1268 l 1,18,-1
 326 1268 l 2,19,20
 224 1268 224 1268 173.5 1200 c 128,-1,21
 123 1132 123 1132 123 997 c 1,22,-1
 72 997 l 1,23,-1
 72 1356 l 1,24,-1
 1178 1356 l 1,25,-1
 1178 997 l 1,0,-1
EndSplineSet
KernsSLIFO: 91 -143 0 0 89 -143 0 0 86 -143 0 0 85 -72 0 0 82 -143 0 0 76 -72 0 0 72 -143 0 0 70 -143 0 0 68 -143 0 0 50 -37 0 0 36 -164 0 0 30 -113 0 0 29 -102 0 0 17 -152 0 0 16 -188 0 0 15 -152 0 0 3 -37 0 0
EndChar
StartChar: U
Encoding: 85 85 56
Width: 1479
Flags: W
Fore
743 -31 m 0,0,1
 477 -31 477 -31 344 94.5 c 128,-1,2
 211 220 211 220 211 485 c 2,3,-1
 211 1096 l 2,4,5
 211 1196 211 1196 202 1235.5 c 128,-1,6
 193 1275 193 1275 154 1292 c 128,-1,7
 115 1309 115 1309 18 1309 c 1,8,-1
 18 1356 l 1,9,-1
 596 1356 l 1,10,-1
 596 1309 l 1,11,12
 499 1309 499 1309 460 1292 c 128,-1,13
 421 1275 421 1275 412 1235.5 c 128,-1,14
 403 1196 403 1196 403 1096 c 2,15,-1
 403 555 l 2,16,17
 403 342 403 342 439.5 250.5 c 128,-1,18
 476 159 476 159 562 113.5 c 128,-1,19
 648 68 648 68 754 68 c 0,20,21
 860 68 860 68 956 106.5 c 128,-1,22
 1052 145 1052 145 1103 216.5 c 128,-1,23
 1154 288 1154 288 1166 378 c 128,-1,24
 1178 468 1178 468 1178 592 c 2,25,-1
 1178 1096 l 2,26,27
 1178 1196 1178 1196 1169 1235.5 c 128,-1,28
 1160 1275 1160 1275 1121 1292 c 128,-1,29
 1082 1309 1082 1309 985 1309 c 1,30,-1
 985 1356 l 1,31,-1
 1458 1356 l 1,32,-1
 1458 1309 l 1,33,34
 1362 1309 1362 1309 1322.5 1292 c 128,-1,35
 1283 1275 1283 1275 1274.5 1235.5 c 128,-1,36
 1266 1196 1266 1196 1266 1096 c 2,37,-1
 1266 492 l 2,38,39
 1266 238 1266 238 1134 103.5 c 128,-1,40
 1002 -31 1002 -31 743 -31 c 0,0,1
EndSplineSet
EndChar
StartChar: V
Encoding: 86 86 57
Width: 1479
Flags: W
Fore
1456 1309 m 1,0,1
 1373 1309 1373 1309 1337 1268.5 c 128,-1,2
 1301 1228 1301 1228 1243 1090 c 2,3,-1
 780 -31 l 1,4,-1
 743 -31 l 1,5,-1
 246 1104 l 2,6,7
 192 1227 192 1227 151.5 1268 c 128,-1,8
 111 1309 111 1309 20 1309 c 1,9,-1
 20 1356 l 1,10,-1
 575 1356 l 1,11,-1
 575 1309 l 1,12,13
 424 1309 424 1309 424 1212 c 0,14,15
 424 1169 424 1169 481 1038 c 2,16,-1
 815 276 l 1,17,-1
 1126 1030 l 2,18,19
 1182 1161 1182 1161 1182 1219 c 0,20,21
 1182 1309 1182 1309 1038 1309 c 1,22,-1
 1038 1356 l 1,23,-1
 1456 1356 l 1,24,-1
 1456 1309 l 1,0,1
EndSplineSet
KernsSLIFO: 91 -227 0 0 85 -123 0 0 82 -264 0 0 76 -123 0 0 72 -227 0 0 68 -227 0 0 36 -264 0 0 30 -152 0 0 29 -152 0 0 17 -264 0 0 16 -188 0 0 15 -264 0 0 3 -37 0 0
EndChar
StartChar: W
Encoding: 87 87 58
Width: 1933
Flags: W
Fore
1913 1309 m 1,0,1
 1852 1309 1852 1309 1815 1280 c 128,-1,2
 1778 1251 1778 1251 1761 1215.5 c 128,-1,3
 1744 1180 1744 1180 1712 1087 c 2,4,-1
 1323 -31 l 1,5,-1
 1284 -31 l 1,6,-1
 977 819 l 1,7,-1
 973 819 l 1,8,-1
 672 -31 l 1,9,-1
 631 -31 l 1,10,-1
 213 1128 l 2,11,12
 175 1237 175 1237 142.5 1273 c 128,-1,13
 110 1309 110 1309 25 1309 c 1,14,-1
 25 1356 l 1,15,-1
 526 1356 l 1,16,-1
 526 1309 l 1,17,18
 393 1309 393 1309 393 1223 c 0,19,20
 393 1192 393 1192 424 1106 c 2,21,-1
 700 328 l 1,22,-1
 705 328 l 1,23,-1
 930 950 l 1,24,25
 860 1142 860 1142 839.5 1190.5 c 128,-1,26
 819 1239 819 1239 779.5 1274 c 128,-1,27
 740 1309 740 1309 666 1309 c 1,28,-1
 666 1356 l 1,29,-1
 1196 1356 l 1,30,-1
 1196 1309 l 1,31,32
 1100 1309 1100 1309 1075.5 1285 c 128,-1,33
 1051 1261 1051 1261 1051 1217 c 0,34,35
 1051 1165 1051 1165 1104 1018 c 2,36,-1
 1354 328 l 1,37,-1
 1358 328 l 1,38,-1
 1608 1028 l 2,39,40
 1657 1169 1657 1169 1657 1212 c 0,41,42
 1657 1267 1657 1267 1619.5 1288 c 128,-1,43
 1582 1309 1582 1309 1507 1309 c 1,44,-1
 1507 1356 l 1,45,-1
 1913 1356 l 1,46,-1
 1913 1309 l 1,0,1
EndSplineSet
KernsSLIFO: 91 -123 0 0 85 -82 0 0 82 -164 0 0 76 -82 0 0 72 -164 0 0 68 -164 0 0 36 -227 0 0 30 -76 0 0 29 -76 0 0 17 -188 0 0 16 -113 0 0 15 -188 0 0 3 -37 0 0
EndChar
StartChar: X
Encoding: 88 88 59
Width: 1479
Flags: W
Fore
1458 0 m 1,0,-1
 877 0 l 1,1,-1
 877 47 l 1,2,3
 1010 47 1010 47 1010 125 c 0,4,5
 1010 167 1010 167 962 236 c 2,6,-1
 715 594 l 1,7,-1
 420 228 l 2,8,9
 369 163 369 163 369 125 c 0,10,11
 369 51 369 51 500 47 c 1,12,-1
 500 0 l 1,13,-1
 18 0 l 1,14,-1
 18 47 l 1,15,16
 105 55 105 55 186.5 111 c 128,-1,17
 268 167 268 167 360 283 c 2,18,-1
 666 666 l 1,19,20
 395 1062 395 1062 347.5 1130 c 128,-1,21
 300 1198 300 1198 232.5 1253.5 c 128,-1,22
 165 1309 165 1309 76 1309 c 1,23,-1
 76 1356 l 1,24,-1
 672 1356 l 1,25,-1
 672 1309 l 1,26,27
 532 1309 532 1309 532 1229 c 0,28,29
 532 1193 532 1193 574 1132 c 2,30,-1
 791 819 l 1,31,-1
 1044 1135 l 2,32,33
 1092 1193 1092 1193 1092 1231 c 0,34,35
 1092 1270 1092 1270 1060 1289.5 c 128,-1,36
 1028 1309 1028 1309 946 1309 c 1,37,-1
 946 1356 l 1,38,-1
 1403 1356 l 1,39,-1
 1403 1309 l 1,40,41
 1291 1309 1291 1309 1151 1136 c 2,42,-1
 840 748 l 1,43,-1
 1088 388 l 2,44,45
 1221 195 1221 195 1251.5 157 c 128,-1,46
 1282 119 1282 119 1319 93.5 c 128,-1,47
 1356 68 1356 68 1385.5 59.5 c 128,-1,48
 1415 51 1415 51 1458 47 c 1,49,-1
 1458 0 l 1,0,-1
EndSplineSet
EndChar
StartChar: Y
Encoding: 89 89 60
Width: 1479
Flags: W
Fore
1456 1309 m 1,0,1
 1310 1309 1310 1309 1209 1153 c 2,2,-1
 836 575 l 1,3,-1
 836 260 l 2,4,5
 836 160 836 160 844.5 120.5 c 128,-1,6
 853 81 853 81 892.5 64 c 128,-1,7
 932 47 932 47 1028 47 c 1,8,-1
 1028 0 l 1,9,-1
 451 0 l 1,10,-1
 451 47 l 1,11,12
 547 47 547 47 586 64 c 128,-1,13
 625 81 625 81 634 120.5 c 128,-1,14
 643 160 643 160 643 260 c 2,15,-1
 643 557 l 1,16,-1
 223 1186 l 2,17,18
 187 1242 187 1242 133 1275.5 c 128,-1,19
 79 1309 79 1309 27 1309 c 1,20,-1
 27 1356 l 1,21,-1
 606 1356 l 1,22,-1
 606 1309 l 1,23,24
 449 1309 449 1309 449 1219 c 0,25,26
 449 1197 449 1197 463 1170 c 128,-1,27
 477 1143 477 1143 572 1000 c 2,28,-1
 795 664 l 1,29,30
 1050 1057 1050 1057 1085 1113.5 c 128,-1,31
 1120 1170 1120 1170 1120 1210 c 0,32,33
 1120 1309 1120 1309 983 1309 c 1,34,-1
 983 1356 l 1,35,-1
 1456 1356 l 1,36,-1
 1456 1309 l 1,0,1
EndSplineSet
KernsSLIFO: 88 -205 0 0 84 -227 0 0 83 -188 0 0 82 -205 0 0 76 -113 0 0 72 -205 0 0 68 -205 0 0 36 -227 0 0 30 -188 0 0 29 -188 0 0 17 -264 0 0 16 -227 0 0 15 -264 0 0 3 -76 0 0
EndChar
StartChar: Z
Encoding: 90 90 61
Width: 1251
Flags: W
Fore
1171 0 m 1,0,-1
 57 0 l 1,1,-1
 57 37 l 1,2,-1
 874 1274 l 1,3,-1
 442 1274 l 2,4,5
 333 1274 333 1274 285 1255.5 c 128,-1,6
 237 1237 237 1237 217 1187 c 128,-1,7
 197 1137 197 1137 180 1016 c 1,8,-1
 131 1016 l 1,9,-1
 131 1356 l 1,10,-1
 1137 1356 l 1,11,-1
 1137 1329 l 1,12,-1
 317 82 l 1,13,-1
 889 82 l 2,14,15
 1016 82 1016 82 1060 138.5 c 128,-1,16
 1104 195 1104 195 1124 358 c 1,17,-1
 1171 358 l 1,18,-1
 1171 0 l 1,0,-1
EndSplineSet
EndChar
StartChar: bracketleft
Encoding: 91 91 62
Width: 682
Flags: W
Fore
608 -406 m 1,0,-1
 168 -406 l 1,1,-1
 168 1386 l 1,2,-1
 608 1386 l 1,3,-1
 608 1303 l 1,4,-1
 328 1303 l 1,5,-1
 328 -322 l 1,6,-1
 608 -322 l 1,7,-1
 608 -406 l 1,0,-1
EndSplineSet
EndChar
StartChar: backslash
Encoding: 92 92 63
Width: 569
Flags: W
Fore
569 -29 m 1,0,-1
 489 -29 l 1,1,-1
 0 1421 l 1,2,-1
 80 1421 l 1,3,-1
 569 -29 l 1,0,-1
EndSplineSet
EndChar
StartChar: bracketright
Encoding: 93 93 64
Width: 682
Flags: W
Fore
514 -406 m 1,0,-1
 74 -406 l 1,1,-1
 74 -317 l 1,2,-1
 354 -317 l 1,3,-1
 354 1298 l 1,4,-1
 74 1298 l 1,5,-1
 74 1386 l 1,6,-1
 514 1386 l 1,7,-1
 514 -406 l 1,0,-1
EndSplineSet
EndChar
StartChar: asciicircum
Encoding: 94 94 65
Width: 961
Flags: W
Fore
924 664 m 1,0,-1
 829 664 l 1,1,-1
 481 1255 l 1,2,-1
 131 664 l 1,3,-1
 37 664 l 1,4,-1
 463 1384 l 1,5,-1
 500 1384 l 1,6,-1
 924 664 l 1,0,-1
EndSplineSet
EndChar
StartChar: underscore
Encoding: 95 95 66
Width: 1024
Flags: W
Fore
1040 -442 m 1,0,-1
 -16 -442 l 1,1,-1
 -16 -358 l 1,2,-1
 1040 -358 l 1,3,-1
 1040 -442 l 1,0,-1
EndSplineSet
EndChar
StartChar: grave
Encoding: 96 96 67
Width: 682
Flags: W
Fore
446 1051 m 1,0,-1
 412 1051 l 1,1,-1
 119 1348 l 1,2,-1
 342 1348 l 1,3,-1
 446 1051 l 1,0,-1
EndSplineSet
EndChar
StartChar: a
Encoding: 97 97 68
Width: 909
Flags: W
Fore
901 92 m 1,0,1
 861 39 861 39 802 5 c 128,-1,2
 743 -29 743 -29 688 -29 c 0,3,4
 578 -29 578 -29 578 121 c 1,5,6
 458 -29 458 -29 289 -29 c 0,7,8
 192 -29 192 -29 131 37.5 c 128,-1,9
 70 104 70 104 70 211 c 0,10,11
 70 336 70 336 180.5 426 c 128,-1,12
 291 516 291 516 578 596 c 1,13,14
 578 778 578 778 536.5 835.5 c 128,-1,15
 495 893 495 893 410 893 c 0,16,17
 354 893 354 893 314.5 864 c 128,-1,18
 275 835 275 835 264 786 c 0,19,20
 252 726 252 726 230 702 c 128,-1,21
 208 678 208 678 170 678 c 0,22,23
 94 678 94 678 94 768 c 0,24,25
 94 840 94 840 181.5 902.5 c 128,-1,26
 269 965 269 965 442 965 c 0,27,28
 591 965 591 965 666 900 c 128,-1,29
 741 835 741 835 741 705 c 2,30,-1
 741 219 l 2,31,32
 741 92 741 92 801 92 c 0,33,34
 835 92 835 92 879 125 c 1,35,-1
 901 92 l 1,0,1
578 209 m 1,36,-1
 578 526 l 1,37,38
 370 465 370 465 303 401 c 128,-1,39
 236 337 236 337 236 252 c 0,40,41
 236 175 236 175 273 130.5 c 128,-1,42
 310 86 310 86 375 86 c 0,43,44
 482 86 482 86 578 209 c 1,36,-1
EndSplineSet
EndChar
StartChar: b
Encoding: 98 98 69
Width: 1024
Flags: W
Fore
315 825 m 1,0,1
 466 965 466 965 602 965 c 0,2,3
 763 965 763 965 857.5 829 c 128,-1,4
 952 693 952 693 952 504 c 0,5,6
 952 285 952 285 825.5 128 c 128,-1,7
 699 -29 699 -29 510 -29 c 0,8,9
 379 -29 379 -29 258 20 c 1,10,-1
 186 -23 l 1,11,-1
 152 -23 l 1,12,-1
 152 1180 l 2,13,14
 152 1240 152 1240 133.5 1261 c 128,-1,15
 115 1282 115 1282 63 1282 c 2,16,-1
 6 1282 l 1,17,-1
 6 1325 l 1,18,-1
 281 1421 l 1,19,-1
 315 1421 l 1,20,-1
 315 825 l 1,0,1
315 104 m 1,21,22
 406 43 406 43 512 43 c 0,23,24
 641 43 641 43 710.5 149.5 c 128,-1,25
 780 256 780 256 780 446 c 0,26,27
 780 618 780 618 709 731 c 128,-1,28
 638 844 638 844 512 844 c 0,29,30
 422 844 422 844 315 760 c 1,31,-1
 315 104 l 1,21,22
EndSplineSet
EndChar
StartChar: c
Encoding: 99 99 70
Width: 909
Flags: W
Fore
473 -31 m 0,0,1
 302 -31 302 -31 187 109.5 c 128,-1,2
 72 250 72 250 72 461 c 0,3,4
 72 684 72 684 188.5 824.5 c 128,-1,5
 305 965 305 965 500 965 c 0,6,7
 634 965 634 965 727.5 901 c 128,-1,8
 821 837 821 837 821 750 c 0,9,10
 821 710 821 710 797.5 684.5 c 128,-1,11
 774 659 774 659 737 659 c 0,12,13
 693 659 693 659 673.5 686 c 128,-1,14
 654 713 654 713 633 776 c 0,15,16
 595 893 595 893 477 893 c 0,17,18
 366 893 366 893 298.5 788 c 128,-1,19
 231 683 231 683 231 539 c 0,20,21
 231 348 231 348 311.5 228.5 c 128,-1,22
 392 109 392 109 537 109 c 0,23,24
 708 109 708 109 823 264 c 1,25,-1
 858 227 l 1,26,27
 775 84 775 84 683.5 26.5 c 128,-1,28
 592 -31 592 -31 473 -31 c 0,0,1
EndSplineSet
EndChar
StartChar: d
Encoding: 100 100 71
Width: 1024
Flags: W
Fore
1018 72 m 1,0,-1
 764 -25 l 1,1,-1
 729 -25 l 1,2,-1
 709 109 l 1,3,4
 560 -29 560 -29 422 -29 c 0,5,6
 261 -29 261 -29 166.5 107 c 128,-1,7
 72 243 72 243 72 432 c 0,8,9
 72 646 72 646 201 805.5 c 128,-1,10
 330 965 330 965 514 965 c 0,11,12
 605 965 605 965 709 936 c 1,13,-1
 709 1180 l 2,14,15
 709 1240 709 1240 690.5 1261 c 128,-1,16
 672 1282 672 1282 621 1282 c 2,17,-1
 563 1282 l 1,18,-1
 563 1325 l 1,19,-1
 838 1421 l 1,20,-1
 872 1421 l 1,21,-1
 872 217 l 2,22,23
 872 158 872 158 890.5 136.5 c 128,-1,24
 909 115 909 115 961 115 c 2,25,-1
 1018 115 l 1,26,-1
 1018 72 l 1,0,-1
709 174 m 1,27,-1
 709 831 l 1,28,29
 618 893 618 893 512 893 c 0,30,31
 385 893 385 893 314.5 784.5 c 128,-1,32
 244 676 244 676 244 489 c 0,33,34
 244 318 244 318 315 205 c 128,-1,35
 386 92 386 92 512 92 c 0,36,37
 605 92 605 92 709 174 c 1,27,-1
EndSplineSet
EndChar
StartChar: e
Encoding: 101 101 72
Width: 909
Flags: W
Fore
858 227 m 1,0,1
 712 -31 712 -31 473 -31 c 0,2,3
 302 -31 302 -31 187 109.5 c 128,-1,4
 72 250 72 250 72 461 c 0,5,6
 72 682 72 682 187 823.5 c 128,-1,7
 302 965 302 965 479 965 c 0,8,9
 641 965 641 965 745.5 843.5 c 128,-1,10
 850 722 850 722 850 530 c 1,11,-1
 231 530 l 1,12,13
 231 344 231 344 312 226.5 c 128,-1,14
 393 109 393 109 537 109 c 0,15,16
 708 109 708 109 823 264 c 1,17,-1
 858 227 l 1,0,1
651 602 m 1,18,19
 651 735 651 735 601.5 814 c 128,-1,20
 552 893 552 893 467 893 c 0,21,22
 376 893 376 893 313.5 814.5 c 128,-1,23
 251 736 251 736 236 602 c 1,24,-1
 651 602 l 1,18,19
EndSplineSet
EndChar
StartChar: f
Encoding: 102 102 73
Width: 682
Flags: W
Fore
256 936 m 1,0,-1
 256 1020 l 2,1,2
 256 1204 256 1204 358.5 1312.5 c 128,-1,3
 461 1421 461 1421 641 1421 c 0,4,5
 736 1421 736 1421 808.5 1375 c 128,-1,6
 881 1329 881 1329 881 1260 c 0,7,8
 881 1223 881 1223 857 1198.5 c 128,-1,9
 833 1174 833 1174 795 1174 c 0,10,11
 748 1174 748 1174 700 1255 c 0,12,13
 667 1312 667 1312 634 1330 c 128,-1,14
 601 1348 601 1348 559 1348 c 0,15,16
 491 1348 491 1348 455.5 1289.5 c 128,-1,17
 420 1231 420 1231 420 1081 c 2,18,-1
 420 936 l 1,19,-1
 655 936 l 1,20,-1
 655 862 l 1,21,-1
 420 862 l 1,22,-1
 420 268 l 2,23,24
 420 127 420 127 464 87 c 128,-1,25
 508 47 508 47 623 47 c 1,26,-1
 623 0 l 1,27,-1
 100 0 l 1,28,-1
 100 47 l 1,29,30
 175 47 175 47 207.5 66 c 128,-1,31
 240 85 240 85 248 127 c 128,-1,32
 256 169 256 169 256 264 c 2,33,-1
 256 862 l 1,34,-1
 78 862 l 1,35,-1
 78 936 l 1,36,-1
 256 936 l 1,0,-1
EndSplineSet
KernsSLIFO: 182 113 0 0 73 -37 0 0
EndChar
StartChar: g
Encoding: 103 103 74
Width: 1024
Flags: W
Fore
395 317 m 1,0,1
 315 245 315 245 315 203 c 0,2,3
 315 177 315 177 353 160 c 128,-1,4
 391 143 391 143 463 143 c 2,5,-1
 733 143 l 2,6,7
 853 143 853 143 917 88 c 128,-1,8
 981 33 981 33 981 -68 c 0,9,10
 981 -213 981 -213 833 -324.5 c 128,-1,11
 685 -436 685 -436 451 -436 c 0,12,13
 274 -436 274 -436 163.5 -375.5 c 128,-1,14
 53 -315 53 -315 53 -215 c 0,15,16
 53 -169 53 -169 92 -120 c 128,-1,17
 131 -71 131 -71 256 10 c 1,18,19
 162 73 162 73 162 137 c 0,20,21
 162 167 162 167 192 207.5 c 128,-1,22
 222 248 222 248 332 336 c 1,23,24
 219 370 219 370 160.5 449 c 128,-1,25
 102 528 102 528 102 631 c 0,26,27
 102 717 102 717 145 796 c 128,-1,28
 188 875 188 875 269.5 920 c 128,-1,29
 351 965 351 965 463 965 c 0,30,31
 604 965 604 965 694 899 c 1,32,-1
 954 899 l 1,33,-1
 954 811 l 1,34,-1
 774 811 l 1,35,36
 823 739 823 739 823 629 c 0,37,38
 823 496 823 496 727 405.5 c 128,-1,39
 631 315 631 315 463 315 c 0,40,41
 448 315 448 315 395 317 c 1,0,1
475 385 m 0,42,43
 649 385 649 385 649 614 c 0,44,45
 649 734 649 734 593 814.5 c 128,-1,46
 537 895 537 895 451 895 c 0,47,48
 366 895 366 895 321 827 c 128,-1,49
 276 759 276 759 276 643 c 0,50,51
 276 528 276 528 331 456.5 c 128,-1,52
 386 385 386 385 475 385 c 0,42,43
328 -16 m 1,53,54
 209 -105 209 -105 209 -197 c 0,55,56
 209 -271 209 -271 277 -320 c 128,-1,57
 345 -369 345 -369 459 -369 c 0,58,59
 614 -369 614 -369 717.5 -296.5 c 128,-1,60
 821 -224 821 -224 821 -131 c 0,61,62
 821 -73 821 -73 776.5 -48 c 128,-1,63
 732 -23 732 -23 557 -23 c 0,64,65
 356 -23 356 -23 328 -16 c 1,53,54
EndSplineSet
EndChar
StartChar: h
Encoding: 104 104 75
Width: 1024
Flags: W
Fore
1008 0 m 1,0,-1
 584 0 l 1,1,-1
 584 47 l 1,2,3
 664 47 664 47 689.5 72.5 c 128,-1,4
 715 98 715 98 715 201 c 2,5,-1
 715 606 l 2,6,7
 715 732 715 732 671 788 c 128,-1,8
 627 844 627 844 532 844 c 0,9,10
 434 844 434 844 334 762 c 1,11,-1
 334 201 l 2,12,13
 334 98 334 98 359 72.5 c 128,-1,14
 384 47 384 47 465 47 c 1,15,-1
 465 0 l 1,16,-1
 41 0 l 1,17,-1
 41 47 l 1,18,19
 129 47 129 47 149.5 75 c 128,-1,20
 170 103 170 103 170 201 c 2,21,-1
 170 1180 l 2,22,23
 170 1240 170 1240 151.5 1261 c 128,-1,24
 133 1282 133 1282 82 1282 c 2,25,-1
 25 1282 l 1,26,-1
 25 1325 l 1,27,-1
 297 1421 l 1,28,-1
 334 1421 l 1,29,-1
 334 827 l 1,30,31
 480 965 480 965 623 965 c 0,32,33
 752 965 752 965 815.5 882.5 c 128,-1,34
 879 800 879 800 879 655 c 2,35,-1
 879 201 l 2,36,37
 879 103 879 103 899.5 75 c 128,-1,38
 920 47 920 47 1008 47 c 1,39,-1
 1008 0 l 1,0,-1
EndSplineSet
EndChar
StartChar: i
Encoding: 105 105 76
Width: 674
Flags: W
Fore
528 0 m 1,0,-1
 63 0 l 1,1,-1
 63 47 l 1,2,3
 154 47 154 47 183.5 76 c 128,-1,4
 213 105 213 105 213 201 c 2,5,-1
 213 723 l 2,6,7
 213 782 213 782 195 803.5 c 128,-1,8
 177 825 177 825 125 825 c 2,9,-1
 68 825 l 1,10,-1
 68 868 l 1,11,-1
 340 965 l 1,12,-1
 377 965 l 1,13,-1
 377 201 l 2,14,15
 377 101 377 101 410 74 c 128,-1,16
 443 47 443 47 528 47 c 1,17,-1
 528 0 l 1,0,-1
291 1386 m 0,18,19
 337 1386 337 1386 369 1354 c 128,-1,20
 401 1322 401 1322 401 1276 c 0,21,22
 401 1230 401 1230 369 1197.5 c 128,-1,23
 337 1165 337 1165 291 1165 c 0,24,25
 245 1165 245 1165 212.5 1197.5 c 128,-1,26
 180 1230 180 1230 180 1276 c 0,27,28
 180 1322 180 1322 212.5 1354 c 128,-1,29
 245 1386 245 1386 291 1386 c 0,18,19
EndSplineSet
EndChar
StartChar: j
Encoding: 106 106 77
Width: 569
Flags: W
Fore
377 23 m 2,0,1
 377 -206 377 -206 297.5 -321 c 128,-1,2
 218 -436 218 -436 59 -436 c 0,3,4
 -28 -436 -28 -436 -84.5 -393.5 c 128,-1,5
 -141 -351 -141 -351 -141 -289 c 0,6,7
 -141 -253 -141 -253 -121 -229 c 128,-1,8
 -101 -205 -101 -205 -70 -205 c 0,9,10
 -40 -205 -40 -205 -22.5 -222 c 128,-1,11
 -5 -239 -5 -239 20 -285 c 0,12,13
 66 -367 66 -367 115 -367 c 0,14,15
 160 -367 160 -367 186.5 -318.5 c 128,-1,16
 213 -270 213 -270 213 -176 c 2,17,-1
 213 723 l 2,18,19
 213 782 213 782 195 803.5 c 128,-1,20
 177 825 177 825 125 825 c 2,21,-1
 68 825 l 1,22,-1
 68 868 l 1,23,-1
 340 965 l 1,24,-1
 377 965 l 1,25,-1
 377 23 l 2,0,1
291 1386 m 0,26,27
 337 1386 337 1386 369 1354 c 128,-1,28
 401 1322 401 1322 401 1276 c 0,29,30
 401 1230 401 1230 369 1197.5 c 128,-1,31
 337 1165 337 1165 291 1165 c 0,32,33
 245 1165 245 1165 212.5 1197.5 c 128,-1,34
 180 1230 180 1230 180 1276 c 0,35,36
 180 1322 180 1322 212.5 1354 c 128,-1,37
 245 1386 245 1386 291 1386 c 0,26,27
EndSplineSet
EndChar
StartChar: k
Encoding: 107 107 78
Width: 1024
Flags: W
Fore
1036 0 m 1,0,-1
 610 0 l 1,1,-1
 610 47 l 1,2,3
 654 47 654 47 670 55.5 c 128,-1,4
 686 64 686 64 686 88 c 0,5,6
 686 111 686 111 655 153 c 2,7,-1
 416 469 l 1,8,-1
 334 401 l 1,9,-1
 334 201 l 2,10,11
 334 103 334 103 354.5 75 c 128,-1,12
 375 47 375 47 463 47 c 1,13,-1
 463 0 l 1,14,-1
 41 0 l 1,15,-1
 41 47 l 1,16,17
 129 47 129 47 149.5 75 c 128,-1,18
 170 103 170 103 170 201 c 2,19,-1
 170 1180 l 2,20,21
 170 1241 170 1241 152.5 1260.5 c 128,-1,22
 135 1280 135 1280 84 1280 c 2,23,-1
 27 1280 l 1,24,-1
 27 1325 l 1,25,-1
 297 1421 l 1,26,-1
 334 1421 l 1,27,-1
 334 492 l 1,28,29
 607 734 607 734 644.5 771 c 128,-1,30
 682 808 682 808 682 838 c 0,31,32
 682 866 682 866 659 877.5 c 128,-1,33
 636 889 636 889 580 889 c 1,34,-1
 580 936 l 1,35,-1
 977 936 l 1,36,-1
 977 889 l 1,37,38
 934 889 934 889 905.5 882.5 c 128,-1,39
 877 876 877 876 854 861 c 128,-1,40
 831 846 831 846 733 757 c 2,41,-1
 541 582 l 1,42,-1
 806 232 l 2,43,44
 915 90 915 90 948 69.5 c 128,-1,45
 981 49 981 49 1036 47 c 1,46,-1
 1036 0 l 1,0,-1
EndSplineSet
EndChar
StartChar: l
Encoding: 108 108 79
Width: 569
Flags: W
Fore
508 0 m 1,0,-1
 84 0 l 1,1,-1
 84 47 l 1,2,3
 172 47 172 47 192.5 75 c 128,-1,4
 213 103 213 103 213 201 c 2,5,-1
 213 1180 l 2,6,7
 213 1240 213 1240 194.5 1261 c 128,-1,8
 176 1282 176 1282 125 1282 c 2,9,-1
 68 1282 l 1,10,-1
 68 1325 l 1,11,-1
 340 1421 l 1,12,-1
 377 1421 l 1,13,-1
 377 201 l 2,14,15
 377 98 377 98 402 72.5 c 128,-1,16
 427 47 427 47 508 47 c 1,17,-1
 508 0 l 1,0,-1
EndSplineSet
EndChar
StartChar: m
Encoding: 109 109 80
Width: 1593
Flags: W
Fore
1569 0 m 1,0,-1
 1155 0 l 1,1,-1
 1155 47 l 1,2,3
 1243 47 1243 47 1263.5 75 c 128,-1,4
 1284 103 1284 103 1284 201 c 2,5,-1
 1284 606 l 2,6,7
 1284 728 1284 728 1239 786 c 128,-1,8
 1194 844 1194 844 1096 844 c 0,9,10
 983 844 983 844 881 762 c 1,11,12
 891 708 891 708 891 655 c 2,13,-1
 891 201 l 2,14,15
 891 98 891 98 914.5 72.5 c 128,-1,16
 938 47 938 47 1012 47 c 1,17,-1
 1012 0 l 1,18,-1
 598 0 l 1,19,-1
 598 47 l 1,20,21
 686 47 686 47 706.5 75 c 128,-1,22
 727 103 727 103 727 201 c 2,23,-1
 727 606 l 2,24,25
 727 728 727 728 682 786 c 128,-1,26
 637 844 637 844 539 844 c 0,27,28
 438 844 438 844 334 760 c 1,29,-1
 334 201 l 2,30,31
 334 98 334 98 359 72.5 c 128,-1,32
 384 47 384 47 465 47 c 1,33,-1
 465 0 l 1,34,-1
 41 0 l 1,35,-1
 41 47 l 1,36,37
 129 47 129 47 149.5 75 c 128,-1,38
 170 103 170 103 170 201 c 2,39,-1
 170 723 l 2,40,41
 170 782 170 782 152 803.5 c 128,-1,42
 134 825 134 825 82 825 c 2,43,-1
 25 825 l 1,44,-1
 25 868 l 1,45,-1
 297 965 l 1,46,-1
 334 965 l 1,47,-1
 334 825 l 1,48,49
 483 965 483 965 629 965 c 0,50,51
 800 965 800 965 860 821 c 1,52,53
 933 889 933 889 1022.5 927 c 128,-1,54
 1112 965 1112 965 1186 965 c 0,55,56
 1311 965 1311 965 1379.5 884.5 c 128,-1,57
 1448 804 1448 804 1448 655 c 2,58,-1
 1448 201 l 2,59,60
 1448 99 1448 99 1472 73 c 128,-1,61
 1496 47 1496 47 1569 47 c 1,62,-1
 1569 0 l 1,0,-1
EndSplineSet
EndChar
StartChar: n
Encoding: 110 110 81
Width: 1024
Flags: W
Fore
997 0 m 1,0,-1
 586 0 l 1,1,-1
 586 47 l 1,2,3
 674 47 674 47 694.5 75 c 128,-1,4
 715 103 715 103 715 201 c 2,5,-1
 715 606 l 2,6,7
 715 732 715 732 671 788 c 128,-1,8
 627 844 627 844 532 844 c 0,9,10
 437 844 437 844 334 760 c 1,11,-1
 334 201 l 2,12,13
 334 99 334 99 357 73 c 128,-1,14
 380 47 380 47 453 47 c 1,15,-1
 453 0 l 1,16,-1
 41 0 l 1,17,-1
 41 47 l 1,18,19
 129 47 129 47 149.5 75 c 128,-1,20
 170 103 170 103 170 201 c 2,21,-1
 170 723 l 2,22,23
 170 782 170 782 152 803.5 c 128,-1,24
 134 825 134 825 82 825 c 2,25,-1
 25 825 l 1,26,-1
 25 868 l 1,27,-1
 297 965 l 1,28,-1
 334 965 l 1,29,-1
 334 825 l 1,30,31
 482 965 482 965 623 965 c 0,32,33
 752 965 752 965 815.5 882.5 c 128,-1,34
 879 800 879 800 879 655 c 2,35,-1
 879 201 l 2,36,37
 879 99 879 99 902 73 c 128,-1,38
 925 47 925 47 997 47 c 1,39,-1
 997 0 l 1,0,-1
EndSplineSet
EndChar
StartChar: o
Encoding: 111 111 82
Width: 1024
Flags: W
Fore
514 965 m 0,0,1
 711 965 711 965 832.5 823.5 c 128,-1,2
 954 682 954 682 954 477 c 0,3,4
 954 246 954 246 832.5 108.5 c 128,-1,5
 711 -29 711 -29 500 -29 c 0,6,7
 315 -29 315 -29 192.5 113 c 128,-1,8
 70 255 70 255 70 459 c 0,9,10
 70 684 70 684 188.5 824.5 c 128,-1,11
 307 965 307 965 514 965 c 0,0,1
547 41 m 0,12,13
 650 41 650 41 709 138 c 128,-1,14
 768 235 768 235 768 410 c 0,15,16
 768 608 768 608 692.5 751.5 c 128,-1,17
 617 895 617 895 479 895 c 0,18,19
 375 895 375 895 315.5 796.5 c 128,-1,20
 256 698 256 698 256 520 c 0,21,22
 256 327 256 327 332.5 184 c 128,-1,23
 409 41 409 41 547 41 c 0,12,13
EndSplineSet
EndChar
StartChar: p
Encoding: 112 112 83
Width: 1024
Flags: W
Fore
315 825 m 1,0,1
 466 965 466 965 602 965 c 0,2,3
 763 965 763 965 857.5 829 c 128,-1,4
 952 693 952 693 952 504 c 0,5,6
 952 290 952 290 823 130.5 c 128,-1,7
 694 -29 694 -29 510 -29 c 0,8,9
 419 -29 419 -29 315 0 c 1,10,-1
 315 -238 l 2,11,12
 315 -345 315 -345 339.5 -368 c 128,-1,13
 364 -391 364 -391 475 -391 c 1,14,-1
 475 -438 l 1,15,-1
 23 -438 l 1,16,-1
 23 -391 l 1,17,18
 111 -391 111 -391 131.5 -363 c 128,-1,19
 152 -335 152 -335 152 -238 c 2,20,-1
 152 723 l 2,21,22
 152 783 152 783 133.5 804 c 128,-1,23
 115 825 115 825 63 825 c 2,24,-1
 6 825 l 1,25,-1
 6 868 l 1,26,-1
 281 965 l 1,27,-1
 315 965 l 1,28,-1
 315 825 l 1,0,1
315 104 m 1,29,30
 406 43 406 43 512 43 c 0,31,32
 639 43 639 43 709.5 151.5 c 128,-1,33
 780 260 780 260 780 446 c 0,34,35
 780 618 780 618 709 731 c 128,-1,36
 638 844 638 844 512 844 c 0,37,38
 422 844 422 844 315 760 c 1,39,-1
 315 104 l 1,29,30
EndSplineSet
EndChar
StartChar: q
Encoding: 113 113 84
Width: 1024
Flags: W
Fore
1001 -438 m 1,0,-1
 549 -438 l 1,1,-1
 549 -391 l 1,2,3
 649 -391 649 -391 679 -375 c 128,-1,4
 709 -359 709 -359 709 -238 c 2,5,-1
 709 109 l 1,6,7
 560 -29 560 -29 422 -29 c 0,8,9
 261 -29 261 -29 166.5 107 c 128,-1,10
 72 243 72 243 72 432 c 0,11,12
 72 646 72 646 201 805.5 c 128,-1,13
 330 965 330 965 514 965 c 0,14,15
 612 965 612 965 735 932 c 1,16,-1
 838 965 l 1,17,-1
 872 965 l 1,18,-1
 872 -238 l 2,19,20
 872 -335 872 -335 892.5 -363 c 128,-1,21
 913 -391 913 -391 1001 -391 c 1,22,-1
 1001 -438 l 1,0,-1
709 174 m 1,23,-1
 709 831 l 1,24,25
 618 893 618 893 512 893 c 0,26,27
 385 893 385 893 314.5 784.5 c 128,-1,28
 244 676 244 676 244 489 c 0,29,30
 244 318 244 318 315 205 c 128,-1,31
 386 92 386 92 512 92 c 0,32,33
 605 92 605 92 709 174 c 1,23,-1
EndSplineSet
EndChar
StartChar: r
Encoding: 114 114 85
Width: 682
Flags: W
Fore
334 811 m 1,0,1
 444 965 444 965 561 965 c 0,2,3
 690 965 690 965 690 854 c 0,4,5
 690 815 690 815 662 788.5 c 128,-1,6
 634 762 634 762 604 762 c 0,7,8
 564 762 564 762 526 799 c 0,9,10
 494 831 494 831 465 831 c 0,11,12
 405 831 405 831 334 741 c 1,13,-1
 334 201 l 2,14,15
 334 100 334 100 368.5 73.5 c 128,-1,16
 403 47 403 47 514 47 c 1,17,-1
 514 0 l 1,18,-1
 41 0 l 1,19,-1
 41 47 l 1,20,21
 129 47 129 47 149.5 75 c 128,-1,22
 170 103 170 103 170 201 c 2,23,-1
 170 723 l 2,24,25
 170 782 170 782 152.5 803.5 c 128,-1,26
 135 825 135 825 84 825 c 2,27,-1
 27 825 l 1,28,-1
 27 868 l 1,29,-1
 297 965 l 1,30,-1
 334 965 l 1,31,-1
 334 811 l 1,0,1
EndSplineSet
KernsSLIFO: 182 76 0 0 74 -37 0 0 17 -113 0 0 16 -41 0 0 15 -82 0 0
EndChar
StartChar: s
Encoding: 115 115 86
Width: 797
Flags: W
Fore
416 -29 m 0,0,1
 321 -29 321 -29 213 2 c 0,2,3
 182 12 182 12 160 12 c 0,4,5
 136 12 136 12 125 -27 c 1,6,-1
 78 -27 l 1,7,-1
 78 279 l 1,8,-1
 125 279 l 1,9,10
 147 163 147 163 225 98 c 128,-1,11
 303 33 303 33 416 33 c 0,12,13
 492 33 492 33 540 75 c 128,-1,14
 588 117 588 117 588 186 c 0,15,16
 588 238 588 238 551 283 c 128,-1,17
 514 328 514 328 368 393 c 0,18,19
 277 434 277 434 221 467.5 c 128,-1,20
 165 501 165 501 125.5 558 c 128,-1,21
 86 615 86 615 86 698 c 0,22,23
 86 817 86 817 173.5 891 c 128,-1,24
 261 965 261 965 393 965 c 0,25,26
 456 965 456 965 549 936 c 0,27,28
 580 926 580 926 588 926 c 0,29,30
 618 926 618 926 631 965 c 1,31,-1
 678 965 l 1,32,-1
 678 686 l 1,33,-1
 631 686 l 1,34,35
 582 903 582 903 391 903 c 0,36,37
 313 903 313 903 259 862.5 c 128,-1,38
 205 822 205 822 205 758 c 0,39,40
 205 718 205 718 240.5 681 c 128,-1,41
 276 644 276 644 420 578 c 0,42,43
 622 486 622 486 678.5 414 c 128,-1,44
 735 342 735 342 735 260 c 0,45,46
 735 126 735 126 648 48.5 c 128,-1,47
 561 -29 561 -29 416 -29 c 0,0,1
EndSplineSet
EndChar
StartChar: t
Encoding: 116 116 87
Width: 569
Flags: W
Fore
571 111 m 1,0,1
 447 -29 447 -29 322 -29 c 0,2,3
 234 -29 234 -29 190.5 30.5 c 128,-1,4
 147 90 147 90 147 209 c 2,5,-1
 147 866 l 1,6,-1
 20 866 l 1,7,-1
 20 926 l 1,8,9
 102 944 102 944 168 1024 c 128,-1,10
 234 1104 234 1104 244 1194 c 1,11,-1
 313 1194 l 1,12,-1
 313 936 l 1,13,-1
 520 936 l 1,14,-1
 520 866 l 1,15,-1
 313 866 l 1,16,-1
 313 229 l 2,17,18
 313 160 313 160 334.5 126 c 128,-1,19
 356 92 356 92 399 92 c 0,20,21
 475 92 475 92 541 150 c 1,22,-1
 571 111 l 1,0,1
EndSplineSet
EndChar
StartChar: v
Encoding: 118 118 88
Width: 1024
Flags: W
Fore
1006 889 m 1,0,1
 966 889 966 889 932 861.5 c 128,-1,2
 898 834 898 834 860 745 c 2,3,-1
 526 -29 l 1,4,-1
 485 -29 l 1,5,-1
 168 733 l 2,6,7
 129 828 129 828 95 855 c 128,-1,8
 61 882 61 882 8 889 c 1,9,-1
 8 936 l 1,10,-1
 428 936 l 1,11,-1
 428 889 l 1,12,13
 319 889 319 889 319 831 c 0,14,15
 319 787 319 787 346 724 c 2,16,-1
 555 211 l 1,17,-1
 716 586 l 2,18,19
 786 748 786 748 794.5 778.5 c 128,-1,20
 803 809 803 809 803 827 c 0,21,22
 803 855 803 855 768.5 872 c 128,-1,23
 734 889 734 889 680 889 c 1,24,-1
 680 936 l 1,25,-1
 1006 936 l 1,26,-1
 1006 889 l 1,0,1
EndSplineSet
KernsSLIFO: 17 -133 0 0 15 -133 0 0
EndChar
StartChar: w
Encoding: 119 119 89
Width: 1479
Flags: W
Fore
1462 887 m 1,0,1
 1376 881 1376 881 1325 748 c 2,2,-1
 1030 -29 l 1,3,-1
 987 -29 l 1,4,-1
 760 565 l 1,5,-1
 492 -29 l 1,6,-1
 455 -29 l 1,7,-1
 170 725 l 2,8,9
 137 812 137 812 111 843.5 c 128,-1,10
 85 875 85 875 16 887 c 1,11,-1
 16 936 l 1,12,-1
 399 936 l 1,13,-1
 399 887 l 1,14,15
 313 887 313 887 313 823 c 0,16,17
 313 795 313 795 332 750 c 2,18,-1
 528 215 l 1,19,-1
 723 651 l 1,20,21
 674 784 674 784 659.5 815.5 c 128,-1,22
 645 847 645 847 615.5 867 c 128,-1,23
 586 887 586 887 526 887 c 1,24,-1
 526 936 l 1,25,-1
 963 936 l 1,26,-1
 963 887 l 1,27,28
 842 887 842 887 842 811 c 0,29,30
 842 794 842 794 863 736 c 2,31,-1
 1057 236 l 1,32,33
 1238 720 1238 720 1254 760.5 c 128,-1,34
 1270 801 1270 801 1270 831 c 0,35,36
 1270 887 1270 887 1174 887 c 1,37,-1
 1174 936 l 1,38,-1
 1462 936 l 1,39,-1
 1462 887 l 1,0,1
EndSplineSet
KernsSLIFO: 17 -133 0 0 15 -133 0 0
EndChar
StartChar: x
Encoding: 120 120 90
Width: 1024
Flags: W
Fore
1001 0 m 1,0,-1
 563 0 l 1,1,-1
 563 49 l 1,2,3
 647 49 647 49 647 102 c 0,4,5
 647 128 647 128 629.5 172.5 c 128,-1,6
 612 217 612 217 477 410 c 1,7,8
 314 208 314 208 294 168.5 c 128,-1,9
 274 129 274 129 274 102 c 0,10,11
 274 77 274 77 302 63 c 128,-1,12
 330 49 330 49 367 49 c 1,13,-1
 367 0 l 1,14,-1
 20 0 l 1,15,-1
 20 49 l 1,16,17
 99 49 99 49 183 153 c 2,18,-1
 436 469 l 1,19,20
 264 724 264 724 229 774 c 128,-1,21
 194 824 194 824 154 854.5 c 128,-1,22
 114 885 114 885 63 885 c 1,23,-1
 63 936 l 1,24,-1
 487 936 l 1,25,-1
 487 885 l 1,26,27
 408 885 408 885 408 836 c 0,28,29
 408 803 408 803 543 602 c 1,30,31
 692 780 692 780 692 836 c 0,32,33
 692 885 692 885 618 885 c 1,34,-1
 618 936 l 1,35,-1
 956 936 l 1,36,-1
 956 885 l 1,37,38
 904 885 904 885 851.5 849 c 128,-1,39
 799 813 799 813 741 740 c 2,40,-1
 584 543 l 1,41,-1
 806 211 l 2,42,43
 864 123 864 123 908.5 86 c 128,-1,44
 953 49 953 49 1001 49 c 1,45,-1
 1001 0 l 1,0,-1
EndSplineSet
EndChar
StartChar: y
Encoding: 121 121 91
Width: 1024
Flags: W
Fore
1006 889 m 1,0,1
 966 889 966 889 932 861.5 c 128,-1,2
 898 834 898 834 860 745 c 2,3,-1
 526 -29 l 2,4,5
 474 -154 474 -154 435.5 -241.5 c 128,-1,6
 397 -329 397 -329 326.5 -384.5 c 128,-1,7
 256 -440 256 -440 147 -440 c 0,8,9
 92 -440 92 -440 57.5 -413.5 c 128,-1,10
 23 -387 23 -387 23 -340 c 0,11,12
 23 -297 23 -297 51 -271.5 c 128,-1,13
 79 -246 79 -246 121 -246 c 0,14,15
 154 -246 154 -246 197 -266 c 0,16,17
 235 -285 235 -285 262 -285 c 0,18,19
 306 -285 306 -285 341 -251 c 128,-1,20
 376 -217 376 -217 469 12 c 1,21,-1
 168 733 l 2,22,23
 129 828 129 828 95 855 c 128,-1,24
 61 882 61 882 8 889 c 1,25,-1
 8 936 l 1,26,-1
 428 936 l 1,27,-1
 428 889 l 1,28,29
 319 889 319 889 319 831 c 0,30,31
 319 787 319 787 346 724 c 2,32,-1
 555 211 l 1,33,-1
 716 586 l 2,34,35
 786 748 786 748 794.5 778.5 c 128,-1,36
 803 809 803 809 803 827 c 0,37,38
 803 855 803 855 768.5 872 c 128,-1,39
 734 889 734 889 680 889 c 1,40,-1
 680 936 l 1,41,-1
 1006 936 l 1,42,-1
 1006 889 l 1,0,1
EndSplineSet
KernsSLIFO: 17 -133 0 0 15 -133 0 0
EndChar
StartChar: z
Encoding: 122 122 92
Width: 909
Flags: W
Fore
858 281 m 1,0,-1
 846 0 l 1,1,-1
 37 0 l 1,2,-1
 37 37 l 1,3,-1
 608 866 l 1,4,-1
 371 866 l 2,5,6
 274 866 274 866 235.5 857.5 c 128,-1,7
 197 849 197 849 177 811.5 c 128,-1,8
 157 774 157 774 147 682 c 1,9,-1
 102 682 l 1,10,-1
 102 936 l 1,11,-1
 829 936 l 1,12,-1
 829 899 l 1,13,-1
 260 70 l 1,14,-1
 569 70 l 2,15,16
 673 70 673 70 716.5 81 c 128,-1,17
 760 92 760 92 781.5 135 c 128,-1,18
 803 178 803 178 813 281 c 1,19,-1
 858 281 l 1,0,-1
EndSplineSet
EndChar
StartChar: braceleft
Encoding: 123 123 93
Width: 983
Flags: W
Fore
770 -442 m 1,0,1
 615 -437 615 -437 505 -318.5 c 128,-1,2
 395 -200 395 -200 395 -59 c 0,3,4
 395 -8 395 -8 420 98 c 0,5,6
 438 190 438 190 438 252 c 0,7,8
 438 338 438 338 378 394.5 c 128,-1,9
 318 451 318 451 213 465 c 1,10,-1
 213 514 l 1,11,12
 318 528 318 528 378 584.5 c 128,-1,13
 438 641 438 641 438 727 c 0,14,15
 438 801 438 801 416.5 893.5 c 128,-1,16
 395 986 395 986 395 1038 c 0,17,18
 395 1179 395 1179 505 1297.5 c 128,-1,19
 615 1416 615 1416 770 1421 c 1,20,-1
 770 1374 l 1,21,22
 671 1364 671 1364 613 1297.5 c 128,-1,23
 555 1231 555 1231 555 1135 c 0,24,25
 555 1075 555 1075 581 951 c 0,26,27
 598 868 598 868 598 829 c 0,28,29
 598 713 598 713 520 624.5 c 128,-1,30
 442 536 442 536 297 489 c 1,31,32
 440 443 440 443 519 353.5 c 128,-1,33
 598 264 598 264 598 150 c 0,34,35
 598 112 598 112 575 4 c 0,36,37
 555 -81 555 -81 555 -156 c 0,38,39
 555 -252 555 -252 613 -318.5 c 128,-1,40
 671 -385 671 -385 770 -395 c 1,41,-1
 770 -442 l 1,0,1
EndSplineSet
EndChar
StartChar: bar
Encoding: 124 124 94
Width: 410
Flags: W
Fore
246 -442 m 1,0,-1
 164 -442 l 1,1,-1
 164 1421 l 1,2,-1
 246 1421 l 1,3,-1
 246 -442 l 1,0,-1
EndSplineSet
EndChar
StartChar: braceright
Encoding: 125 125 95
Width: 983
Flags: W
Fore
770 465 m 1,0,1
 665 451 665 451 605 394.5 c 128,-1,2
 545 338 545 338 545 252 c 0,3,4
 545 190 545 190 563 98 c 0,5,6
 588 -8 588 -8 588 -59 c 0,7,8
 588 -200 588 -200 478 -318.5 c 128,-1,9
 368 -437 368 -437 213 -442 c 1,10,-1
 213 -395 l 1,11,12
 313 -385 313 -385 370.5 -318.5 c 128,-1,13
 428 -252 428 -252 428 -156 c 0,14,15
 428 -81 428 -81 408 4 c 0,16,17
 385 112 385 112 385 150 c 0,18,19
 385 264 385 264 464 353.5 c 128,-1,20
 543 443 543 443 686 489 c 1,21,22
 541 536 541 536 463 624.5 c 128,-1,23
 385 713 385 713 385 829 c 0,24,25
 385 868 385 868 402 951 c 0,26,27
 428 1075 428 1075 428 1135 c 0,28,29
 428 1231 428 1231 370.5 1297.5 c 128,-1,30
 313 1364 313 1364 213 1374 c 1,31,-1
 213 1421 l 1,32,33
 368 1416 368 1416 478 1297.5 c 128,-1,34
 588 1179 588 1179 588 1038 c 0,35,36
 588 987 588 987 563 881 c 0,37,38
 545 788 545 788 545 727 c 0,39,40
 545 641 545 641 605 584.5 c 128,-1,41
 665 528 665 528 770 514 c 1,42,-1
 770 465 l 1,0,1
EndSplineSet
EndChar
StartChar: asciitilde
Encoding: 126 126 96
Width: 1108
Flags: W
Fore
1063 842 m 1,0,1
 1059 702 1059 702 978.5 610 c 128,-1,2
 898 518 898 518 780 518 c 0,3,4
 686 518 686 518 518 612 c 0,5,6
 408 674 408 674 360.5 690.5 c 128,-1,7
 313 707 313 707 279 707 c 0,8,9
 203 707 203 707 153.5 656 c 128,-1,10
 104 605 104 605 94 518 c 1,11,-1
 47 518 l 1,12,13
 51 658 51 658 131.5 750 c 128,-1,14
 212 842 212 842 330 842 c 0,15,16
 424 842 424 842 592 748 c 0,17,18
 702 686 702 686 749.5 669.5 c 128,-1,19
 797 653 797 653 831 653 c 0,20,21
 907 653 907 653 956.5 704 c 128,-1,22
 1006 755 1006 755 1016 842 c 1,23,-1
 1063 842 l 1,0,1
EndSplineSet
EndChar
StartChar: Aring
Encoding: 197 197 98
Width: 1479
Flags: W
Fore
913 528 m 1,0,-1
 682 1075 l 1,1,-1
 446 528 l 1,2,-1
 913 528 l 1,0,-1
782 1323 m 1,3,-1
 1217 291 l 2,4,5
 1255 198 1255 198 1278.5 155 c 128,-1,6
 1302 112 1302 112 1345.5 81 c 128,-1,7
 1389 50 1389 50 1458 47 c 1,8,-1
 1458 0 l 1,9,-1
 924 0 l 1,10,-1
 924 47 l 1,11,12
 1000 50 1000 50 1031.5 71 c 128,-1,13
 1063 92 1063 92 1063 139 c 0,14,15
 1063 189 1063 189 1025 271 c 2,16,-1
 944 444 l 1,17,-1
 412 444 l 1,18,19
 316 226 316 226 302.5 185.5 c 128,-1,20
 289 145 289 145 289 127 c 0,21,22
 289 91 289 91 322 72 c 128,-1,23
 355 53 355 53 446 47 c 1,24,-1
 446 0 l 1,25,-1
 20 0 l 1,26,-1
 20 47 l 1,27,28
 98 55 98 55 140.5 98.5 c 128,-1,29
 183 142 183 142 231 254 c 2,30,-1
 692 1323 l 1,31,32
 625 1340 625 1340 585 1392 c 128,-1,33
 545 1444 545 1444 545 1509 c 0,34,35
 545 1589 545 1589 601.5 1645.5 c 128,-1,36
 658 1702 658 1702 737 1702 c 0,37,38
 817 1702 817 1702 873.5 1645.5 c 128,-1,39
 930 1589 930 1589 930 1509 c 0,40,41
 930 1445 930 1445 889.5 1392.5 c 128,-1,42
 849 1340 849 1340 782 1323 c 1,3,-1
737 1386 m 0,43,44
 788 1386 788 1386 824 1422.5 c 128,-1,45
 860 1459 860 1459 860 1509 c 0,46,47
 860 1560 860 1560 824 1596 c 128,-1,48
 788 1632 788 1632 737 1632 c 0,49,50
 687 1632 687 1632 650.5 1596 c 128,-1,51
 614 1560 614 1560 614 1509 c 0,52,53
 614 1459 614 1459 650.5 1422.5 c 128,-1,54
 687 1386 687 1386 737 1386 c 0,43,44
EndSplineSet
EndChar
StartChar: Ccedilla
Encoding: 199 199 99
Width: 1366
Flags: W
Fore
680 -29 m 1,0,1
 404 -6 404 -6 240 193 c 128,-1,2
 76 392 76 392 76 678 c 0,3,4
 76 982 76 982 272.5 1184 c 128,-1,5
 469 1386 469 1386 770 1386 c 0,6,7
 881 1386 881 1386 1065 1345 c 0,8,9
 1125 1331 1125 1331 1137 1331 c 0,10,11
 1178 1331 1178 1331 1188 1386 c 1,12,-1
 1233 1386 l 1,13,-1
 1233 975 l 1,14,-1
 1192 975 l 1,15,16
 1153 1140 1153 1140 1045.5 1226.5 c 128,-1,17
 938 1313 938 1313 778 1313 c 0,18,19
 562 1313 562 1313 430.5 1148 c 128,-1,20
 299 983 299 983 299 680 c 0,21,22
 299 494 299 494 365 361 c 128,-1,23
 431 228 431 228 550.5 158 c 128,-1,24
 670 88 670 88 811 88 c 0,25,26
 1075 88 1075 88 1264 276 c 1,27,-1
 1294 246 l 1,28,29
 1094 -31 1094 -31 733 -31 c 1,30,-1
 717 -96 l 1,31,32
 751 -86 751 -86 774 -86 c 0,33,34
 843 -86 843 -86 887.5 -120.5 c 128,-1,35
 932 -155 932 -155 932 -215 c 0,36,37
 932 -295 932 -295 861.5 -336 c 128,-1,38
 791 -377 791 -377 684 -377 c 0,39,40
 624 -377 624 -377 559 -360 c 1,41,-1
 567 -322 l 1,42,43
 606 -334 606 -334 659 -334 c 0,44,45
 710 -334 710 -334 741 -306 c 128,-1,46
 772 -278 772 -278 772 -231 c 0,47,48
 772 -193 772 -193 750 -170 c 128,-1,49
 728 -147 728 -147 696 -147 c 0,50,51
 675 -147 675 -147 649 -154 c 1,52,-1
 680 -29 l 1,0,1
EndSplineSet
EndChar
StartChar: ccedilla
Encoding: 231 231 110
Width: 909
Flags: W
Fore
432 -29 m 1,0,1
 269 -9 269 -9 170.5 130 c 128,-1,2
 72 269 72 269 72 461 c 0,3,4
 72 684 72 684 188.5 824.5 c 128,-1,5
 305 965 305 965 500 965 c 0,6,7
 634 965 634 965 727.5 901 c 128,-1,8
 821 837 821 837 821 750 c 0,9,10
 821 710 821 710 797.5 684.5 c 128,-1,11
 774 659 774 659 737 659 c 0,12,13
 693 659 693 659 673.5 686 c 128,-1,14
 654 713 654 713 633 776 c 0,15,16
 595 893 595 893 477 893 c 0,17,18
 366 893 366 893 298.5 788 c 128,-1,19
 231 683 231 683 231 539 c 0,20,21
 231 348 231 348 311.5 228.5 c 128,-1,22
 392 109 392 109 537 109 c 0,23,24
 708 109 708 109 823 264 c 1,25,-1
 858 227 l 1,26,27
 715 -27 715 -27 485 -31 c 1,28,-1
 469 -96 l 1,29,30
 503 -86 503 -86 526 -86 c 0,31,32
 595 -86 595 -86 639.5 -120.5 c 128,-1,33
 684 -155 684 -155 684 -215 c 0,34,35
 684 -295 684 -295 614 -336 c 128,-1,36
 544 -377 544 -377 436 -377 c 0,37,38
 377 -377 377 -377 311 -360 c 1,39,-1
 319 -322 l 1,40,41
 358 -334 358 -334 412 -334 c 0,42,43
 462 -334 462 -334 493 -306 c 128,-1,44
 524 -278 524 -278 524 -231 c 0,45,46
 524 -193 524 -193 502 -170 c 128,-1,47
 480 -147 480 -147 449 -147 c 0,48,49
 428 -147 428 -147 401 -154 c 1,50,-1
 432 -29 l 1,0,1
EndSplineSet
EndChar
StartChar: dagger
Encoding: 8224 8224 129
Width: 1024
Flags: W
Fore
537 915 m 1,0,1
 588 915 588 915 682 957 c 0,2,3
 770 995 770 995 815 995 c 0,4,5
 859 995 859 995 891.5 967 c 128,-1,6
 924 939 924 939 924 897 c 0,7,8
 924 855 924 855 891.5 827 c 128,-1,9
 859 799 859 799 815 799 c 0,10,11
 770 799 770 799 682 837 c 0,12,13
 588 879 588 879 537 879 c 1,14,15
 537 833 537 833 590 746 c 0,16,17
 633 676 633 676 633 643 c 0,18,19
 633 626 633 626 619 574 c 0,20,21
 537 267 537 267 537 -260 c 2,22,-1
 537 -403 l 1,23,-1
 487 -403 l 1,24,-1
 487 -260 l 2,25,26
 487 267 487 267 405 574 c 0,27,28
 391 626 391 626 391 643 c 0,29,30
 391 676 391 676 434 746 c 0,31,32
 487 833 487 833 487 879 c 1,33,34
 436 879 436 879 342 837 c 0,35,36
 254 799 254 799 209 799 c 0,37,38
 165 799 165 799 132.5 827 c 128,-1,39
 100 855 100 855 100 897 c 0,40,41
 100 939 100 939 132.5 967 c 128,-1,42
 165 995 165 995 209 995 c 0,43,44
 254 995 254 995 342 957 c 0,45,46
 436 915 436 915 487 915 c 1,47,48
 487 975 487 975 442 1084 c 0,49,50
 397 1194 397 1194 397 1253 c 0,51,52
 397 1307 397 1307 429.5 1346.5 c 128,-1,53
 462 1386 462 1386 512 1386 c 0,54,55
 562 1386 562 1386 594.5 1346.5 c 128,-1,56
 627 1307 627 1307 627 1253 c 0,57,58
 627 1194 627 1194 582 1084 c 0,59,60
 537 975 537 975 537 915 c 1,0,1
EndSplineSet
EndChar
StartChar: degree
Encoding: 176 176 130
Width: 819
Flags: W
Fore
408 1386 m 0,0,1
 533 1386 533 1386 626 1297 c 128,-1,2
 719 1208 719 1208 719 1083 c 0,3,4
 719 957 719 957 629.5 865.5 c 128,-1,5
 540 774 540 774 414 774 c 0,6,7
 282 774 282 774 190 865 c 128,-1,8
 98 956 98 956 98 1085 c 0,9,10
 98 1209 98 1209 190 1297.5 c 128,-1,11
 282 1386 282 1386 408 1386 c 0,0,1
412 856 m 0,12,13
 503 856 503 856 567 923.5 c 128,-1,14
 631 991 631 991 631 1083 c 0,15,16
 631 1175 631 1175 564.5 1240 c 128,-1,17
 498 1305 498 1305 406 1305 c 0,18,19
 316 1305 316 1305 251 1240 c 128,-1,20
 186 1175 186 1175 186 1085 c 0,21,22
 186 990 186 990 251.5 923 c 128,-1,23
 317 856 317 856 412 856 c 0,12,13
EndSplineSet
EndChar
StartChar: cent
Encoding: 162 162 131
Width: 1024
Flags: W
Fore
905 229 m 1,0,1
 771 -5 771 -5 573 -27 c 1,2,-1
 573 -379 l 1,3,-1
 500 -379 l 1,4,-1
 500 -29 l 1,5,6
 328 -16 328 -16 223.5 123 c 128,-1,7
 119 262 119 262 119 461 c 0,8,9
 119 667 119 667 220 804.5 c 128,-1,10
 321 942 321 942 500 963 c 1,11,-1
 500 1325 l 1,12,-1
 573 1325 l 1,13,-1
 573 963 l 1,14,15
 705 954 705 954 786.5 892 c 128,-1,16
 868 830 868 830 868 750 c 0,17,18
 868 710 868 710 844.5 684.5 c 128,-1,19
 821 659 821 659 784 659 c 0,20,21
 740 659 740 659 720.5 686 c 128,-1,22
 701 713 701 713 680 776 c 0,23,24
 651 869 651 869 573 887 c 1,25,-1
 573 111 l 1,26,-1
 584 111 l 2,27,28
 755 111 755 111 870 266 c 1,29,-1
 905 229 l 1,0,1
500 123 m 1,30,-1
 500 891 l 1,31,32
 396 878 396 878 337.5 774.5 c 128,-1,33
 279 671 279 671 279 539 c 0,34,35
 279 382 279 382 335.5 269 c 128,-1,36
 392 156 392 156 500 123 c 1,30,-1
EndSplineSet
EndChar
StartChar: sterling
Encoding: 163 163 132
Width: 1024
Flags: W
Fore
840 1386 m 1,0,-1
 887 1386 l 1,1,-1
 887 997 l 1,2,-1
 840 997 l 1,3,4
 823 1147 823 1147 749.5 1231 c 128,-1,5
 676 1315 676 1315 557 1315 c 0,6,7
 458 1315 458 1315 396 1241 c 128,-1,8
 334 1167 334 1167 334 1036 c 0,9,10
 334 1001 334 1001 345 948 c 128,-1,11
 356 895 356 895 414 729 c 1,12,-1
 676 729 l 1,13,-1
 676 635 l 1,14,-1
 440 635 l 1,15,16
 465 544 465 544 465 469 c 0,17,18
 465 379 465 379 421 291 c 128,-1,19
 377 203 377 203 307 145 c 1,20,21
 367 170 367 170 444 170 c 0,22,23
 491 170 491 170 618 152 c 0,24,25
 708 139 708 139 731 139 c 0,26,27
 902 139 902 139 942 279 c 1,28,-1
 981 262 l 1,29,30
 964 128 964 128 878.5 48.5 c 128,-1,31
 793 -31 793 -31 666 -31 c 0,32,33
 599 -31 599 -31 479 8 c 0,34,35
 375 41 375 41 326 41 c 0,36,37
 240 41 240 41 141 -31 c 1,38,-1
 104 14 l 1,39,40
 192 97 192 97 254.5 202.5 c 128,-1,41
 317 308 317 308 317 389 c 0,42,43
 317 473 317 473 252 635 c 1,44,-1
 61 635 l 1,45,-1
 61 729 l 1,46,-1
 217 729 l 1,47,48
 147 905 147 905 147 1018 c 0,49,50
 147 1180 147 1180 258.5 1283 c 128,-1,51
 370 1386 370 1386 545 1386 c 0,52,53
 624 1386 624 1386 725 1358 c 0,54,55
 777 1343 777 1343 799 1343 c 0,56,57
 840 1343 840 1343 840 1386 c 1,0,-1
EndSplineSet
EndChar
StartChar: section
Encoding: 167 167 133
Width: 1024
Flags: W
Fore
367 852 m 1,0,1
 277 930 277 930 245 984.5 c 128,-1,2
 213 1039 213 1039 213 1104 c 0,3,4
 213 1226 213 1226 296 1306 c 128,-1,5
 379 1386 379 1386 502 1386 c 0,6,7
 643 1386 643 1386 729 1329 c 128,-1,8
 815 1272 815 1272 815 1186 c 0,9,10
 815 1148 815 1148 792 1126 c 128,-1,11
 769 1104 769 1104 733 1104 c 0,12,13
 698 1104 698 1104 678 1124.5 c 128,-1,14
 658 1145 658 1145 641 1204 c 0,15,16
 603 1335 603 1335 502 1335 c 0,17,18
 427 1335 427 1335 376.5 1291.5 c 128,-1,19
 326 1248 326 1248 326 1180 c 0,20,21
 326 1130 326 1130 365 1074 c 128,-1,22
 404 1018 404 1018 562 903 c 0,23,24
 766 755 766 755 822.5 664.5 c 128,-1,25
 879 574 879 574 879 485 c 0,26,27
 879 381 879 381 819 291.5 c 128,-1,28
 759 202 759 202 649 147 c 1,29,30
 742 69 742 69 776.5 13.5 c 128,-1,31
 811 -42 811 -42 811 -109 c 0,32,33
 811 -230 811 -230 728 -310.5 c 128,-1,34
 645 -391 645 -391 522 -391 c 0,35,36
 381 -391 381 -391 295 -333.5 c 128,-1,37
 209 -276 209 -276 209 -190 c 0,38,39
 209 -109 209 -109 285 -109 c 0,40,41
 323 -109 323 -109 345 -131.5 c 128,-1,42
 367 -154 367 -154 383 -209 c 0,43,44
 421 -340 421 -340 522 -340 c 0,45,46
 597 -340 597 -340 647.5 -296.5 c 128,-1,47
 698 -253 698 -253 698 -184 c 0,48,49
 698 -131 698 -131 657.5 -72.5 c 128,-1,50
 617 -14 617 -14 454 106 c 0,51,52
 254 253 254 253 199.5 340 c 128,-1,53
 145 427 145 427 145 510 c 0,54,55
 145 611 145 611 203.5 701 c 128,-1,56
 262 791 262 791 367 852 c 1,0,1
602 184 m 1,57,58
 772 261 772 261 772 408 c 0,59,60
 772 469 772 469 721 541 c 128,-1,61
 670 613 670 613 498 746 c 0,62,63
 431 797 431 797 408 817 c 1,64,65
 252 726 252 726 252 588 c 0,66,67
 252 526 252 526 295.5 458.5 c 128,-1,68
 339 391 339 391 501 265 c 0,69,70
 573 210 573 210 602 184 c 1,57,58
EndSplineSet
EndChar
StartChar: bullet
Encoding: 8226 8226 134
Width: 717
Flags: W
Fore
358 905 m 0,0,1
 452 905 452 905 519 838 c 128,-1,2
 586 771 586 771 586 678 c 0,3,4
 586 585 586 585 519 518 c 128,-1,5
 452 451 452 451 358 451 c 0,6,7
 265 451 265 451 198 518 c 128,-1,8
 131 585 131 585 131 678 c 0,9,10
 131 772 131 772 198 838.5 c 128,-1,11
 265 905 265 905 358 905 c 0,0,1
EndSplineSet
EndChar
StartChar: paragraph
Encoding: 182 182 135
Width: 928
Flags: W
Fore
905 1300 m 1,0,-1
 774 1300 l 1,1,-1
 774 -360 l 1,2,-1
 700 -360 l 1,3,-1
 700 1300 l 1,4,-1
 535 1300 l 1,5,-1
 535 -360 l 1,6,-1
 461 -360 l 1,7,-1
 461 600 l 1,8,9
 257 600 257 600 134.5 704.5 c 128,-1,10
 12 809 12 809 12 985 c 0,11,12
 12 1165 12 1165 121.5 1260.5 c 128,-1,13
 231 1356 231 1356 436 1356 c 2,14,-1
 905 1356 l 1,15,-1
 905 1300 l 1,0,-1
EndSplineSet
EndChar
StartChar: germandbls
Encoding: 223 223 136
Width: 1024
Flags: W
Fore
655 813 m 1,0,1
 789 785 789 785 871.5 670.5 c 128,-1,2
 954 556 954 556 954 410 c 0,3,4
 954 201 954 201 868 93.5 c 128,-1,5
 782 -14 782 -14 637 -14 c 0,6,7
 553 -14 553 -14 496.5 26.5 c 128,-1,8
 440 67 440 67 440 111 c 0,9,10
 440 145 440 145 457 163.5 c 128,-1,11
 474 182 474 182 500 182 c 0,12,13
 550 182 550 182 592 117 c 0,14,15
 631 55 631 55 686 55 c 0,16,17
 734 55 734 55 758 137.5 c 128,-1,18
 782 220 782 220 782 385 c 0,19,20
 782 565 782 565 706 669.5 c 128,-1,21
 630 774 630 774 492 774 c 1,22,-1
 492 831 l 1,23,24
 605 831 605 831 665 901 c 128,-1,25
 725 971 725 971 725 1098 c 0,26,27
 725 1209 725 1209 674.5 1280.5 c 128,-1,28
 624 1352 624 1352 535 1352 c 0,29,30
 434 1352 434 1352 384 1268 c 128,-1,31
 334 1184 334 1184 334 1016 c 2,32,-1
 334 0 l 1,33,-1
 41 0 l 1,34,-1
 41 47 l 1,35,36
 129 47 129 47 149.5 75 c 128,-1,37
 170 103 170 103 170 201 c 2,38,-1
 170 973 l 2,39,40
 170 1191 170 1191 266 1306 c 128,-1,41
 362 1421 362 1421 539 1421 c 0,42,43
 696 1421 696 1421 793.5 1334.5 c 128,-1,44
 891 1248 891 1248 891 1108 c 0,45,46
 891 1000 891 1000 830 920 c 128,-1,47
 769 840 769 840 655 813 c 1,0,1
EndSplineSet
EndChar
StartChar: registered
Encoding: 174 174 137
Width: 1556
Flags: W
Fore
778 1386 m 0,0,1
 1070 1386 1070 1386 1278.5 1178 c 128,-1,2
 1487 970 1487 970 1487 678 c 0,3,4
 1487 488 1487 488 1392 323.5 c 128,-1,5
 1297 159 1297 159 1132.5 64 c 128,-1,6
 968 -31 968 -31 778 -31 c 0,7,8
 486 -31 486 -31 278 177.5 c 128,-1,9
 70 386 70 386 70 678 c 0,10,11
 70 970 70 970 278 1178 c 128,-1,12
 486 1386 486 1386 778 1386 c 0,0,1
778 29 m 0,13,14
 1046 29 1046 29 1236.5 219.5 c 128,-1,15
 1427 410 1427 410 1427 678 c 0,16,17
 1427 945 1427 945 1236.5 1136 c 128,-1,18
 1046 1327 1046 1327 778 1327 c 0,19,20
 511 1327 511 1327 320 1136 c 128,-1,21
 129 945 129 945 129 678 c 0,22,23
 129 409 129 409 319 219 c 128,-1,24
 509 29 509 29 778 29 c 0,13,14
1237 279 m 1,25,26
 1170 266 1170 266 1096 266 c 0,27,28
 1031 266 1031 266 969.5 320.5 c 128,-1,29
 908 375 908 375 754 627 c 1,30,-1
 662 627 l 1,31,-1
 662 434 l 2,32,33
 662 353 662 353 684.5 336 c 128,-1,34
 707 319 707 319 791 319 c 1,35,-1
 791 279 l 1,36,-1
 403 279 l 1,37,-1
 403 319 l 1,38,39
 482 319 482 319 500 337.5 c 128,-1,40
 518 356 518 356 518 434 c 2,41,-1
 518 936 l 2,42,43
 518 1014 518 1014 500.5 1032.5 c 128,-1,44
 483 1051 483 1051 403 1051 c 1,45,-1
 403 1092 l 1,46,-1
 760 1092 l 2,47,48
 913 1092 913 1092 998 1032 c 128,-1,49
 1083 972 1083 972 1083 866 c 0,50,51
 1083 786 1083 786 1033.5 730.5 c 128,-1,52
 984 675 984 675 897 655 c 1,53,54
 1056 430 1056 430 1104 373.5 c 128,-1,55
 1152 317 1152 317 1196 317 c 0,56,57
 1211 317 1211 317 1237 319 c 1,58,-1
 1237 279 l 1,25,26
662 686 m 1,59,-1
 698 686 l 2,60,61
 810 686 810 686 866 731 c 128,-1,62
 922 776 922 776 922 866 c 0,63,64
 922 944 922 944 868 990 c 128,-1,65
 814 1036 814 1036 729 1036 c 0,66,67
 685 1036 685 1036 662 1026 c 1,68,-1
 662 686 l 1,59,-1
EndSplineSet
EndChar
StartChar: copyright
Encoding: 169 169 138
Width: 1556
Flags: W
Fore
778 1386 m 0,0,1
 1070 1386 1070 1386 1278.5 1178 c 128,-1,2
 1487 970 1487 970 1487 678 c 0,3,4
 1487 488 1487 488 1392 323.5 c 128,-1,5
 1297 159 1297 159 1132.5 64 c 128,-1,6
 968 -31 968 -31 778 -31 c 0,7,8
 486 -31 486 -31 278 177.5 c 128,-1,9
 70 386 70 386 70 678 c 0,10,11
 70 970 70 970 278 1178 c 128,-1,12
 486 1386 486 1386 778 1386 c 0,0,1
778 29 m 0,13,14
 1046 29 1046 29 1236.5 219.5 c 128,-1,15
 1427 410 1427 410 1427 678 c 0,16,17
 1427 945 1427 945 1236.5 1136 c 128,-1,18
 1046 1327 1046 1327 778 1327 c 0,19,20
 511 1327 511 1327 320 1136 c 128,-1,21
 129 945 129 945 129 678 c 0,22,23
 129 409 129 409 319 219 c 128,-1,24
 509 29 509 29 778 29 c 0,13,14
1124 432 m 1,25,26
 979 266 979 266 786 266 c 0,27,28
 606 266 606 266 489.5 387 c 128,-1,29
 373 508 373 508 373 692 c 0,30,31
 373 877 373 877 495 997.5 c 128,-1,32
 617 1118 617 1118 809 1118 c 0,33,34
 876 1118 876 1118 978 1092 c 0,35,36
 1009 1083 1009 1083 1016 1083 c 0,37,38
 1043 1083 1043 1083 1047 1118 c 1,39,-1
 1087 1118 l 1,40,-1
 1087 870 l 1,41,-1
 1051 870 l 1,42,43
 1029 965 1029 965 969.5 1013 c 128,-1,44
 910 1061 910 1061 813 1061 c 0,45,46
 684 1061 684 1061 609.5 966.5 c 128,-1,47
 535 872 535 872 535 694 c 0,48,49
 535 526 535 526 620.5 432 c 128,-1,50
 706 338 706 338 834 338 c 0,51,52
 973 338 973 338 1106 463 c 1,53,-1
 1124 432 l 1,25,26
EndSplineSet
EndChar
StartChar: trademark
Encoding: 8482 8482 139
Width: 2007
Flags: W
Fore
1939 543 m 1,0,-1
 1563 543 l 1,1,-1
 1563 584 l 1,2,3
 1647 584 1647 584 1663 601 c 128,-1,4
 1679 618 1679 618 1679 698 c 2,5,-1
 1679 1223 l 1,6,-1
 1366 543 l 1,7,-1
 1337 543 l 1,8,-1
 1047 1225 l 1,9,-1
 1047 698 l 2,10,11
 1047 618 1047 618 1063 601 c 128,-1,12
 1079 584 1079 584 1163 584 c 1,13,-1
 1163 543 l 1,14,-1
 866 543 l 1,15,-1
 866 584 l 1,16,17
 951 584 951 584 967 601 c 128,-1,18
 983 618 983 618 983 698 c 2,19,-1
 983 1202 l 2,20,21
 983 1277 983 1277 963.5 1297 c 128,-1,22
 944 1317 944 1317 866 1317 c 1,23,-1
 866 1356 l 1,24,-1
 1145 1356 l 1,25,-1
 1399 752 l 1,26,-1
 1675 1356 l 1,27,-1
 1939 1356 l 1,28,-1
 1939 1317 l 1,29,30
 1855 1317 1855 1317 1839 1299.5 c 128,-1,31
 1823 1282 1823 1282 1823 1200 c 2,32,-1
 1823 698 l 2,33,34
 1823 618 1823 618 1839 601 c 128,-1,35
 1855 584 1855 584 1939 584 c 1,36,-1
 1939 543 l 1,0,-1
799 1141 m 1,37,-1
 756 1141 l 1,38,39
 756 1292 756 1292 635 1292 c 2,40,-1
 506 1292 l 1,41,-1
 506 698 l 2,42,43
 506 620 506 620 523.5 602 c 128,-1,44
 541 584 541 584 623 584 c 1,45,-1
 623 543 l 1,46,-1
 246 543 l 1,47,-1
 246 584 l 1,48,49
 327 584 327 584 344.5 602 c 128,-1,50
 362 620 362 620 362 698 c 2,51,-1
 362 1292 l 1,52,-1
 233 1292 l 2,53,54
 113 1292 113 1292 113 1141 c 1,55,-1
 70 1141 l 1,56,-1
 70 1356 l 1,57,-1
 799 1356 l 1,58,-1
 799 1141 l 1,37,-1
EndSplineSet
Ligature: 0 3 'liga' T M
EndChar
StartChar: acute
Encoding: 180 180 140
Width: 682
Flags: W
Fore
563 1348 m 1,0,-1
 270 1051 l 1,1,-1
 236 1051 l 1,2,-1
 340 1348 l 1,3,-1
 563 1348 l 1,0,-1
EndSplineSet
EndChar
StartChar: dieresis
Encoding: 168 168 141
Width: 682
Flags: W
Fore
516 1319 m 0,0,1
 562 1319 562 1319 594.5 1286.5 c 128,-1,2
 627 1254 627 1254 627 1208 c 0,3,4
 627 1162 627 1162 594.5 1130 c 128,-1,5
 562 1098 562 1098 516 1098 c 0,6,7
 470 1098 470 1098 438 1130 c 128,-1,8
 406 1162 406 1162 406 1208 c 0,9,10
 406 1254 406 1254 438 1286.5 c 128,-1,11
 470 1319 470 1319 516 1319 c 0,0,1
166 1319 m 0,12,13
 212 1319 212 1319 244 1286.5 c 128,-1,14
 276 1254 276 1254 276 1208 c 0,15,16
 276 1162 276 1162 244 1130 c 128,-1,17
 212 1098 212 1098 166 1098 c 0,18,19
 120 1098 120 1098 87.5 1130 c 128,-1,20
 55 1162 55 1162 55 1208 c 0,21,22
 55 1254 55 1254 87.5 1286.5 c 128,-1,23
 120 1319 120 1319 166 1319 c 0,12,13
EndSplineSet
EndChar
StartChar: notequal
Encoding: 8800 8800 142
Width: 1124
Flags: W
Fore
714 883 m 1,0,-1
 1101 883 l 1,1,-1
 1101 801 l 1,2,-1
 671 801 l 1,3,-1
 544 559 l 1,4,-1
 1101 559 l 1,5,-1
 1101 477 l 1,6,-1
 501 477 l 1,7,-1
 325 141 l 1,8,-1
 235 141 l 1,9,-1
 411 477 l 1,10,-1
 26 477 l 1,11,-1
 26 559 l 1,12,-1
 454 559 l 1,13,-1
 581 801 l 1,14,-1
 26 801 l 1,15,-1
 26 883 l 1,16,-1
 624 883 l 1,17,-1
 800 1219 l 1,18,-1
 890 1219 l 1,19,-1
 714 883 l 1,0,-1
EndSplineSet
EndChar
StartChar: AE
Encoding: 198 198 143
Width: 1821
Flags: W
Fore
1733 0 m 1,0,-1
 641 0 l 1,1,-1
 641 47 l 1,2,3
 738 47 738 47 777 64 c 128,-1,4
 816 81 816 81 825 120.5 c 128,-1,5
 834 160 834 160 834 260 c 2,6,-1
 834 444 l 1,7,-1
 406 444 l 1,8,9
 294 226 294 226 278 185.5 c 128,-1,10
 262 145 262 145 262 127 c 0,11,12
 262 90 262 90 292 71.5 c 128,-1,13
 322 53 322 53 408 47 c 1,14,-1
 408 0 l 1,15,-1
 -20 0 l 1,16,-1
 -20 47 l 1,17,18
 48 53 48 53 98.5 93 c 128,-1,19
 149 133 149 133 211 254 c 2,20,-1
 649 1106 l 2,21,22
 694 1192 694 1192 694 1249 c 0,23,24
 694 1284 694 1284 654 1296.5 c 128,-1,25
 614 1309 614 1309 526 1309 c 1,26,-1
 526 1356 l 1,27,-1
 1679 1356 l 1,28,-1
 1679 1038 l 1,29,-1
 1628 1038 l 1,30,31
 1628 1183 1628 1183 1568.5 1232.5 c 128,-1,32
 1509 1282 1509 1282 1352 1282 c 2,33,-1
 1026 1282 l 1,34,-1
 1026 745 l 1,35,-1
 1276 745 l 2,36,37
 1364 745 1364 745 1406.5 758 c 128,-1,38
 1449 771 1449 771 1468 813 c 128,-1,39
 1487 855 1487 855 1487 946 c 1,40,-1
 1536 946 l 1,41,-1
 1536 471 l 1,42,-1
 1487 471 l 1,43,44
 1487 602 1487 602 1446.5 637 c 128,-1,45
 1406 672 1406 672 1276 672 c 2,46,-1
 1026 672 l 1,47,-1
 1026 176 l 2,48,49
 1026 116 1026 116 1047 95 c 128,-1,50
 1068 74 1068 74 1137 74 c 2,51,-1
 1395 74 l 2,52,53
 1532 74 1532 74 1607.5 152.5 c 128,-1,54
 1683 231 1683 231 1683 373 c 1,55,-1
 1733 373 l 1,56,-1
 1733 0 l 1,0,-1
834 528 m 1,57,-1
 834 1282 l 1,58,-1
 449 528 l 1,59,-1
 834 528 l 1,57,-1
EndSplineSet
EndChar
StartChar: Oslash
Encoding: 216 216 144
Width: 1479
Flags: W
Fore
1217 1192 m 1,0,1
 1403 993 1403 993 1403 678 c 0,2,3
 1403 367 1403 367 1220.5 168 c 128,-1,4
 1038 -31 1038 -31 739 -31 c 0,5,6
 498 -31 498 -31 324 106 c 1,7,-1
 197 -47 l 1,8,-1
 135 0 l 1,9,-1
 266 160 l 1,10,11
 76 359 76 359 76 678 c 0,12,13
 76 990 76 990 260 1188 c 128,-1,14
 444 1386 444 1386 739 1386 c 0,15,16
 985 1386 985 1386 1159 1245 c 1,17,-1
 1286 1399 l 1,18,-1
 1348 1352 l 1,19,-1
 1217 1192 l 1,0,1
1069 1137 m 1,20,21
 957 1313 957 1313 739 1313 c 0,22,23
 526 1313 526 1313 412.5 1140.5 c 128,-1,24
 299 968 299 968 299 678 c 0,25,26
 299 446 299 446 373 289 c 1,27,-1
 1069 1137 l 1,20,21
414 215 m 1,28,29
 526 45 526 45 739 45 c 0,30,31
 953 45 953 45 1066.5 216.5 c 128,-1,32
 1180 388 1180 388 1180 678 c 0,33,34
 1180 899 1180 899 1110 1063 c 1,35,-1
 414 215 l 1,28,29
EndSplineSet
EndChar
StartChar: infinity
Encoding: 8734 8734 145
Width: 1460
Flags: W
Fore
1407 526 m 0,0,1
 1407 340 1407 340 1292 219 c 0,2,3
 1242 166 1242 166 1180.5 136 c 128,-1,4
 1119 106 1119 106 1057 106 c 0,5,6
 997 106 997 106 945 131 c 128,-1,7
 893 156 893 156 843.5 211 c 128,-1,8
 794 266 794 266 745 350 c 2,9,-1
 721 393 l 1,10,11
 677 310 677 310 630.5 258.5 c 128,-1,12
 584 207 584 207 527.5 183.5 c 128,-1,13
 471 160 471 160 397 160 c 0,14,15
 297 160 297 160 219.5 207 c 128,-1,16
 142 254 142 254 97.5 339 c 128,-1,17
 53 424 53 424 53 528 c 0,18,19
 53 630 53 630 93.5 714.5 c 128,-1,20
 134 799 134 799 204 847 c 128,-1,21
 274 895 274 895 360 895 c 0,22,23
 472 895 472 895 543 827 c 0,24,25
 597 773 597 773 653 668 c 1,26,27
 701 776 701 776 748 834 c 0,28,29
 843 944 843 944 1024 944 c 0,30,31
 1096 944 1096 944 1152 924.5 c 128,-1,32
 1208 905 1208 905 1262 860 c 0,33,34
 1407 736 1407 736 1407 526 c 0,0,1
1350 526 m 0,35,36
 1350 616 1350 616 1312 695.5 c 128,-1,37
 1274 775 1274 775 1208 820.5 c 128,-1,38
 1142 866 1142 866 1067 866 c 0,39,40
 963 866 963 866 895 782 c 0,41,42
 866 746 866 746 840.5 690 c 128,-1,43
 815 634 815 634 762 494 c 2,44,-1
 750 465 l 1,45,46
 799 364 799 364 843 308.5 c 128,-1,47
 887 253 887 253 940.5 227 c 128,-1,48
 994 201 994 201 1061 201 c 0,49,50
 1144 201 1144 201 1210 242.5 c 128,-1,51
 1276 284 1276 284 1313 358 c 128,-1,52
 1350 432 1350 432 1350 526 c 0,35,36
625 590 m 1,53,54
 587 670 587 670 550 715 c 128,-1,55
 513 760 513 760 465.5 782.5 c 128,-1,56
 418 805 418 805 358 805 c 0,57,58
 284 805 284 805 228 770 c 128,-1,59
 172 735 172 735 140.5 673 c 128,-1,60
 109 611 109 611 109 530 c 0,61,62
 109 451 109 451 139.5 383 c 128,-1,63
 170 315 170 315 222.5 276.5 c 128,-1,64
 275 238 275 238 338 238 c 0,65,66
 398 238 398 238 453 274.5 c 128,-1,67
 508 311 508 311 537 367 c 0,68,69
 576 444 576 444 614 557 c 2,70,-1
 625 590 l 1,53,54
EndSplineSet
EndChar
StartChar: plusminus
Encoding: 177 177 146
Width: 1124
Flags: W
Fore
1101 141 m 1,0,-1
 24 141 l 1,1,-1
 24 223 l 1,2,-1
 522 223 l 1,3,-1
 522 639 l 1,4,-1
 24 639 l 1,5,-1
 24 721 l 1,6,-1
 522 721 l 1,7,-1
 522 1219 l 1,8,-1
 603 1219 l 1,9,-1
 603 721 l 1,10,-1
 1101 721 l 1,11,-1
 1101 639 l 1,12,-1
 603 639 l 1,13,-1
 603 223 l 1,14,-1
 1101 223 l 1,15,-1
 1101 141 l 1,0,-1
EndSplineSet
EndChar
StartChar: lessequal
Encoding: 8804 8804 147
Width: 1124
Flags: W
Fore
1101 186 m 1,0,-1
 26 655 l 1,1,-1
 26 705 l 1,2,-1
 1101 1174 l 1,3,-1
 1101 1085 l 1,4,-1
 175 680 l 1,5,-1
 1101 274 l 1,6,-1
 1101 186 l 1,0,-1
1101 0 m 1,7,-1
 26 0 l 1,8,-1
 26 82 l 1,9,-1
 1101 82 l 1,10,-1
 1101 0 l 1,7,-1
EndSplineSet
EndChar
StartChar: greaterequal
Encoding: 8805 8805 148
Width: 1124
Flags: W
Fore
1101 655 m 1,0,-1
 26 186 l 1,1,-1
 26 274 l 1,2,-1
 952 680 l 1,3,-1
 26 1085 l 1,4,-1
 26 1174 l 1,5,-1
 1101 705 l 1,6,-1
 1101 655 l 1,0,-1
1101 0 m 1,7,-1
 26 0 l 1,8,-1
 26 82 l 1,9,-1
 1101 82 l 1,10,-1
 1101 0 l 1,7,-1
EndSplineSet
EndChar
StartChar: yen
Encoding: 165 165 149
Width: 1024
Flags: W
Fore
1022 1309 m 1,0,1
 925 1309 925 1309 879 1217 c 2,2,-1
 608 653 l 1,3,-1
 979 653 l 1,4,-1
 979 580 l 1,5,-1
 594 580 l 1,6,-1
 594 397 l 1,7,-1
 979 397 l 1,8,-1
 979 324 l 1,9,-1
 594 324 l 1,10,-1
 594 260 l 2,11,12
 594 160 594 160 603 120.5 c 128,-1,13
 612 81 612 81 651 64 c 128,-1,14
 690 47 690 47 786 47 c 1,15,-1
 786 0 l 1,16,-1
 236 0 l 1,17,-1
 236 47 l 1,18,19
 332 47 332 47 371 64 c 128,-1,20
 410 81 410 81 419 120.5 c 128,-1,21
 428 160 428 160 428 260 c 2,22,-1
 428 324 l 1,23,-1
 43 324 l 1,24,-1
 43 397 l 1,25,-1
 428 397 l 1,26,-1
 428 580 l 1,27,-1
 43 580 l 1,28,-1
 43 653 l 1,29,-1
 406 653 l 1,30,-1
 227 1042 l 2,31,32
 148 1212 148 1212 130.5 1242 c 128,-1,33
 113 1272 113 1272 83 1290.5 c 128,-1,34
 53 1309 53 1309 2 1309 c 1,35,-1
 2 1356 l 1,36,-1
 444 1356 l 1,37,-1
 444 1309 l 1,38,39
 324 1309 324 1309 324 1253 c 0,40,41
 324 1232 324 1232 344 1188 c 2,42,-1
 555 719 l 1,43,-1
 700 1035 l 2,44,45
 764 1173 764 1173 776 1206.5 c 128,-1,46
 788 1240 788 1240 788 1257 c 0,47,48
 788 1309 788 1309 676 1309 c 1,49,-1
 676 1356 l 1,50,-1
 1022 1356 l 1,51,-1
 1022 1309 l 1,0,1
EndSplineSet
EndChar
StartChar: uni00B5
Encoding: 181 181 150
Width: 1180
Flags: W
Fore
1042 68 m 1,0,-1
 792 -29 l 1,1,-1
 755 -29 l 1,2,-1
 733 111 l 1,3,4
 584 -29 584 -29 444 -29 c 0,5,6
 326 -29 326 -29 261 41 c 1,7,8
 262 -51 262 -51 290 -198 c 0,9,10
 309 -292 309 -292 309 -332 c 0,11,12
 309 -376 309 -376 282 -409 c 128,-1,13
 255 -442 255 -442 214 -442 c 0,14,15
 174 -442 174 -442 150 -410.5 c 128,-1,16
 126 -379 126 -379 126 -332 c 0,17,18
 126 -288 126 -288 148 -190 c 0,19,20
 188 -11 188 -11 188 139 c 2,21,-1
 188 743 l 2,22,23
 188 811 188 811 177 841 c 128,-1,24
 166 871 166 871 140.5 879 c 128,-1,25
 115 887 115 887 48 887 c 1,26,-1
 48 936 l 1,27,-1
 352 936 l 1,28,-1
 352 330 l 2,29,30
 352 204 352 204 395.5 148 c 128,-1,31
 439 92 439 92 534 92 c 0,32,33
 630 92 630 92 733 176 c 1,34,-1
 733 743 l 2,35,36
 733 811 733 811 722 841 c 128,-1,37
 711 871 711 871 685.5 879 c 128,-1,38
 660 887 660 887 593 887 c 1,39,-1
 593 936 l 1,40,-1
 896 936 l 1,41,-1
 896 213 l 2,42,43
 896 153 896 153 914.5 132 c 128,-1,44
 933 111 933 111 984 111 c 2,45,-1
 1042 111 l 1,46,-1
 1042 68 l 1,0,-1
EndSplineSet
EndChar
StartChar: partialdiff
Encoding: 8706 8706 151
Width: 1012
Flags: W
Fore
995 920 m 0,0,1
 995 780 995 780 967 639 c 128,-1,2
 939 498 939 498 885.5 375.5 c 128,-1,3
 832 253 832 253 758 156 c 0,4,5
 615 -31 615 -31 403 -31 c 0,6,7
 249 -31 249 -31 157.5 60.5 c 128,-1,8
 66 152 66 152 66 305 c 0,9,10
 66 462 66 462 142.5 601.5 c 128,-1,11
 219 741 219 741 346 824 c 128,-1,12
 473 907 473 907 616 907 c 0,13,14
 722 907 722 907 805 856 c 0,15,16
 849 829 849 829 877 798 c 128,-1,17
 905 767 905 767 928 717 c 1,18,-1
 932 717 l 1,19,20
 942 864 942 864 942 903 c 0,21,22
 942 1020 942 1020 900.5 1105 c 128,-1,23
 859 1190 859 1190 780.5 1235 c 128,-1,24
 702 1280 702 1280 596 1280 c 0,25,26
 496 1280 496 1280 424.5 1242.5 c 128,-1,27
 353 1205 353 1205 295 1120 c 1,28,-1
 250 1120 l 1,29,30
 285 1194 285 1194 311.5 1236 c 128,-1,31
 338 1278 338 1278 375 1315 c 0,32,33
 424 1366 424 1366 492 1394.5 c 128,-1,34
 560 1423 560 1423 629 1423 c 0,35,36
 676 1423 676 1423 723 1409.5 c 128,-1,37
 770 1396 770 1396 811 1370 c 128,-1,38
 852 1344 852 1344 881 1311 c 0,39,40
 995 1181 995 1181 995 920 c 0,0,1
911 629 m 1,41,42
 875 734 875 734 800 794 c 128,-1,43
 725 854 725 854 627 854 c 0,44,45
 546 854 546 854 469.5 805 c 128,-1,46
 393 756 393 756 348 678 c 0,47,48
 315 621 315 621 288 546 c 128,-1,49
 261 471 261 471 247 399.5 c 128,-1,50
 233 328 233 328 233 264 c 0,51,52
 233 156 233 156 286.5 91.5 c 128,-1,53
 340 27 340 27 430 27 c 0,54,55
 502 27 502 27 582 76.5 c 128,-1,56
 662 126 662 126 729 213 c 0,57,58
 799 306 799 306 841 401.5 c 128,-1,59
 883 497 883 497 911 629 c 1,41,42
EndSplineSet
EndChar
StartChar: summation
Encoding: 8721 8721 152
Width: 1460
Flags: W
Fore
1419 212 m 1,0,-1
 1356 -204 l 1,1,-1
 43 -204 l 1,2,-1
 43 -167 l 1,3,-1
 713 664 l 1,4,-1
 43 1478 l 1,5,-1
 43 1517 l 1,6,-1
 1321 1517 l 1,7,-1
 1348 1179 l 1,8,-1
 1309 1179 l 1,9,10
 1293 1312 1293 1312 1233 1373.5 c 128,-1,11
 1173 1435 1173 1435 1059 1435 c 2,12,-1
 319 1435 l 1,13,-1
 881 750 l 1,14,-1
 252 -28 l 1,15,-1
 1071 -28 l 2,16,17
 1125 -28 1125 -28 1185.5 -11 c 128,-1,18
 1246 6 1246 6 1276 28 c 0,19,20
 1312 53 1312 53 1336.5 99 c 128,-1,21
 1361 145 1361 145 1380 220 c 1,22,-1
 1419 212 l 1,0,-1
EndSplineSet
EndChar
StartChar: product
Encoding: 8719 8719 153
Width: 1686
Flags: W
Fore
1640 -204 m 1,0,-1
 1042 -204 l 1,1,-1
 1042 -167 l 1,2,-1
 1077 -167 l 2,3,4
 1164 -167 1164 -167 1202.5 -129.5 c 128,-1,5
 1241 -92 1241 -92 1241 -11 c 2,6,-1
 1241 1439 l 1,7,-1
 444 1439 l 1,8,-1
 444 -11 l 2,9,10
 444 -90 444 -90 483.5 -128.5 c 128,-1,11
 523 -167 523 -167 606 -167 c 2,12,-1
 643 -167 l 1,13,-1
 643 -204 l 1,14,-1
 45 -204 l 1,15,-1
 45 -167 l 1,16,-1
 80 -167 l 2,17,18
 167 -167 167 -167 205.5 -129.5 c 128,-1,19
 244 -92 244 -92 244 -11 c 2,20,-1
 244 1324 l 2,21,22
 244 1407 244 1407 205.5 1443.5 c 128,-1,23
 167 1480 167 1480 80 1480 c 2,24,-1
 45 1480 l 1,25,-1
 45 1517 l 1,26,-1
 1640 1517 l 1,27,-1
 1640 1480 l 1,28,-1
 1606 1480 l 2,29,30
 1521 1480 1521 1480 1481.5 1443.5 c 128,-1,31
 1442 1407 1442 1407 1442 1324 c 2,32,-1
 1442 -11 l 2,33,34
 1442 -92 1442 -92 1481.5 -129.5 c 128,-1,35
 1521 -167 1521 -167 1606 -167 c 2,36,-1
 1640 -167 l 1,37,-1
 1640 -204 l 1,0,-1
EndSplineSet
EndChar
StartChar: glyph155
Encoding: 65539 -1 154
Width: 1124
Flags: W
Fore
1049 258 m 1,0,1
 1042 197 1042 197 1030.5 153.5 c 128,-1,2
 1019 110 1019 110 999 74 c 0,3,4
 975 26 975 26 932.5 -2.5 c 128,-1,5
 890 -31 890 -31 842 -31 c 0,6,7
 807 -31 807 -31 772.5 -14.5 c 128,-1,8
 738 2 738 2 719 29 c 0,9,10
 687 73 687 73 673 136.5 c 128,-1,11
 659 200 659 200 659 305 c 0,12,13
 659 367 659 367 666 463 c 0,14,15
 669 490 669 490 671 515.5 c 128,-1,16
 673 541 673 541 680 614 c 0,17,18
 682 632 682 632 685.5 662 c 128,-1,19
 689 692 689 692 692 717 c 2,20,-1
 698 770 l 1,21,-1
 438 770 l 1,22,-1
 434 709 l 2,23,24
 417 415 417 415 394.5 259 c 128,-1,25
 372 103 372 103 336 36 c 128,-1,26
 300 -31 300 -31 242 -31 c 0,27,28
 208 -31 208 -31 183 -6 c 128,-1,29
 158 19 158 19 158 53 c 0,30,31
 158 80 158 80 170 105 c 128,-1,32
 182 130 182 130 213 172 c 0,33,34
 259 231 259 231 281.5 285 c 128,-1,35
 304 339 304 339 319 428 c 0,36,37
 334 513 334 513 341.5 588.5 c 128,-1,38
 349 664 349 664 354 770 c 1,39,-1
 309 770 l 2,40,41
 259 770 259 770 235 763.5 c 128,-1,42
 211 757 211 757 184 737 c 0,43,44
 138 701 138 701 94 627 c 1,45,-1
 55 627 l 1,46,47
 107 787 107 787 171.5 851 c 128,-1,48
 236 915 236 915 346 915 c 2,49,-1
 1049 915 l 1,50,-1
 1049 770 l 1,51,-1
 807 770 l 1,52,53
 790 661 790 661 781 547.5 c 128,-1,54
 772 434 772 434 772 332 c 0,55,56
 772 239 772 239 805 190 c 128,-1,57
 838 141 838 141 897 141 c 0,58,59
 994 141 994 141 1014 258 c 1,60,-1
 1049 258 l 1,0,1
EndSplineSet
EndChar
StartChar: integral
Encoding: 8747 8747 155
Width: 561
Flags: W
Fore
561 1755 m 0,0,1
 561 1726 561 1726 548.5 1702 c 128,-1,2
 536 1678 536 1678 514.5 1665.5 c 128,-1,3
 493 1653 493 1653 467 1653 c 0,4,5
 431 1653 431 1653 391 1688 c 0,6,7
 371 1708 371 1708 352 1708 c 0,8,9
 311 1708 311 1708 311 1645 c 0,10,11
 311 1599 311 1599 322 1499 c 0,12,13
 340 1295 340 1295 349 1128 c 128,-1,14
 358 961 358 961 358 834 c 2,15,-1
 356 713 l 1,16,-1
 342 242 l 2,17,18
 336 52 336 52 293 -78 c 0,19,20
 271 -145 271 -145 225 -182 c 128,-1,21
 179 -219 179 -219 119 -219 c 0,22,23
 65 -219 65 -219 32.5 -185.5 c 128,-1,24
 0 -152 0 -152 0 -98 c 0,25,26
 0 -54 0 -54 25 -27 c 128,-1,27
 50 0 50 0 90 0 c 0,28,29
 132 0 132 0 160 -33 c 0,30,31
 173 -47 173 -47 184 -55 c 128,-1,32
 195 -63 195 -63 209 -63 c 0,33,34
 248 -63 248 -63 248 -2 c 0,35,36
 248 35 248 35 238 117 c 0,37,38
 218 287 218 287 209 512 c 0,39,40
 206 616 206 616 203 741 c 0,41,42
 201 811 201 811 201 895 c 2,43,-1
 217 1448 l 2,44,45
 223 1639 223 1639 283 1765 c 0,46,47
 302 1805 302 1805 346.5 1834.5 c 128,-1,48
 391 1864 391 1864 434 1864 c 0,49,50
 465 1864 465 1864 495.5 1849 c 128,-1,51
 526 1834 526 1834 543.5 1808 c 128,-1,52
 561 1782 561 1782 561 1755 c 0,0,1
EndSplineSet
EndChar
StartChar: ordfeminine
Encoding: 170 170 156
Width: 565
Flags: W
Fore
604 860 m 1,0,1
 539 786 539 786 451 786 c 0,2,3
 406 786 406 786 378 813 c 128,-1,4
 350 840 350 840 350 877 c 1,5,6
 270 786 270 786 162 786 c 0,7,8
 91 786 91 786 47.5 826 c 128,-1,9
 4 866 4 866 4 930 c 0,10,11
 4 1008 4 1008 80 1062.5 c 128,-1,12
 156 1117 156 1117 350 1163 c 1,13,14
 350 1242 350 1242 346 1270.5 c 128,-1,15
 342 1299 342 1299 320.5 1317 c 128,-1,16
 299 1335 299 1335 250 1335 c 0,17,18
 179 1335 179 1335 164 1278 c 0,19,20
 148 1212 148 1212 86 1212 c 0,21,22
 20 1212 20 1212 20 1266 c 0,23,24
 20 1309 20 1309 83.5 1346.5 c 128,-1,25
 147 1384 147 1384 272 1384 c 0,26,27
 489 1384 489 1384 489 1229 c 2,28,-1
 489 936 l 2,29,30
 489 860 489 860 532 860 c 0,31,32
 554 860 554 860 590 879 c 1,33,-1
 604 860 l 1,0,1
350 938 m 1,34,-1
 350 1114 l 1,35,36
 143 1059 143 1059 143 948 c 0,37,38
 143 864 143 864 223 864 c 0,39,40
 285 864 285 864 350 938 c 1,34,-1
EndSplineSet
EndChar
StartChar: ordmasculine
Encoding: 186 186 157
Width: 635
Flags: W
Fore
317 1384 m 0,0,1
 447 1384 447 1384 527.5 1299 c 128,-1,2
 608 1214 608 1214 608 1092 c 0,3,4
 608 955 608 955 528.5 870.5 c 128,-1,5
 449 786 449 786 307 786 c 0,6,7
 187 786 187 786 107 872 c 128,-1,8
 27 958 27 958 27 1079 c 0,9,10
 27 1215 27 1215 104.5 1299.5 c 128,-1,11
 182 1384 182 1384 317 1384 c 0,0,1
344 836 m 0,12,13
 398 836 398 836 429.5 892.5 c 128,-1,14
 461 949 461 949 461 1051 c 0,15,16
 461 1166 461 1166 416 1250.5 c 128,-1,17
 371 1335 371 1335 291 1335 c 0,18,19
 238 1335 238 1335 206 1277 c 128,-1,20
 174 1219 174 1219 174 1116 c 0,21,22
 174 1003 174 1003 219 919.5 c 128,-1,23
 264 836 264 836 344 836 c 0,12,13
EndSplineSet
EndChar
StartChar: uni2126
Encoding: 8486 8486 158
Width: 1573
Flags: W
Fore
1518 0 m 1,0,-1
 950 0 l 1,1,-1
 973 279 l 1,2,3
 1070 318 1070 318 1131 381 c 128,-1,4
 1192 444 1192 444 1220.5 535.5 c 128,-1,5
 1249 627 1249 627 1249 754 c 0,6,7
 1249 1013 1249 1013 1126 1159 c 0,8,9
 1062 1235 1062 1235 974 1276 c 128,-1,10
 886 1317 886 1317 782 1317 c 0,11,12
 680 1317 680 1317 595 1277.5 c 128,-1,13
 510 1238 510 1238 448 1165 c 128,-1,14
 386 1092 386 1092 352.5 990 c 128,-1,15
 319 888 319 888 319 768 c 0,16,17
 319 635 319 635 357 525.5 c 128,-1,18
 395 416 395 416 463 354 c 0,19,20
 494 326 494 326 520 311.5 c 128,-1,21
 546 297 546 297 596 279 c 1,22,-1
 618 0 l 1,23,-1
 55 0 l 1,24,-1
 55 279 l 1,25,-1
 90 279 l 1,26,27
 93 218 93 218 121 197 c 0,28,29
 147 177 147 177 176.5 169.5 c 128,-1,30
 206 162 206 162 260 162 c 2,31,-1
 530 162 l 1,32,-1
 530 231 l 1,33,34
 393 271 393 271 293.5 349.5 c 128,-1,35
 194 428 194 428 143 539.5 c 128,-1,36
 92 651 92 651 92 788 c 0,37,38
 92 918 92 918 142.5 1029 c 128,-1,39
 193 1140 193 1140 285 1220 c 128,-1,40
 377 1300 377 1300 503.5 1343 c 128,-1,41
 630 1386 630 1386 782 1386 c 0,42,43
 936 1386 936 1386 1065.5 1342.5 c 128,-1,44
 1195 1299 1195 1299 1286.5 1221 c 128,-1,45
 1378 1143 1378 1143 1429.5 1031.5 c 128,-1,46
 1481 920 1481 920 1481 788 c 0,47,48
 1481 651 1481 651 1426.5 535 c 128,-1,49
 1372 419 1372 419 1272 339.5 c 128,-1,50
 1172 260 1172 260 1042 231 c 1,51,-1
 1034 162 l 1,52,-1
 1309 162 l 2,53,54
 1397 162 1397 162 1434 186.5 c 128,-1,55
 1471 211 1471 211 1479 279 c 1,56,-1
 1518 279 l 1,57,-1
 1518 0 l 1,0,-1
EndSplineSet
EndChar
StartChar: ae
Encoding: 230 230 159
Width: 1366
Flags: W
Fore
1317 229 m 1,0,1
 1171 -29 1171 -29 932 -29 c 0,2,3
 829 -29 829 -29 740 21 c 128,-1,4
 651 71 651 71 600 162 c 1,5,6
 515 55 515 55 444 13 c 128,-1,7
 373 -29 373 -29 289 -29 c 0,8,9
 192 -29 192 -29 131 37.5 c 128,-1,10
 70 104 70 104 70 211 c 0,11,12
 70 341 70 341 175.5 431 c 128,-1,13
 281 521 281 521 547 596 c 1,14,15
 547 711 547 711 540 767 c 128,-1,16
 533 823 533 823 501.5 858 c 128,-1,17
 470 893 470 893 399 893 c 0,18,19
 287 893 287 893 264 786 c 0,20,21
 252 726 252 726 230 702 c 128,-1,22
 208 678 208 678 170 678 c 0,23,24
 94 678 94 678 94 768 c 0,25,26
 94 842 94 842 184 903.5 c 128,-1,27
 274 965 274 965 432 965 c 0,28,29
 612 965 612 965 684 852 c 1,30,31
 795 965 795 965 938 965 c 0,32,33
 1100 965 1100 965 1204.5 843.5 c 128,-1,34
 1309 722 1309 722 1309 530 c 1,35,-1
 711 530 l 1,36,37
 711 333 711 333 784 222 c 128,-1,38
 857 111 857 111 995 111 c 0,39,40
 1166 111 1166 111 1282 266 c 1,41,-1
 1317 229 l 1,0,1
1110 602 m 1,42,43
 1110 735 1110 735 1060.5 814 c 128,-1,44
 1011 893 1011 893 926 893 c 0,45,46
 747 893 747 893 715 602 c 1,47,-1
 1110 602 l 1,42,43
573 225 m 1,48,49
 547 347 547 347 547 502 c 2,50,-1
 547 526 l 1,51,52
 370 474 370 474 303 409.5 c 128,-1,53
 236 345 236 345 236 252 c 0,54,55
 236 175 236 175 273 130.5 c 128,-1,56
 310 86 310 86 375 86 c 0,57,58
 466 86 466 86 573 225 c 1,48,49
EndSplineSet
EndChar
StartChar: oslash
Encoding: 248 248 160
Width: 1024
Flags: W
Fore
985 963 m 1,0,-1
 850 805 l 1,1,2
 954 664 954 664 954 477 c 0,3,4
 954 246 954 246 832.5 108.5 c 128,-1,5
 711 -29 711 -29 500 -29 c 0,6,7
 343 -29 343 -29 225 78 c 1,8,-1
 94 -76 l 1,9,-1
 39 -27 l 1,10,-1
 176 133 l 1,11,12
 70 271 70 271 70 459 c 0,13,14
 70 684 70 684 188.5 824.5 c 128,-1,15
 307 965 307 965 514 965 c 0,16,17
 681 965 681 965 799 858 c 1,18,-1
 930 1012 l 1,19,-1
 985 963 l 1,0,-1
698 741 m 1,20,21
 619 895 619 895 479 895 c 0,22,23
 375 895 375 895 315.5 796.5 c 128,-1,24
 256 698 256 698 256 520 c 0,25,26
 256 388 256 388 295 270 c 1,27,-1
 698 741 l 1,20,21
326 195 m 1,28,29
 404 41 404 41 547 41 c 0,30,31
 650 41 650 41 709 138 c 128,-1,32
 768 235 768 235 768 410 c 0,33,34
 768 546 768 546 729 664 c 1,35,-1
 326 195 l 1,28,29
EndSplineSet
EndChar
StartChar: questiondown
Encoding: 191 191 161
Width: 909
Flags: W
Fore
586 973 m 0,0,1
 632 973 632 973 664 940.5 c 128,-1,2
 696 908 696 908 696 862 c 0,3,4
 696 816 696 816 664 784 c 128,-1,5
 632 752 632 752 586 752 c 0,6,7
 540 752 540 752 507.5 784 c 128,-1,8
 475 816 475 816 475 862 c 0,9,10
 475 908 475 908 507.5 940.5 c 128,-1,11
 540 973 540 973 586 973 c 0,0,1
610 319 m 1,12,13
 418 261 418 261 338 191.5 c 128,-1,14
 258 122 258 122 258 29 c 0,15,16
 258 -94 258 -94 337.5 -189.5 c 128,-1,17
 417 -285 417 -285 528 -285 c 0,18,19
 567 -285 567 -285 624 -257 c 0,20,21
 673 -233 673 -233 702 -233 c 0,22,23
 741 -233 741 -233 767 -260.5 c 128,-1,24
 793 -288 793 -288 793 -328 c 0,25,26
 793 -442 793 -442 621 -442 c 0,27,28
 514 -442 514 -442 400.5 -354 c 128,-1,29
 287 -266 287 -266 211 -133.5 c 128,-1,30
 135 -1 135 -1 135 92 c 0,31,32
 135 225 135 225 231 314.5 c 128,-1,33
 327 404 327 404 561 475 c 1,34,-1
 561 631 l 1,35,-1
 610 631 l 1,36,-1
 610 319 l 1,12,13
EndSplineSet
EndChar
StartChar: exclamdown
Encoding: 161 161 162
Width: 682
Flags: W
Fore
340 973 m 0,0,1
 386 973 386 973 418.5 940.5 c 128,-1,2
 451 908 451 908 451 862 c 0,3,4
 451 816 451 816 418.5 784 c 128,-1,5
 386 752 386 752 340 752 c 0,6,7
 294 752 294 752 261.5 784 c 128,-1,8
 229 816 229 816 229 862 c 0,9,10
 229 908 229 908 261.5 940.5 c 128,-1,11
 294 973 294 973 340 973 c 0,0,1
365 586 m 1,12,13
 365 378 365 378 436 -146 c 0,14,15
 455 -284 455 -284 455 -299 c 0,16,17
 455 -360 455 -360 424 -401 c 128,-1,18
 393 -442 393 -442 340 -442 c 0,19,20
 287 -442 287 -442 256 -401 c 128,-1,21
 225 -360 225 -360 225 -299 c 0,22,23
 225 -284 225 -284 244 -146 c 0,24,25
 315 378 315 378 315 586 c 1,26,-1
 365 586 l 1,12,13
EndSplineSet
EndChar
StartChar: logicalnot
Encoding: 172 172 163
Width: 1155
Flags: W
Fore
1116 477 m 1,0,-1
 1034 477 l 1,1,-1
 1034 801 l 1,2,-1
 41 801 l 1,3,-1
 41 883 l 1,4,-1
 1116 883 l 1,5,-1
 1116 477 l 1,0,-1
EndSplineSet
EndChar
StartChar: radical
Encoding: 8730 8730 164
Width: 1124
Flags: W
Fore
1124 1870 m 1,0,-1
 813 -78 l 1,1,-1
 317 944 l 1,2,-1
 119 852 l 1,3,-1
 84 915 l 1,4,-1
 385 1067 l 1,5,-1
 788 244 l 1,6,-1
 793 244 l 1,7,-1
 1051 1870 l 1,8,-1
 1124 1870 l 1,0,-1
EndSplineSet
EndChar
StartChar: florin
Encoding: 402 402 165
Width: 1024
Flags: W
Fore
451 932 m 1,0,1
 492 1105 492 1105 517.5 1164.5 c 128,-1,2
 543 1224 543 1224 595 1286.5 c 128,-1,3
 647 1349 647 1349 710.5 1385 c 128,-1,4
 774 1421 774 1421 838 1421 c 0,5,6
 925 1421 925 1421 974.5 1376.5 c 128,-1,7
 1024 1332 1024 1332 1024 1262 c 0,8,9
 1024 1225 1024 1225 1005 1203.5 c 128,-1,10
 986 1182 986 1182 956 1182 c 0,11,12
 886 1182 886 1182 872 1290 c 0,13,14
 862 1362 862 1362 811 1362 c 0,15,16
 764 1362 764 1362 724.5 1302 c 128,-1,17
 685 1242 685 1242 616 932 c 1,18,-1
 791 932 l 1,19,-1
 774 866 l 1,20,-1
 600 866 l 1,21,-1
 440 195 l 2,22,23
 393 -3 393 -3 324.5 -141.5 c 128,-1,24
 256 -280 256 -280 175.5 -351 c 128,-1,25
 95 -422 95 -422 10 -422 c 0,26,27
 -71 -422 -71 -422 -123.5 -384.5 c 128,-1,28
 -176 -347 -176 -347 -176 -295 c 0,29,30
 -176 -265 -176 -265 -157.5 -244 c 128,-1,31
 -139 -223 -139 -223 -111 -223 c 0,32,33
 -86 -223 -86 -223 -64.5 -239 c 128,-1,34
 -43 -255 -43 -255 -14 -307 c 0,35,36
 13 -362 13 -362 49 -362 c 0,37,38
 98 -362 98 -362 136.5 -290 c 128,-1,39
 175 -218 175 -218 219 -33 c 2,40,-1
 434 866 l 1,41,-1
 276 866 l 1,42,-1
 293 932 l 1,43,-1
 451 932 l 1,0,1
EndSplineSet
EndChar
StartChar: approxequal
Encoding: 8776 8776 166
Width: 1124
Flags: W
Fore
1073 874 m 1,0,1
 1053 722 1053 722 979.5 637.5 c 128,-1,2
 906 553 906 553 791 553 c 0,3,4
 735 553 735 553 667.5 579.5 c 128,-1,5
 600 606 600 606 487 670 c 0,6,7
 347 748 347 748 276 748 c 0,8,9
 204 748 204 748 157.5 698.5 c 128,-1,10
 111 649 111 649 98 561 c 1,11,-1
 51 561 l 1,12,13
 71 712 71 712 144 797.5 c 128,-1,14
 217 883 217 883 326 883 c 0,15,16
 374 883 374 883 449 858 c 0,17,18
 505 837 505 837 657 756 c 0,19,20
 775 694 775 694 850 694 c 0,21,22
 891 694 891 694 918.5 707.5 c 128,-1,23
 946 721 946 721 973 754 c 0,24,25
 1012 801 1012 801 1022 874 c 1,26,-1
 1073 874 l 1,0,1
1073 487 m 1,27,28
 1053 335 1053 335 979.5 250.5 c 128,-1,29
 906 166 906 166 791 166 c 0,30,31
 735 166 735 166 670 191 c 128,-1,32
 605 216 605 216 487 281 c 0,33,34
 416 323 416 323 366 341.5 c 128,-1,35
 316 360 316 360 276 360 c 0,36,37
 204 360 204 360 157.5 311 c 128,-1,38
 111 262 111 262 98 174 c 1,39,-1
 51 174 l 1,40,41
 63 272 63 272 100 344.5 c 128,-1,42
 137 417 137 417 195 455.5 c 128,-1,43
 253 494 253 494 326 494 c 0,44,45
 374 494 374 494 449 469 c 0,46,47
 501 453 501 453 657 369 c 0,48,49
 775 307 775 307 850 307 c 0,50,51
 891 307 891 307 918.5 320.5 c 128,-1,52
 946 334 946 334 973 367 c 0,53,54
 1012 414 1012 414 1022 487 c 1,55,-1
 1073 487 l 1,27,28
EndSplineSet
EndChar
StartChar: uni2206
Encoding: 8710 8710 167
Width: 1253
Flags: W
Fore
1227 0 m 1,0,-1
 27 0 l 1,1,-1
 655 1386 l 1,2,-1
 1227 0 l 1,0,-1
991 82 m 1,3,-1
 592 1049 l 1,4,-1
 152 82 l 1,5,-1
 991 82 l 1,3,-1
EndSplineSet
EndChar
StartChar: guillemotleft
Encoding: 171 171 168
Width: 1024
Flags: W
Fore
948 0 m 1,0,-1
 887 0 l 1,1,-1
 500 469 l 1,2,-1
 887 938 l 1,3,-1
 948 938 l 1,4,-1
 700 469 l 1,5,-1
 948 0 l 1,0,-1
524 0 m 1,6,-1
 463 0 l 1,7,-1
 76 469 l 1,8,-1
 463 938 l 1,9,-1
 524 938 l 1,10,-1
 276 469 l 1,11,-1
 524 0 l 1,6,-1
EndSplineSet
EndChar
StartChar: guillemotright
Encoding: 187 187 169
Width: 1024
Flags: W
Fore
948 469 m 1,0,-1
 561 0 l 1,1,-1
 500 0 l 1,2,-1
 748 469 l 1,3,-1
 500 938 l 1,4,-1
 561 938 l 1,5,-1
 948 469 l 1,0,-1
524 469 m 1,6,-1
 137 0 l 1,7,-1
 76 0 l 1,8,-1
 324 469 l 1,9,-1
 76 938 l 1,10,-1
 137 938 l 1,11,-1
 524 469 l 1,6,-1
EndSplineSet
EndChar
StartChar: ellipsis
Encoding: 8230 8230 170
Width: 2048
Flags: W
Fore
1708 190 m 0,0,1
 1754 190 1754 190 1786.5 158 c 128,-1,2
 1819 126 1819 126 1819 80 c 0,3,4
 1819 34 1819 34 1786.5 1.5 c 128,-1,5
 1754 -31 1754 -31 1708 -31 c 0,6,7
 1662 -31 1662 -31 1629.5 1.5 c 128,-1,8
 1597 34 1597 34 1597 80 c 0,9,10
 1597 126 1597 126 1629.5 158 c 128,-1,11
 1662 190 1662 190 1708 190 c 0,0,1
1024 190 m 0,12,13
 1070 190 1070 190 1102.5 158 c 128,-1,14
 1135 126 1135 126 1135 80 c 0,15,16
 1135 34 1135 34 1102.5 1.5 c 128,-1,17
 1070 -31 1070 -31 1024 -31 c 0,18,19
 978 -31 978 -31 945.5 1.5 c 128,-1,20
 913 34 913 34 913 80 c 0,21,22
 913 126 913 126 945.5 158 c 128,-1,23
 978 190 978 190 1024 190 c 0,12,13
340 190 m 0,24,25
 386 190 386 190 418.5 158 c 128,-1,26
 451 126 451 126 451 80 c 0,27,28
 451 34 451 34 418.5 1.5 c 128,-1,29
 386 -31 386 -31 340 -31 c 0,30,31
 294 -31 294 -31 261.5 1.5 c 128,-1,32
 229 34 229 34 229 80 c 0,33,34
 229 126 229 126 261.5 158 c 128,-1,35
 294 190 294 190 340 190 c 0,24,25
EndSplineSet
Ligature: 0 3 'liga' period period period
EndChar
StartChar: OE
Encoding: 338 338 175
Width: 1821
Flags: W
Fore
1733 0 m 1,0,-1
 1020 0 l 2,1,2
 986 0 986 0 916 -12 c 0,3,4
 813 -31 813 -31 739 -31 c 0,5,6
 444 -31 444 -31 260 167 c 128,-1,7
 76 365 76 365 76 678 c 0,8,9
 76 989 76 989 258 1187.5 c 128,-1,10
 440 1386 440 1386 739 1386 c 0,11,12
 813 1386 813 1386 916 1368 c 0,13,14
 986 1356 986 1356 1020 1356 c 2,15,-1
 1679 1356 l 1,16,-1
 1679 1038 l 1,17,-1
 1628 1038 l 1,18,19
 1628 1183 1628 1183 1568.5 1232.5 c 128,-1,20
 1509 1282 1509 1282 1352 1282 c 2,21,-1
 1108 1282 l 1,22,-1
 1108 745 l 1,23,-1
 1276 745 l 2,24,25
 1364 745 1364 745 1406.5 758 c 128,-1,26
 1449 771 1449 771 1468 813 c 128,-1,27
 1487 855 1487 855 1487 946 c 1,28,-1
 1536 946 l 1,29,-1
 1536 471 l 1,30,-1
 1487 471 l 1,31,32
 1487 602 1487 602 1446.5 637 c 128,-1,33
 1406 672 1406 672 1276 672 c 2,34,-1
 1108 672 l 1,35,-1
 1108 176 l 2,36,37
 1108 116 1108 116 1129 95 c 128,-1,38
 1150 74 1150 74 1219 74 c 2,39,-1
 1395 74 l 2,40,41
 1532 74 1532 74 1607.5 152.5 c 128,-1,42
 1683 231 1683 231 1683 373 c 1,43,-1
 1733 373 l 1,44,-1
 1733 0 l 1,0,-1
915 238 m 2,45,-1
 915 1120 l 2,46,47
 915 1222 915 1222 877.5 1267.5 c 128,-1,48
 840 1313 840 1313 739 1313 c 0,49,50
 526 1313 526 1313 412.5 1140.5 c 128,-1,51
 299 968 299 968 299 678 c 0,52,53
 299 388 299 388 412.5 216.5 c 128,-1,54
 526 45 526 45 739 45 c 0,55,56
 840 45 840 45 877.5 90.5 c 128,-1,57
 915 136 915 136 915 238 c 2,45,-1
EndSplineSet
EndChar
StartChar: oe
Encoding: 339 339 176
Width: 1479
Flags: W
Fore
1427 229 m 1,0,1
 1366 109 1366 109 1273.5 40 c 128,-1,2
 1181 -29 1181 -29 1075 -29 c 0,3,4
 894 -29 894 -29 801 119 c 1,5,6
 692 -29 692 -29 479 -29 c 0,7,8
 298 -29 298 -29 184 111 c 128,-1,9
 70 251 70 251 70 459 c 0,10,11
 70 692 70 692 182 828.5 c 128,-1,12
 294 965 294 965 494 965 c 0,13,14
 690 965 690 965 799 815 c 1,15,16
 900 965 900 965 1075 965 c 0,17,18
 1233 965 1233 965 1326 846.5 c 128,-1,19
 1419 728 1419 728 1419 530 c 1,20,-1
 885 530 l 1,21,22
 885 309 885 309 949 210 c 128,-1,23
 1013 111 1013 111 1145 111 c 0,24,25
 1278 111 1278 111 1393 266 c 1,26,-1
 1427 229 l 1,0,1
512 41 m 0,27,28
 609 41 609 41 658 133 c 128,-1,29
 707 225 707 225 707 410 c 0,30,31
 707 637 707 637 647.5 766 c 128,-1,32
 588 895 588 895 473 895 c 0,33,34
 367 895 367 895 311.5 799 c 128,-1,35
 256 703 256 703 256 520 c 0,36,37
 256 381 256 381 285.5 269.5 c 128,-1,38
 315 158 315 158 372 99.5 c 128,-1,39
 429 41 429 41 512 41 c 0,27,28
1221 602 m 1,40,41
 1221 733 1221 733 1182.5 813 c 128,-1,42
 1144 893 1144 893 1067 893 c 0,43,44
 991 893 991 893 945 817.5 c 128,-1,45
 899 742 899 742 889 602 c 1,46,-1
 1221 602 l 1,40,41
EndSplineSet
EndChar
StartChar: endash
Encoding: 8211 8211 177
Width: 1024
Flags: W
Fore
1042 453 m 1,0,-1
 -18 453 l 1,1,-1
 -18 526 l 1,2,-1
 1042 526 l 1,3,-1
 1042 453 l 1,0,-1
EndSplineSet
EndChar
StartChar: emdash
Encoding: 8212 8212 178
Width: 2048
Flags: W
Fore
2066 453 m 1,0,-1
 -18 453 l 1,1,-1
 -18 526 l 1,2,-1
 2066 526 l 1,3,-1
 2066 453 l 1,0,-1
EndSplineSet
EndChar
StartChar: quotedblleft
Encoding: 8220 8220 179
Width: 909
Flags: W
Fore
809 1333 m 1,0,1
 725 1308 725 1308 675 1256 c 128,-1,2
 625 1204 625 1204 625 1149 c 0,3,4
 625 1075 625 1075 707 1061 c 0,5,6
 809 1042 809 1042 809 956 c 0,7,8
 809 909 809 909 776 881.5 c 128,-1,9
 743 854 743 854 688 854 c 0,10,11
 622 854 622 854 576 920 c 128,-1,12
 530 986 530 986 530 1067 c 0,13,14
 530 1180 530 1180 603.5 1264 c 128,-1,15
 677 1348 677 1348 809 1386 c 1,16,-1
 809 1333 l 1,0,1
377 1333 m 1,17,18
 293 1308 293 1308 243 1256 c 128,-1,19
 193 1204 193 1204 193 1149 c 0,20,21
 193 1075 193 1075 274 1061 c 0,22,23
 377 1042 377 1042 377 956 c 0,24,25
 377 908 377 908 343.5 881 c 128,-1,26
 310 854 310 854 256 854 c 0,27,28
 190 854 190 854 144 920 c 128,-1,29
 98 986 98 986 98 1067 c 0,30,31
 98 1180 98 1180 171.5 1264 c 128,-1,32
 245 1348 245 1348 377 1386 c 1,33,-1
 377 1333 l 1,17,18
EndSplineSet
EndChar
StartChar: quotedblright
Encoding: 8221 8221 180
Width: 909
Flags: W
Fore
530 907 m 1,0,1
 614 933 614 933 664.5 984.5 c 128,-1,2
 715 1036 715 1036 715 1092 c 0,3,4
 715 1165 715 1165 633 1180 c 0,5,6
 530 1198 530 1198 530 1284 c 0,7,8
 530 1331 530 1331 563.5 1358.5 c 128,-1,9
 597 1386 597 1386 651 1386 c 0,10,11
 717 1386 717 1386 763 1320.5 c 128,-1,12
 809 1255 809 1255 809 1174 c 0,13,14
 809 1060 809 1060 735.5 976 c 128,-1,15
 662 892 662 892 530 854 c 1,16,-1
 530 907 l 1,0,1
98 907 m 1,17,18
 182 933 182 933 232.5 984.5 c 128,-1,19
 283 1036 283 1036 283 1092 c 0,20,21
 283 1165 283 1165 201 1180 c 0,22,23
 98 1198 98 1198 98 1284 c 0,24,25
 98 1331 98 1331 131.5 1358.5 c 128,-1,26
 165 1386 165 1386 219 1386 c 0,27,28
 285 1386 285 1386 331 1320.5 c 128,-1,29
 377 1255 377 1255 377 1174 c 0,30,31
 377 1060 377 1060 303.5 976 c 128,-1,32
 230 892 230 892 98 854 c 1,33,-1
 98 907 l 1,17,18
EndSplineSet
EndChar
StartChar: quoteleft
Encoding: 8216 8216 181
Width: 682
Flags: W
Fore
479 1333 m 1,0,1
 396 1308 396 1308 345.5 1256 c 128,-1,2
 295 1204 295 1204 295 1149 c 0,3,4
 295 1075 295 1075 377 1061 c 0,5,6
 479 1042 479 1042 479 956 c 0,7,8
 479 909 479 909 446 881.5 c 128,-1,9
 413 854 413 854 358 854 c 0,10,11
 292 854 292 854 246.5 920 c 128,-1,12
 201 986 201 986 201 1067 c 0,13,14
 201 1180 201 1180 274 1264 c 128,-1,15
 347 1348 347 1348 479 1386 c 1,16,-1
 479 1333 l 1,0,1
EndSplineSet
KernsSLIFO: 181 -152 0 0
EndChar
StartChar: quoteright
Encoding: 8217 8217 182
Width: 682
Flags: W
Fore
201 907 m 1,0,1
 284 933 284 933 334.5 984.5 c 128,-1,2
 385 1036 385 1036 385 1092 c 0,3,4
 385 1165 385 1165 303 1180 c 0,5,6
 201 1198 201 1198 201 1284 c 0,7,8
 201 1332 201 1332 234.5 1359 c 128,-1,9
 268 1386 268 1386 322 1386 c 0,10,11
 388 1386 388 1386 433.5 1320.5 c 128,-1,12
 479 1255 479 1255 479 1174 c 0,13,14
 479 1060 479 1060 406 976 c 128,-1,15
 333 892 333 892 201 854 c 1,16,-1
 201 907 l 1,0,1
EndSplineSet
KernsSLIFO: 182 -152 0 0 87 -37 0 0 86 -113 0 0 3 -152 0 0
EndChar
StartChar: divide
Encoding: 247 247 183
Width: 1124
Flags: W
Fore
563 1075 m 0,0,1
 599 1075 599 1075 625 1049.5 c 128,-1,2
 651 1024 651 1024 651 987 c 0,3,4
 651 950 651 950 625 924.5 c 128,-1,5
 599 899 599 899 563 899 c 0,6,7
 526 899 526 899 500 924.5 c 128,-1,8
 474 950 474 950 474 987 c 0,9,10
 474 1024 474 1024 500 1049.5 c 128,-1,11
 526 1075 526 1075 563 1075 c 0,0,1
1100 639 m 1,12,-1
 25 639 l 1,13,-1
 25 721 l 1,14,-1
 1100 721 l 1,15,-1
 1100 639 l 1,12,-1
563 461 m 0,16,17
 599 461 599 461 625 435 c 128,-1,18
 651 409 651 409 651 373 c 0,19,20
 651 336 651 336 625 310.5 c 128,-1,21
 599 285 599 285 563 285 c 0,22,23
 526 285 526 285 500 310.5 c 128,-1,24
 474 336 474 336 474 373 c 0,25,26
 474 409 474 409 500 435 c 128,-1,27
 526 461 526 461 563 461 c 0,16,17
EndSplineSet
EndChar
StartChar: lozenge
Encoding: 9674 9674 184
Width: 1012
Flags: W
Fore
967 709 m 1,0,-1
 549 0 l 1,1,-1
 438 0 l 1,2,-1
 47 709 l 1,3,-1
 438 1423 l 1,4,-1
 549 1423 l 1,5,-1
 967 709 l 1,0,-1
854 709 m 1,6,-1
 496 1325 l 1,7,-1
 156 709 l 1,8,-1
 496 94 l 1,9,-1
 854 709 l 1,6,-1
EndSplineSet
EndChar
StartChar: fraction
Encoding: 8725 8725 187
Width: 342
Flags: W
Fore
684 1386 m 1,0,-1
 -250 -31 l 1,1,-1
 -340 -31 l 1,2,-1
 594 1386 l 1,3,-1
 684 1386 l 1,0,-1
EndSplineSet
EndChar
StartChar: Euro
Encoding: 8364 8364 188
Width: 1024
Flags: W
Fore
293 741 m 1,0,1
 291 712 291 712 291 649 c 1,2,-1
 797 649 l 1,3,-1
 772 575 l 1,4,-1
 293 575 l 1,5,6
 312 53 312 53 604 53 c 0,7,8
 802 53 802 53 936 272 c 1,9,-1
 967 252 l 1,10,11
 819 -31 819 -31 555 -31 c 0,12,13
 355 -31 355 -31 236 126.5 c 128,-1,14
 117 284 117 284 96 575 c 1,15,-1
 -23 575 l 1,16,-1
 2 649 l 1,17,-1
 94 649 l 1,18,-1
 94 670 l 2,19,20
 94 719 94 719 96 741 c 1,21,-1
 -23 741 l 1,22,-1
 2 815 l 1,23,-1
 102 815 l 1,24,25
 136 1088 136 1088 272.5 1237 c 128,-1,26
 409 1386 409 1386 623 1386 c 0,27,28
 774 1386 774 1386 942 1296 c 1,29,-1
 942 997 l 1,30,-1
 901 997 l 1,31,32
 887 1160 887 1160 819.5 1237.5 c 128,-1,33
 752 1315 752 1315 623 1315 c 0,34,35
 483 1315 483 1315 399.5 1188.5 c 128,-1,36
 316 1062 316 1062 297 815 c 1,37,-1
 852 815 l 1,38,-1
 827 741 l 1,39,-1
 293 741 l 1,0,1
EndSplineSet
EndChar
StartChar: guilsinglleft
Encoding: 8249 8249 189
Width: 682
Flags: W
Fore
565 0 m 1,0,-1
 504 0 l 1,1,-1
 117 469 l 1,2,-1
 504 938 l 1,3,-1
 565 938 l 1,4,-1
 317 469 l 1,5,-1
 565 0 l 1,0,-1
EndSplineSet
EndChar
StartChar: guilsinglright
Encoding: 8250 8250 190
Width: 682
Flags: W
Fore
565 469 m 1,0,-1
 178 0 l 1,1,-1
 117 0 l 1,2,-1
 365 469 l 1,3,-1
 117 938 l 1,4,-1
 178 938 l 1,5,-1
 565 469 l 1,0,-1
EndSplineSet
EndChar
StartChar: fi
Encoding: 64257 64257 191
Width: 1139
Flags: W
Fore
1098 0 m 1,0,-1
 633 0 l 1,1,-1
 633 47 l 1,2,3
 723 47 723 47 752.5 76 c 128,-1,4
 782 105 782 105 782 201 c 2,5,-1
 782 760 l 2,6,7
 782 819 782 819 764 840.5 c 128,-1,8
 746 862 746 862 694 862 c 2,9,-1
 420 862 l 1,10,-1
 420 264 l 2,11,12
 420 166 420 166 427 125.5 c 128,-1,13
 434 85 434 85 466.5 66 c 128,-1,14
 499 47 499 47 575 47 c 1,15,-1
 575 0 l 1,16,-1
 100 0 l 1,17,-1
 100 47 l 1,18,19
 175 47 175 47 207.5 66 c 128,-1,20
 240 85 240 85 248 127 c 128,-1,21
 256 169 256 169 256 264 c 2,22,-1
 256 862 l 1,23,-1
 78 862 l 1,24,-1
 78 936 l 1,25,-1
 256 936 l 1,26,-1
 256 1020 l 2,27,28
 256 1197 256 1197 372.5 1309 c 128,-1,29
 489 1421 489 1421 682 1421 c 0,30,31
 782 1421 782 1421 862 1375 c 128,-1,32
 942 1329 942 1329 942 1260 c 0,33,34
 942 1223 942 1223 918 1198.5 c 128,-1,35
 894 1174 894 1174 856 1174 c 0,36,37
 809 1174 809 1174 762 1255 c 0,38,39
 708 1348 708 1348 600 1348 c 0,40,41
 515 1348 515 1348 467.5 1270 c 128,-1,42
 420 1192 420 1192 420 1081 c 2,43,-1
 420 936 l 1,44,-1
 946 936 l 1,45,-1
 946 201 l 2,46,47
 946 101 946 101 979.5 74 c 128,-1,48
 1013 47 1013 47 1098 47 c 1,49,-1
 1098 0 l 1,0,-1
EndSplineSet
Ligature: 0 0 'liga' f i
EndChar
StartChar: fl
Encoding: 64258 64258 192
Width: 1139
Flags: W
Fore
1077 0 m 1,0,-1
 653 0 l 1,1,-1
 653 47 l 1,2,3
 741 47 741 47 761.5 75 c 128,-1,4
 782 103 782 103 782 201 c 2,5,-1
 782 1174 l 1,6,7
 745 1180 745 1180 700 1255 c 0,8,9
 667 1312 667 1312 634 1330 c 128,-1,10
 601 1348 601 1348 559 1348 c 0,11,12
 491 1348 491 1348 455.5 1289.5 c 128,-1,13
 420 1231 420 1231 420 1081 c 2,14,-1
 420 936 l 1,15,-1
 655 936 l 1,16,-1
 655 862 l 1,17,-1
 420 862 l 1,18,-1
 420 264 l 2,19,20
 420 166 420 166 427 125.5 c 128,-1,21
 434 85 434 85 466.5 66 c 128,-1,22
 499 47 499 47 575 47 c 1,23,-1
 575 0 l 1,24,-1
 100 0 l 1,25,-1
 100 47 l 1,26,27
 175 47 175 47 207.5 66 c 128,-1,28
 240 85 240 85 248 127 c 128,-1,29
 256 169 256 169 256 264 c 2,30,-1
 256 862 l 1,31,-1
 78 862 l 1,32,-1
 78 936 l 1,33,-1
 256 936 l 1,34,-1
 256 1020 l 2,35,36
 256 1204 256 1204 358.5 1312.5 c 128,-1,37
 461 1421 461 1421 641 1421 c 0,38,39
 730 1421 730 1421 801 1380 c 1,40,-1
 909 1421 l 1,41,-1
 946 1421 l 1,42,-1
 946 201 l 2,43,44
 946 98 946 98 971.5 72.5 c 128,-1,45
 997 47 997 47 1077 47 c 1,46,-1
 1077 0 l 1,0,-1
EndSplineSet
Ligature: 0 0 'liga' f l
EndChar
StartChar: daggerdbl
Encoding: 8225 8225 193
Width: 1024
Flags: W
Fore
537 25 m 1,0,1
 588 25 588 25 682 66 c 0,2,3
 770 104 770 104 815 104 c 0,4,5
 859 104 859 104 891.5 76 c 128,-1,6
 924 48 924 48 924 6 c 0,7,8
 924 -36 924 -36 891.5 -64 c 128,-1,9
 859 -92 859 -92 815 -92 c 0,10,11
 770 -92 770 -92 682 -53 c 0,12,13
 588 -12 588 -12 537 -12 c 1,14,15
 537 -72 537 -72 582 -161 c 0,16,17
 627 -250 627 -250 627 -309 c 0,18,19
 627 -363 627 -363 594.5 -402.5 c 128,-1,20
 562 -442 562 -442 512 -442 c 0,21,22
 462 -442 462 -442 429.5 -402.5 c 128,-1,23
 397 -363 397 -363 397 -309 c 0,24,25
 397 -250 397 -250 442 -161 c 0,26,27
 487 -72 487 -72 487 -12 c 1,28,29
 436 -12 436 -12 342 -53 c 0,30,31
 254 -92 254 -92 209 -92 c 0,32,33
 165 -92 165 -92 132.5 -64 c 128,-1,34
 100 -36 100 -36 100 6 c 0,35,36
 100 48 100 48 132.5 76 c 128,-1,37
 165 104 165 104 209 104 c 0,38,39
 254 104 254 104 342 66 c 0,40,41
 436 25 436 25 487 25 c 1,42,43
 486 71 486 71 448 145 c 0,44,45
 416 206 416 206 416 240 c 0,46,47
 416 271 416 271 446 322 c 0,48,49
 487 394 487 394 487 455 c 2,50,-1
 487 489 l 2,51,52
 487 550 487 550 446 622 c 0,53,54
 416 674 416 674 416 705 c 0,55,56
 416 738 416 738 448 799 c 0,57,58
 486 873 486 873 487 920 c 1,59,60
 436 920 436 920 342 878 c 0,61,62
 254 840 254 840 209 840 c 0,63,64
 165 840 165 840 132.5 868 c 128,-1,65
 100 896 100 896 100 938 c 0,66,67
 100 981 100 981 133 1008.5 c 128,-1,68
 166 1036 166 1036 209 1036 c 0,69,70
 254 1036 254 1036 342 998 c 0,71,72
 436 956 436 956 487 956 c 1,73,74
 487 1016 487 1016 442 1105 c 0,75,76
 397 1194 397 1194 397 1253 c 0,77,78
 397 1307 397 1307 429.5 1346.5 c 128,-1,79
 462 1386 462 1386 512 1386 c 0,80,81
 562 1386 562 1386 594.5 1346.5 c 128,-1,82
 627 1307 627 1307 627 1253 c 0,83,84
 627 1194 627 1194 582 1105 c 0,85,86
 537 1016 537 1016 537 956 c 1,87,88
 588 956 588 956 682 998 c 0,89,90
 770 1036 770 1036 815 1036 c 0,91,92
 859 1036 859 1036 891.5 1008 c 128,-1,93
 924 980 924 980 924 938 c 0,94,95
 924 895 924 895 891 867.5 c 128,-1,96
 858 840 858 840 815 840 c 0,97,98
 770 840 770 840 682 878 c 0,99,100
 588 920 588 920 537 920 c 1,101,102
 538 873 538 873 576 799 c 0,103,104
 608 738 608 738 608 705 c 0,105,106
 608 674 608 674 578 622 c 0,107,108
 537 550 537 550 537 489 c 2,109,-1
 537 455 l 2,110,111
 537 394 537 394 578 322 c 0,112,113
 608 271 608 271 608 240 c 0,114,115
 608 206 608 206 576 145 c 0,116,117
 538 71 538 71 537 25 c 1,0,1
EndSplineSet
EndChar
StartChar: uni00B7
Encoding: 183 183 194
Width: 512
Flags: W
Fore
256 788 m 0,0,1
 302 788 302 788 334.5 756 c 128,-1,2
 367 724 367 724 367 678 c 0,3,4
 367 632 367 632 334.5 599.5 c 128,-1,5
 302 567 302 567 256 567 c 0,6,7
 210 567 210 567 177.5 599.5 c 128,-1,8
 145 632 145 632 145 678 c 0,9,10
 145 724 145 724 177.5 756 c 128,-1,11
 210 788 210 788 256 788 c 0,0,1
EndSplineSet
EndChar
StartChar: quotesinglbase
Encoding: 8218 8218 195
Width: 682
Flags: W
Fore
201 -289 m 1,0,1
 284 -263 284 -263 334.5 -211.5 c 128,-1,2
 385 -160 385 -160 385 -104 c 0,3,4
 385 -31 385 -31 303 -16 c 0,5,6
 201 2 201 2 201 88 c 0,7,8
 201 135 201 135 234 162.5 c 128,-1,9
 267 190 267 190 322 190 c 0,10,11
 388 190 388 190 433.5 124.5 c 128,-1,12
 479 59 479 59 479 -23 c 0,13,14
 479 -136 479 -136 406 -220 c 128,-1,15
 333 -304 333 -304 201 -342 c 1,16,-1
 201 -289 l 1,0,1
EndSplineSet
KernsSLIFO: 337 -205 0 0 334 -385 0 0 329 -205 0 0 307 -205 0 0 298 -205 0 0
EndChar
StartChar: quotedblbase
Encoding: 8222 8222 196
Width: 909
Flags: W
Fore
530 -289 m 1,0,1
 614 -263 614 -263 664.5 -211.5 c 128,-1,2
 715 -160 715 -160 715 -104 c 0,3,4
 715 -31 715 -31 633 -16 c 0,5,6
 530 2 530 2 530 88 c 0,7,8
 530 135 530 135 563.5 162.5 c 128,-1,9
 597 190 597 190 651 190 c 0,10,11
 717 190 717 190 763 124.5 c 128,-1,12
 809 59 809 59 809 -23 c 0,13,14
 809 -136 809 -136 735.5 -220 c 128,-1,15
 662 -304 662 -304 530 -342 c 1,16,-1
 530 -289 l 1,0,1
98 -289 m 1,17,18
 182 -263 182 -263 232.5 -211.5 c 128,-1,19
 283 -160 283 -160 283 -104 c 0,20,21
 283 -31 283 -31 201 -16 c 0,22,23
 98 2 98 2 98 88 c 0,24,25
 98 135 98 135 131.5 162.5 c 128,-1,26
 165 190 165 190 219 190 c 0,27,28
 285 190 285 190 331 124.5 c 128,-1,29
 377 59 377 59 377 -23 c 0,30,31
 377 -136 377 -136 303.5 -220 c 128,-1,32
 230 -304 230 -304 98 -342 c 1,33,-1
 98 -289 l 1,17,18
EndSplineSet
KernsSLIFO: 337 -205 0 0 334 -385 0 0 329 -205 0 0 307 -205 0 0 298 -205 0 0
EndChar
StartChar: perthousand
Encoding: 8240 8240 197
Width: 2048
Flags: W
Fore
1225 1386 m 1,0,-1
 256 -31 l 1,1,-1
 166 -31 l 1,2,-1
 1135 1386 l 1,3,-1
 1225 1386 l 1,0,-1
352 1384 m 0,4,5
 482 1384 482 1384 561.5 1277 c 128,-1,6
 641 1170 641 1170 641 1018 c 0,7,8
 641 866 641 866 561.5 758.5 c 128,-1,9
 482 651 482 651 352 651 c 0,10,11
 223 651 223 651 143 758.5 c 128,-1,12
 63 866 63 866 63 1018 c 0,13,14
 63 1170 63 1170 143 1277 c 128,-1,15
 223 1384 223 1384 352 1384 c 0,4,5
481 1016 m 0,17,18
 481 1173 481 1173 449 1252 c 128,-1,19
 417 1331 417 1331 354 1331 c 0,20,21
 292 1331 292 1331 257.5 1261.5 c 128,-1,22
 223 1192 223 1192 223 1016 c 0,23,24
 223 860 223 860 254.5 782.5 c 128,-1,25
 286 705 286 705 350 705 c 0,26,27
 412 705 412 705 446.5 772.5 c 128,-1,16
 481 840 481 840 481 1016 c 0,17,18
1696 705 m 0,28,29
 1825 705 1825 705 1905 597.5 c 128,-1,30
 1985 490 1985 490 1985 338 c 0,31,32
 1985 186 1985 186 1905 78.5 c 128,-1,33
 1825 -29 1825 -29 1696 -29 c 0,34,35
 1566 -29 1566 -29 1486.5 78.5 c 128,-1,36
 1407 186 1407 186 1407 338 c 0,37,38
 1407 490 1407 490 1486.5 597.5 c 128,-1,39
 1566 705 1566 705 1696 705 c 0,28,29
1825 336 m 0,41,42
 1825 493 1825 493 1793 572 c 128,-1,43
 1761 651 1761 651 1698 651 c 0,44,45
 1635 651 1635 651 1601 581.5 c 128,-1,46
 1567 512 1567 512 1567 336 c 0,47,48
 1567 180 1567 180 1598.5 102.5 c 128,-1,49
 1630 25 1630 25 1694 25 c 0,50,51
 1756 25 1756 25 1790.5 92.5 c 128,-1,40
 1825 160 1825 160 1825 336 c 0,41,42
1028 705 m 0,52,53
 1158 705 1158 705 1237.5 597.5 c 128,-1,54
 1317 490 1317 490 1317 338 c 0,55,56
 1317 186 1317 186 1237.5 78.5 c 128,-1,57
 1158 -29 1158 -29 1028 -29 c 0,58,59
 899 -29 899 -29 819 78.5 c 128,-1,60
 739 186 739 186 739 338 c 0,61,62
 739 490 739 490 819 597.5 c 128,-1,63
 899 705 899 705 1028 705 c 0,52,53
1157 336 m 0,65,66
 1157 493 1157 493 1125 572 c 128,-1,67
 1093 651 1093 651 1030 651 c 0,68,69
 968 651 968 651 933.5 581.5 c 128,-1,70
 899 512 899 512 899 336 c 0,71,72
 899 180 899 180 930.5 102.5 c 128,-1,73
 962 25 962 25 1026 25 c 0,74,75
 1088 25 1088 25 1122.5 92.5 c 128,-1,64
 1157 160 1157 160 1157 336 c 0,65,66
EndSplineSet
EndChar
StartChar: glyph210
Encoding: 65540 -1 209
Width: 717
Flags: W
Fore
358 944 m 0,0,1
 468 944 468 944 546.5 866 c 128,-1,2
 625 788 625 788 625 678 c 0,3,4
 625 568 625 568 546.5 490 c 128,-1,5
 468 412 468 412 358 412 c 0,6,7
 248 412 248 412 170 490 c 128,-1,8
 92 568 92 568 92 678 c 0,9,10
 92 788 92 788 170 866 c 128,-1,11
 248 944 248 944 358 944 c 0,0,1
EndSplineSet
EndChar
StartChar: dotlessi
Encoding: 305 305 214
Width: 569
Flags: W
Fore
528 0 m 1,0,-1
 63 0 l 1,1,-1
 63 47 l 1,2,3
 154 47 154 47 183.5 76 c 128,-1,4
 213 105 213 105 213 201 c 2,5,-1
 213 723 l 2,6,7
 213 782 213 782 195 803.5 c 128,-1,8
 177 825 177 825 125 825 c 2,9,-1
 68 825 l 1,10,-1
 68 868 l 1,11,-1
 340 965 l 1,12,-1
 377 965 l 1,13,-1
 377 201 l 2,14,15
 377 101 377 101 410 74 c 128,-1,16
 443 47 443 47 528 47 c 1,17,-1
 528 0 l 1,0,-1
EndSplineSet
EndChar
StartChar: circumflex
Encoding: 710 710 215
Width: 682
Flags: W
Fore
623 1051 m 1,0,-1
 590 1051 l 1,1,-1
 340 1229 l 1,2,-1
 90 1051 l 1,3,-1
 57 1051 l 1,4,-1
 248 1348 l 1,5,-1
 432 1348 l 1,6,-1
 623 1051 l 1,0,-1
EndSplineSet
EndChar
StartChar: tilde
Encoding: 732 732 216
Width: 682
Flags: W
Fore
662 1339 m 1,0,1
 662 1219 662 1219 612.5 1148 c 128,-1,2
 563 1077 563 1077 471 1077 c 0,3,4
 399 1077 399 1077 273 1161 c 0,5,6
 191 1217 191 1217 154 1217 c 0,7,8
 77 1217 77 1217 57 1077 c 1,9,-1
 23 1077 l 1,10,11
 23 1197 23 1197 72 1268 c 128,-1,12
 121 1339 121 1339 213 1339 c 0,13,14
 285 1339 285 1339 411 1255 c 0,15,16
 493 1200 493 1200 530 1200 c 0,17,18
 607 1200 607 1200 627 1339 c 1,19,-1
 662 1339 l 1,0,1
EndSplineSet
EndChar
StartChar: macron
Encoding: 713 713 217
Width: 682
Flags: W
Fore
659 1145 m 1,0,-1
 23 1145 l 1,1,-1
 23 1274 l 1,2,-1
 659 1274 l 1,3,-1
 659 1145 l 1,0,-1
EndSplineSet
EndChar
StartChar: breve
Encoding: 728 728 218
Width: 682
Flags: W
Fore
627 1348 m 1,0,1
 621 1226 621 1226 536 1146.5 c 128,-1,2
 451 1067 451 1067 340 1067 c 0,3,4
 229 1067 229 1067 144 1146.5 c 128,-1,5
 59 1226 59 1226 53 1348 c 1,6,-1
 86 1348 l 1,7,8
 144 1219 144 1219 340 1219 c 0,9,10
 535 1219 535 1219 594 1348 c 1,11,-1
 627 1348 l 1,0,1
EndSplineSet
EndChar
StartChar: dotaccent
Encoding: 729 729 219
Width: 682
Flags: W
Fore
342 1319 m 0,0,1
 388 1319 388 1319 420.5 1286.5 c 128,-1,2
 453 1254 453 1254 453 1208 c 0,3,4
 453 1162 453 1162 420.5 1130 c 128,-1,5
 388 1098 388 1098 342 1098 c 0,6,7
 296 1098 296 1098 263.5 1130 c 128,-1,8
 231 1162 231 1162 231 1208 c 0,9,10
 231 1254 231 1254 263.5 1286.5 c 128,-1,11
 296 1319 296 1319 342 1319 c 0,0,1
EndSplineSet
EndChar
StartChar: ring
Encoding: 730 730 220
Width: 682
Flags: W
Fore
342 1419 m 0,0,1
 421 1419 421 1419 478 1362.5 c 128,-1,2
 535 1306 535 1306 535 1227 c 0,3,4
 535 1147 535 1147 478 1090.5 c 128,-1,5
 421 1034 421 1034 342 1034 c 0,6,7
 263 1034 263 1034 206.5 1090.5 c 128,-1,8
 150 1147 150 1147 150 1227 c 0,9,10
 150 1307 150 1307 206 1363 c 128,-1,11
 262 1419 262 1419 342 1419 c 0,0,1
342 1104 m 0,12,13
 392 1104 392 1104 428.5 1140 c 128,-1,14
 465 1176 465 1176 465 1227 c 0,15,16
 465 1277 465 1277 428.5 1313.5 c 128,-1,17
 392 1350 392 1350 342 1350 c 0,18,19
 292 1350 292 1350 255.5 1313.5 c 128,-1,20
 219 1277 219 1277 219 1227 c 0,21,22
 219 1176 219 1176 255.5 1140 c 128,-1,23
 292 1104 292 1104 342 1104 c 0,12,13
EndSplineSet
EndChar
StartChar: cedilla
Encoding: 184 184 221
Width: 682
Flags: W
Fore
311 -96 m 1,0,1
 346 -86 346 -86 369 -86 c 0,2,3
 438 -86 438 -86 482 -120.5 c 128,-1,4
 526 -155 526 -155 526 -215 c 0,5,6
 526 -291 526 -291 458.5 -334 c 128,-1,7
 391 -377 391 -377 279 -377 c 0,8,9
 219 -377 219 -377 154 -360 c 1,10,-1
 162 -322 l 1,11,12
 201 -334 201 -334 254 -334 c 0,13,14
 304 -334 304 -334 335.5 -306 c 128,-1,15
 367 -278 367 -278 367 -231 c 0,16,17
 367 -191 367 -191 344 -169 c 128,-1,18
 321 -147 321 -147 291 -147 c 0,19,20
 270 -147 270 -147 244 -154 c 1,21,-1
 283 0 l 1,22,-1
 336 0 l 1,23,-1
 311 -96 l 1,0,1
EndSplineSet
EndChar
StartChar: hungarumlaut
Encoding: 733 733 222
Width: 682
Flags: W
Fore
662 1348 m 1,0,-1
 440 1051 l 1,1,-1
 408 1051 l 1,2,-1
 473 1348 l 1,3,-1
 662 1348 l 1,0,-1
348 1348 m 1,4,-1
 127 1051 l 1,5,-1
 94 1051 l 1,6,-1
 160 1348 l 1,7,-1
 348 1348 l 1,4,-1
EndSplineSet
EndChar
StartChar: ogonek
Encoding: 731 731 223
Width: 682
Flags: W
Fore
588 -256 m 1,0,1
 489 -362 489 -362 344 -362 c 0,2,3
 256 -362 256 -362 201.5 -320.5 c 128,-1,4
 147 -279 147 -279 147 -207 c 0,5,6
 147 -128 147 -128 233 -56 c 128,-1,7
 319 16 319 16 338 16 c 2,8,-1
 416 16 l 1,9,10
 293 -95 293 -95 293 -197 c 0,11,12
 293 -287 293 -287 391 -287 c 0,13,14
 486 -287 486 -287 563 -223 c 1,15,-1
 588 -256 l 1,0,1
EndSplineSet
EndChar
StartChar: caron
Encoding: 711 711 224
Width: 682
Flags: W
Fore
623 1395 m 1,0,-1
 432 1098 l 1,1,-1
 248 1098 l 1,2,-1
 57 1395 l 1,3,-1
 90 1395 l 1,4,-1
 340 1217 l 1,5,-1
 590 1395 l 1,6,-1
 623 1395 l 1,0,-1
EndSplineSet
EndChar
StartChar: Lslash
Encoding: 321 321 225
Width: 1251
Flags: W
Fore
1153 0 m 1,0,-1
 51 0 l 1,1,-1
 51 47 l 1,2,3
 148 47 148 47 187 64 c 128,-1,4
 226 81 226 81 235 120.5 c 128,-1,5
 244 160 244 160 244 260 c 2,6,-1
 244 565 l 1,7,-1
 55 459 l 1,8,-1
 27 512 l 1,9,-1
 244 637 l 1,10,-1
 244 1096 l 2,11,12
 244 1196 244 1196 235 1235.5 c 128,-1,13
 226 1275 226 1275 187 1292 c 128,-1,14
 148 1309 148 1309 51 1309 c 1,15,-1
 51 1356 l 1,16,-1
 664 1356 l 1,17,-1
 664 1309 l 1,18,19
 550 1309 550 1309 503.5 1289.5 c 128,-1,20
 457 1270 457 1270 446.5 1226.5 c 128,-1,21
 436 1183 436 1183 436 1075 c 2,22,-1
 436 748 l 1,23,-1
 680 887 l 1,24,-1
 715 831 l 1,25,-1
 436 674 l 1,26,-1
 436 266 l 2,27,28
 436 139 436 139 460.5 108.5 c 128,-1,29
 485 78 485 78 528 78 c 2,30,-1
 831 78 l 2,31,32
 971 78 971 78 1035.5 156.5 c 128,-1,33
 1100 235 1100 235 1100 412 c 1,34,-1
 1153 412 l 1,35,-1
 1153 0 l 1,0,-1
EndSplineSet
EndChar
StartChar: lslash
Encoding: 322 322 226
Width: 569
Flags: W
Fore
213 201 m 2,1,-1
 213 547 l 1,2,-1
 33 442 l 1,3,-1
 4 496 l 1,4,-1
 213 618 l 1,5,-1
 213 1180 l 2,6,7
 213 1240 213 1240 194.5 1261 c 128,-1,8
 176 1282 176 1282 125 1282 c 2,9,-1
 68 1282 l 1,10,-1
 68 1325 l 1,11,-1
 340 1421 l 1,12,-1
 377 1421 l 1,13,-1
 377 715 l 1,14,-1
 545 813 l 1,15,-1
 580 758 l 1,16,-1
 377 641 l 1,17,-1
 377 201 l 2,18,19
 377 98 377 98 402 72.5 c 128,-1,20
 427 47 427 47 508 47 c 1,21,-1
 508 0 l 1,22,-1
 84 0 l 1,23,-1
 84 47 l 1,24,25
 172 47 172 47 192.5 75 c 128,-1,0
 213 103 213 103 213 201 c 2,1,-1
EndSplineSet
EndChar
StartChar: brokenbar
Encoding: 166 166 231
Width: 410
Flags: W
Fore
246 739 m 1,0,-1
 164 739 l 1,1,-1
 164 1421 l 1,2,-1
 246 1421 l 1,3,-1
 246 739 l 1,0,-1
246 -442 m 1,4,-1
 164 -442 l 1,5,-1
 164 240 l 1,6,-1
 246 240 l 1,7,-1
 246 -442 l 1,4,-1
EndSplineSet
EndChar
StartChar: Eth
Encoding: 208 208 232
Width: 1479
Flags: W
Fore
51 1356 m 1,0,-1
 563 1356 l 2,1,2
 762 1356 762 1356 907 1331 c 128,-1,3
 1052 1306 1052 1306 1167 1216.5 c 128,-1,4
 1282 1127 1282 1127 1342.5 985.5 c 128,-1,5
 1403 844 1403 844 1403 684 c 0,6,7
 1403 486 1403 486 1314.5 328.5 c 128,-1,8
 1226 171 1226 171 1060 85.5 c 128,-1,9
 894 0 894 0 670 0 c 2,10,-1
 51 0 l 1,11,-1
 51 47 l 1,12,13
 148 47 148 47 187 64 c 128,-1,14
 226 81 226 81 235 120.5 c 128,-1,15
 244 160 244 160 244 260 c 2,16,-1
 244 655 l 1,17,-1
 37 655 l 1,18,-1
 37 729 l 1,19,-1
 244 729 l 1,20,-1
 244 1096 l 2,21,22
 244 1196 244 1196 235 1235.5 c 128,-1,23
 226 1275 226 1275 187 1292 c 128,-1,24
 148 1309 148 1309 51 1309 c 1,25,-1
 51 1356 l 1,0,-1
436 100 m 1,26,27
 543 74 543 74 637 74 c 0,28,29
 883 74 883 74 1031.5 244.5 c 128,-1,30
 1180 415 1180 415 1180 678 c 0,31,32
 1180 945 1180 945 1030.5 1113.5 c 128,-1,33
 881 1282 881 1282 629 1282 c 0,34,35
 522 1282 522 1282 436 1257 c 1,36,-1
 436 729 l 1,37,-1
 817 729 l 1,38,-1
 817 655 l 1,39,-1
 436 655 l 1,40,-1
 436 100 l 1,26,27
EndSplineSet
EndChar
StartChar: eth
Encoding: 240 240 233
Width: 1024
Flags: W
Fore
567 1225 m 1,0,1
 737 1078 737 1078 845.5 862.5 c 128,-1,2
 954 647 954 647 954 473 c 0,3,4
 954 249 954 249 833.5 110 c 128,-1,5
 713 -29 713 -29 500 -29 c 0,6,7
 315 -29 315 -29 192.5 113 c 128,-1,8
 70 255 70 255 70 459 c 0,9,10
 70 684 70 684 188.5 824.5 c 128,-1,11
 307 965 307 965 514 965 c 0,12,13
 576 965 576 965 625 950 c 1,14,15
 569 1056 569 1056 471 1171 c 1,16,-1
 215 1030 l 1,17,-1
 180 1085 l 1,18,-1
 428 1223 l 1,19,20
 332 1326 332 1326 236 1380 c 1,21,-1
 276 1421 l 1,22,23
 404 1360 404 1360 514 1270 c 1,24,-1
 788 1421 l 1,25,-1
 823 1366 l 1,26,-1
 567 1225 l 1,0,1
547 41 m 0,27,28
 650 41 650 41 709 138 c 128,-1,29
 768 235 768 235 768 410 c 0,30,31
 768 608 768 608 692.5 751.5 c 128,-1,32
 617 895 617 895 479 895 c 0,33,34
 375 895 375 895 315.5 796.5 c 128,-1,35
 256 698 256 698 256 520 c 0,36,37
 256 327 256 327 332.5 184 c 128,-1,38
 409 41 409 41 547 41 c 0,27,28
EndSplineSet
EndChar
StartChar: Thorn
Encoding: 222 222 236
Width: 1139
Flags: W
Fore
436 1108 m 1,0,-1
 604 1108 l 2,1,2
 825 1108 825 1108 951 1001.5 c 128,-1,3
 1077 895 1077 895 1077 729 c 0,4,5
 1077 536 1077 536 950 431 c 128,-1,6
 823 326 823 326 582 326 c 0,7,8
 511 326 511 326 436 332 c 1,9,-1
 436 260 l 2,10,11
 436 167 436 167 452 124.5 c 128,-1,12
 468 82 468 82 520.5 64.5 c 128,-1,13
 573 47 573 47 690 47 c 1,14,-1
 690 0 l 1,15,-1
 51 0 l 1,16,-1
 51 47 l 1,17,18
 148 47 148 47 187 64 c 128,-1,19
 226 81 226 81 235 120.5 c 128,-1,20
 244 160 244 160 244 260 c 2,21,-1
 244 1096 l 2,22,23
 244 1196 244 1196 235 1235.5 c 128,-1,24
 226 1275 226 1275 187 1292 c 128,-1,25
 148 1309 148 1309 51 1309 c 1,26,-1
 51 1356 l 1,27,-1
 672 1356 l 1,28,-1
 672 1309 l 1,29,30
 537 1309 537 1309 486.5 1281 c 128,-1,31
 436 1253 436 1253 436 1143 c 2,32,-1
 436 1108 l 1,0,-1
436 412 m 1,33,34
 523 395 523 395 582 395 c 0,35,36
 701 395 701 395 777.5 489 c 128,-1,37
 854 583 854 583 854 719 c 0,38,39
 854 855 854 855 770 945.5 c 128,-1,40
 686 1036 686 1036 557 1036 c 0,41,42
 522 1036 522 1036 436 1024 c 1,43,-1
 436 412 l 1,33,34
EndSplineSet
EndChar
StartChar: thorn
Encoding: 254 254 237
Width: 1024
Flags: W
Fore
315 825 m 1,0,1
 466 965 466 965 602 965 c 0,2,3
 763 965 763 965 857.5 829 c 128,-1,4
 952 693 952 693 952 504 c 0,5,6
 952 290 952 290 823 130.5 c 128,-1,7
 694 -29 694 -29 510 -29 c 0,8,9
 419 -29 419 -29 315 0 c 1,10,-1
 315 -238 l 2,11,12
 315 -345 315 -345 339.5 -368 c 128,-1,13
 364 -391 364 -391 475 -391 c 1,14,-1
 475 -438 l 1,15,-1
 23 -438 l 1,16,-1
 23 -391 l 1,17,18
 111 -391 111 -391 131.5 -363 c 128,-1,19
 152 -335 152 -335 152 -238 c 2,20,-1
 152 1180 l 2,21,22
 152 1240 152 1240 133.5 1261 c 128,-1,23
 115 1282 115 1282 63 1282 c 2,24,-1
 6 1282 l 1,25,-1
 6 1325 l 1,26,-1
 281 1421 l 1,27,-1
 315 1421 l 1,28,-1
 315 825 l 1,0,1
315 104 m 1,29,30
 406 43 406 43 512 43 c 0,31,32
 639 43 639 43 709.5 151.5 c 128,-1,33
 780 260 780 260 780 446 c 0,34,35
 780 618 780 618 709 731 c 128,-1,36
 638 844 638 844 512 844 c 0,37,38
 422 844 422 844 315 760 c 1,39,-1
 315 104 l 1,29,30
EndSplineSet
EndChar
StartChar: minus
Encoding: 8722 8722 238
Width: 1155
Flags: W
Fore
1116 639 m 1,0,-1
 39 639 l 1,1,-1
 39 721 l 1,2,-1
 1116 721 l 1,3,-1
 1116 639 l 1,0,-1
EndSplineSet
EndChar
StartChar: multiply
Encoding: 215 215 239
Width: 1155
Flags: W
Fore
989 326 m 1,0,-1
 932 268 l 1,1,-1
 578 623 l 1,2,-1
 223 268 l 1,3,-1
 166 326 l 1,4,-1
 520 680 l 1,5,-1
 166 1034 l 1,6,-1
 223 1092 l 1,7,-1
 578 737 l 1,8,-1
 932 1092 l 1,9,-1
 989 1034 l 1,10,-1
 635 680 l 1,11,-1
 989 326 l 1,0,-1
EndSplineSet
EndChar
StartChar: onesuperior
Encoding: 185 185 240
Width: 614
Flags: W
Fore
485 664 m 1,0,-1
 127 664 l 1,1,-1
 127 700 l 1,2,3
 211 700 211 700 231.5 715 c 128,-1,4
 252 730 252 730 252 780 c 2,5,-1
 252 1237 l 2,6,7
 252 1268 252 1268 239.5 1278 c 128,-1,8
 227 1288 227 1288 184 1288 c 2,9,-1
 129 1288 l 1,10,-1
 129 1325 l 1,11,12
 251 1325 251 1325 340 1386 c 1,13,-1
 377 1386 l 1,14,-1
 377 780 l 2,15,16
 377 730 377 730 395.5 715 c 128,-1,17
 414 700 414 700 485 700 c 1,18,-1
 485 664 l 1,0,-1
EndSplineSet
EndChar
StartChar: twosuperior
Encoding: 178 178 241
Width: 614
Flags: W
Fore
522 664 m 1,0,-1
 18 664 l 1,1,-1
 18 700 l 1,2,3
 234 884 234 884 312.5 982.5 c 128,-1,4
 391 1081 391 1081 391 1165 c 0,5,6
 391 1220 391 1220 352.5 1255 c 128,-1,7
 314 1290 314 1290 254 1290 c 0,8,9
 133 1290 133 1290 63 1182 c 1,10,-1
 31 1200 l 1,11,12
 102 1386 102 1386 283 1386 c 0,13,14
 387 1386 387 1386 453.5 1328.5 c 128,-1,15
 520 1271 520 1271 520 1174 c 0,16,17
 520 1093 520 1093 477 1030 c 128,-1,18
 434 967 434 967 334 892 c 2,19,-1
 156 758 l 1,20,-1
 387 758 l 2,21,22
 455 758 455 758 470 775.5 c 128,-1,23
 485 793 485 793 485 840 c 1,24,-1
 522 840 l 1,25,-1
 522 664 l 1,0,-1
EndSplineSet
EndChar
StartChar: threesuperior
Encoding: 179 179 242
Width: 614
Flags: W
Fore
346 1081 m 1,0,1
 428 1071 428 1071 474 1025.5 c 128,-1,2
 520 980 520 980 520 911 c 0,3,4
 520 800 520 800 439 724.5 c 128,-1,5
 358 649 358 649 225 649 c 0,6,7
 122 649 122 649 39 692 c 1,8,-1
 57 725 l 1,9,10
 123 698 123 698 211 698 c 0,11,12
 297 698 297 698 344 749 c 128,-1,13
 391 800 391 800 391 891 c 0,14,15
 391 958 391 958 354 993 c 128,-1,16
 317 1028 317 1028 260 1028 c 0,17,18
 229 1028 229 1028 188 1022 c 1,19,-1
 188 1065 l 1,20,21
 360 1105 360 1105 360 1221 c 0,22,23
 360 1259 360 1259 334.5 1284 c 128,-1,24
 309 1309 309 1309 262 1309 c 0,25,26
 173 1309 173 1309 88 1223 c 1,27,-1
 53 1239 l 1,28,29
 146 1386 146 1386 297 1386 c 0,30,31
 379 1386 379 1386 432 1344.5 c 128,-1,32
 485 1303 485 1303 485 1241 c 0,33,34
 485 1135 485 1135 346 1083 c 1,35,-1
 346 1081 l 1,0,1
EndSplineSet
EndChar
StartChar: uni00AF
Encoding: 175 175 247
Width: 1024
Flags: W
Fore
1040 1509 m 1,0,-1
 -16 1509 l 1,1,-1
 -16 1612 l 1,2,-1
 1040 1612 l 1,3,-1
 1040 1509 l 1,0,-1
EndSplineSet
EndChar
StartChar: foursuperior
Encoding: 8308 8308 248
Width: 614
Flags: W
Fore
594 842 m 1,0,-1
 471 842 l 1,1,-1
 471 781 l 2,2,3
 471 730 471 730 491 715.5 c 128,-1,4
 511 701 511 701 586 701 c 1,5,-1
 586 664 l 1,6,-1
 203 664 l 1,7,-1
 203 701 l 1,8,9
 300 701 300 701 323 715.5 c 128,-1,10
 346 730 346 730 346 781 c 2,11,-1
 346 842 l 1,12,-1
 15 842 l 1,13,-1
 15 924 l 1,14,-1
 385 1387 l 1,15,-1
 471 1387 l 1,16,-1
 471 932 l 1,17,-1
 594 932 l 1,18,-1
 594 842 l 1,0,-1
346 932 m 1,19,-1
 346 1250 l 1,20,-1
 92 932 l 1,21,-1
 346 932 l 1,19,-1
EndSplineSet
EndChar
StartChar: Aogonek
Encoding: 260 260 251
Width: 1479
Flags: W
Fore
913 528 m 1,0,-1
 682 1075 l 1,1,-1
 446 528 l 1,2,-1
 913 528 l 1,0,-1
1174 -362 m 0,4,5
 1086 -362 1086 -362 1031.5 -320.5 c 128,-1,6
 977 -279 977 -279 977 -207 c 0,7,8
 977 -100 977 -100 1139 0 c 1,9,-1
 924 0 l 1,10,-1
 924 47 l 1,11,12
 1000 50 1000 50 1031.5 71 c 128,-1,13
 1063 92 1063 92 1063 139 c 0,14,15
 1063 189 1063 189 1025 271 c 2,16,-1
 944 444 l 1,17,-1
 412 444 l 1,18,19
 316 226 316 226 302.5 185.5 c 128,-1,20
 289 145 289 145 289 127 c 0,21,22
 289 91 289 91 322 72 c 128,-1,23
 355 53 355 53 446 47 c 1,24,-1
 446 0 l 1,25,-1
 20 0 l 1,26,-1
 20 47 l 1,27,28
 98 55 98 55 140.5 98.5 c 128,-1,29
 183 142 183 142 231 254 c 2,30,-1
 719 1386 l 1,31,-1
 756 1386 l 1,32,-1
 1217 291 l 2,33,34
 1271 161 1271 161 1315.5 106 c 128,-1,35
 1360 51 1360 51 1458 47 c 1,36,-1
 1458 0 l 1,37,-1
 1227 0 l 1,38,39
 1122 -105 1122 -105 1122 -197 c 0,40,41
 1122 -287 1122 -287 1221 -287 c 0,42,43
 1315 -287 1315 -287 1393 -223 c 1,44,-1
 1417 -256 l 1,45,3
 1318 -362 1318 -362 1174 -362 c 0,4,5
EndSplineSet
EndChar
StartChar: aogonek
Encoding: 261 261 252
Width: 909
Flags: W
Fore
504 -207 m 0,1,2
 504 -111 504 -111 637 -18 c 1,3,4
 578 12 578 12 578 121 c 1,5,6
 458 -29 458 -29 289 -29 c 0,7,8
 192 -29 192 -29 131 37.5 c 128,-1,9
 70 104 70 104 70 211 c 0,10,11
 70 336 70 336 180.5 426 c 128,-1,12
 291 516 291 516 578 596 c 1,13,14
 578 778 578 778 536.5 835.5 c 128,-1,15
 495 893 495 893 410 893 c 0,16,17
 354 893 354 893 314.5 864 c 128,-1,18
 275 835 275 835 264 786 c 0,19,20
 252 726 252 726 230 702 c 128,-1,21
 208 678 208 678 170 678 c 0,22,23
 94 678 94 678 94 768 c 0,24,25
 94 840 94 840 181.5 902.5 c 128,-1,26
 269 965 269 965 442 965 c 0,27,28
 591 965 591 965 666 900 c 128,-1,29
 741 835 741 835 741 705 c 2,30,-1
 741 219 l 2,31,32
 741 92 741 92 801 92 c 0,33,34
 835 92 835 92 879 125 c 1,35,-1
 901 92 l 1,36,37
 850 26 850 26 781 -6 c 128,-1,38
 712 -38 712 -38 680.5 -94 c 128,-1,39
 649 -150 649 -150 649 -197 c 0,40,41
 649 -287 649 -287 748 -287 c 0,42,43
 842 -287 842 -287 920 -223 c 1,44,-1
 944 -256 l 1,45,46
 845 -362 845 -362 700 -362 c 0,47,48
 613 -362 613 -362 558.5 -320.5 c 128,-1,0
 504 -279 504 -279 504 -207 c 0,1,2
578 209 m 1,49,-1
 578 526 l 1,50,51
 370 465 370 465 303 401 c 128,-1,52
 236 337 236 337 236 252 c 0,53,54
 236 175 236 175 273 130.5 c 128,-1,55
 310 86 310 86 375 86 c 0,56,57
 482 86 482 86 578 209 c 1,49,-1
EndSplineSet
EndChar
StartChar: dcroat
Encoding: 273 273 260
Width: 1024
Flags: W
Fore
1018 72 m 1,0,-1
 764 -25 l 1,1,-1
 729 -25 l 1,2,-1
 709 109 l 1,3,4
 560 -29 560 -29 422 -29 c 0,5,6
 261 -29 261 -29 166.5 107 c 128,-1,7
 72 243 72 243 72 432 c 0,8,9
 72 646 72 646 201 805.5 c 128,-1,10
 330 965 330 965 514 965 c 0,11,12
 605 965 605 965 709 936 c 1,13,-1
 709 1106 l 1,14,-1
 481 1106 l 1,15,-1
 481 1180 l 1,16,-1
 709 1180 l 1,17,18
 709 1240 709 1240 690.5 1261 c 128,-1,19
 672 1282 672 1282 621 1282 c 2,20,-1
 563 1282 l 1,21,-1
 563 1325 l 1,22,-1
 838 1421 l 1,23,-1
 872 1421 l 1,24,-1
 872 1180 l 1,25,-1
 1051 1180 l 1,26,-1
 1051 1106 l 1,27,-1
 872 1106 l 1,28,-1
 872 217 l 2,29,30
 872 157 872 157 890.5 136 c 128,-1,31
 909 115 909 115 961 115 c 2,32,-1
 1018 115 l 1,33,-1
 1018 72 l 1,0,-1
709 174 m 1,34,-1
 709 831 l 1,35,36
 618 893 618 893 512 893 c 0,37,38
 385 893 385 893 314.5 784.5 c 128,-1,39
 244 676 244 676 244 489 c 0,40,41
 244 318 244 318 315 205 c 128,-1,42
 386 92 386 92 512 92 c 0,43,44
 605 92 605 92 709 174 c 1,34,-1
EndSplineSet
EndChar
StartChar: Eogonek
Encoding: 280 280 261
Width: 1251
Flags: W
Fore
885 0 m 1,0,-1
 51 0 l 1,1,-1
 51 47 l 1,2,3
 148 47 148 47 187 64 c 128,-1,4
 226 81 226 81 235 120.5 c 128,-1,5
 244 160 244 160 244 260 c 2,6,-1
 244 1096 l 2,7,8
 244 1196 244 1196 235 1235.5 c 128,-1,9
 226 1275 226 1275 187 1292 c 128,-1,10
 148 1309 148 1309 51 1309 c 1,11,-1
 51 1356 l 1,12,-1
 1110 1356 l 1,13,-1
 1110 1038 l 1,14,-1
 1059 1038 l 1,15,16
 1059 1175 1059 1175 1005 1228.5 c 128,-1,17
 951 1282 951 1282 782 1282 c 2,18,-1
 436 1282 l 1,19,-1
 436 745 l 1,20,-1
 707 745 l 2,21,22
 795 745 795 745 837.5 758 c 128,-1,23
 880 771 880 771 899 813 c 128,-1,24
 918 855 918 855 918 946 c 1,25,-1
 967 946 l 1,26,-1
 967 471 l 1,27,-1
 918 471 l 1,28,29
 918 602 918 602 877 637 c 128,-1,30
 836 672 836 672 707 672 c 2,31,-1
 436 672 l 1,32,-1
 436 176 l 2,33,34
 436 116 436 116 457 95 c 128,-1,35
 478 74 478 74 547 74 c 2,36,-1
 825 74 l 2,37,38
 963 74 963 74 1038.5 152.5 c 128,-1,39
 1114 231 1114 231 1114 373 c 1,40,-1
 1163 373 l 1,41,-1
 1163 0 l 1,42,-1
 973 0 l 1,43,44
 868 -105 868 -105 868 -197 c 0,45,46
 868 -287 868 -287 967 -287 c 0,47,48
 1061 -287 1061 -287 1139 -223 c 1,49,-1
 1163 -256 l 1,50,51
 1064 -362 1064 -362 920 -362 c 0,52,53
 832 -362 832 -362 777.5 -320.5 c 128,-1,54
 723 -279 723 -279 723 -207 c 0,55,56
 723 -100 723 -100 885 0 c 1,0,-1
EndSplineSet
EndChar
StartChar: eogonek
Encoding: 281 281 262
Width: 909
Flags: W
Fore
537 -27 m 1,0,1
 504 -31 504 -31 473 -31 c 0,2,3
 302 -31 302 -31 187 109.5 c 128,-1,4
 72 250 72 250 72 461 c 0,5,6
 72 682 72 682 187 823.5 c 128,-1,7
 302 965 302 965 479 965 c 0,8,9
 641 965 641 965 745.5 843.5 c 128,-1,10
 850 722 850 722 850 530 c 1,11,-1
 231 530 l 1,12,13
 231 344 231 344 312 226.5 c 128,-1,14
 393 109 393 109 537 109 c 0,15,16
 708 109 708 109 823 264 c 1,17,-1
 858 227 l 1,18,19
 799 123 799 123 682 18 c 0,20,21
 561 -90 561 -90 561 -197 c 0,22,23
 561 -287 561 -287 659 -287 c 0,24,25
 754 -287 754 -287 831 -223 c 1,26,-1
 856 -256 l 1,27,28
 757 -362 757 -362 612 -362 c 0,29,30
 525 -362 525 -362 470.5 -320.5 c 128,-1,31
 416 -279 416 -279 416 -207 c 0,32,33
 416 -118 416 -118 537 -27 c 1,0,1
651 602 m 1,34,35
 651 735 651 735 601.5 814 c 128,-1,36
 552 893 552 893 467 893 c 0,37,38
 376 893 376 893 313.5 814.5 c 128,-1,39
 251 736 251 736 236 602 c 1,40,-1
 651 602 l 1,34,35
EndSplineSet
EndChar
StartChar: glyph296
Encoding: 65541 -1 295
Width: 569
Flags: W
Fore
155 -387 m 1,0,1
 234 -387 234 -387 276.5 -366 c 128,-1,2
 319 -345 319 -345 319 -315 c 0,3,4
 319 -298 319 -298 305 -292.5 c 128,-1,5
 291 -287 291 -287 249 -283 c 0,6,7
 155 -274 155 -274 155 -197 c 0,8,9
 155 -162 155 -162 184 -139.5 c 128,-1,10
 213 -117 213 -117 260 -117 c 0,11,12
 325 -117 325 -117 369 -158.5 c 128,-1,13
 413 -200 413 -200 413 -262 c 0,14,15
 413 -440 413 -440 155 -440 c 1,16,-1
 155 -387 l 1,0,1
EndSplineSet
EndChar
StartChar: currency
Encoding: 164 164 296
Width: 1024
Flags: W
Fore
963 287 m 1,0,-1
 905 229 l 1,1,-1
 758 377 l 1,2,3
 648 291 648 291 512 291 c 0,4,5
 377 291 377 291 266 377 c 1,6,-1
 121 231 l 1,7,-1
 63 289 l 1,8,-1
 209 434 l 1,9,10
 123 544 123 544 123 680 c 0,11,12
 123 816 123 816 209 924 c 1,13,14
 211 924 211 924 61 1073 c 1,15,-1
 119 1130 l 1,16,-1
 266 983 l 1,17,18
 376 1069 376 1069 512 1069 c 0,19,20
 650 1069 650 1069 756 981 c 1,21,-1
 905 1130 l 1,22,-1
 963 1073 l 1,23,-1
 815 926 l 1,24,25
 901 816 901 816 901 680 c 0,26,27
 901 543 901 543 813 434 c 1,28,29
 813 436 813 436 963 287 c 1,0,-1
512 373 m 0,30,31
 639 373 639 373 729 463 c 128,-1,32
 819 553 819 553 819 680 c 0,33,34
 819 807 819 807 729 897 c 128,-1,35
 639 987 639 987 512 987 c 0,36,37
 385 987 385 987 295 897 c 128,-1,38
 205 807 205 807 205 680 c 0,39,40
 205 553 205 553 295 463 c 128,-1,41
 385 373 385 373 512 373 c 0,30,31
EndSplineSet
EndChar
StartChar: afii10051
Encoding: 1026 1026 298
Width: 1540
Flags: W
Fore
670 809 m 1,0,1
 915 965 915 965 1073 965 c 0,2,3
 1260 965 1260 965 1361 830 c 128,-1,4
 1462 695 1462 695 1462 463 c 0,5,6
 1462 269 1462 269 1402.5 160 c 128,-1,7
 1343 51 1343 51 1261 11 c 128,-1,8
 1179 -29 1179 -29 1096 -29 c 0,9,10
 1036 -29 1036 -29 975 -6 c 1,11,-1
 975 53 l 1,12,13
 1035 33 1035 33 1096 33 c 0,14,15
 1179 33 1179 33 1224.5 131 c 128,-1,16
 1270 229 1270 229 1270 424 c 0,17,18
 1270 850 1270 850 991 850 c 0,19,20
 841 850 841 850 670 721 c 1,21,-1
 670 260 l 2,22,23
 670 158 670 158 678.5 119.5 c 128,-1,24
 687 81 687 81 725.5 64 c 128,-1,25
 764 47 764 47 860 47 c 1,26,-1
 860 0 l 1,27,-1
 285 0 l 1,28,-1
 285 47 l 1,29,30
 380 47 380 47 419 64 c 128,-1,31
 458 81 458 81 466.5 119.5 c 128,-1,32
 475 158 475 158 475 260 c 2,33,-1
 475 1280 l 1,34,-1
 350 1280 l 2,35,36
 251 1280 251 1280 191.5 1229 c 128,-1,37
 132 1178 132 1178 106 1051 c 1,38,-1
 55 1051 l 1,39,-1
 55 1356 l 1,40,-1
 1102 1356 l 1,41,-1
 1102 1051 l 1,42,-1
 1051 1051 l 1,43,44
 1026 1178 1026 1178 966.5 1229 c 128,-1,45
 907 1280 907 1280 807 1280 c 2,46,-1
 670 1280 l 1,47,-1
 670 809 l 1,0,1
EndSplineSet
EndChar
StartChar: afii10053
Encoding: 1028 1028 300
Width: 1352
Flags: W
Fore
1288 246 m 1,0,1
 1088 -31 1088 -31 727 -31 c 0,2,3
 439 -31 439 -31 255.5 169.5 c 128,-1,4
 72 370 72 370 72 678 c 0,5,6
 72 982 72 982 267.5 1183 c 128,-1,7
 463 1384 463 1384 764 1384 c 0,8,9
 875 1384 875 1384 1059 1344 c 0,10,11
 1119 1331 1119 1331 1130 1331 c 0,12,13
 1172 1331 1172 1331 1182 1386 c 1,14,-1
 1227 1386 l 1,15,-1
 1227 975 l 1,16,-1
 1186 975 l 1,17,18
 1147 1141 1147 1141 1039 1228 c 128,-1,19
 931 1315 931 1315 772 1315 c 0,20,21
 569 1315 569 1315 438.5 1166 c 128,-1,22
 308 1017 308 1017 295 731 c 1,23,-1
 584 731 l 2,24,25
 706 731 706 731 738 764 c 128,-1,26
 770 797 770 797 770 932 c 1,27,-1
 842 932 l 1,28,-1
 842 457 l 1,29,-1
 770 457 l 1,30,31
 770 591 770 591 738.5 624 c 128,-1,32
 707 657 707 657 584 657 c 2,33,-1
 293 657 l 1,34,35
 302 379 302 379 448.5 234.5 c 128,-1,36
 595 90 595 90 805 90 c 0,37,38
 1071 90 1071 90 1257 276 c 1,39,-1
 1288 246 l 1,0,1
EndSplineSet
EndChar
StartChar: afii10058
Encoding: 1033 1033 305
Width: 1786
Flags: W
Fore
1040 737 m 1,0,-1
 1143 737 l 2,1,2
 1425 737 1425 737 1570.5 646 c 128,-1,3
 1716 555 1716 555 1716 379 c 0,4,5
 1716 209 1716 209 1579.5 104.5 c 128,-1,6
 1443 0 1443 0 1190 0 c 2,7,-1
 657 0 l 1,8,-1
 657 45 l 1,9,10
 754 45 754 45 793 62 c 128,-1,11
 832 79 832 79 841 119 c 128,-1,12
 850 159 850 159 850 260 c 2,13,-1
 850 1280 l 1,14,-1
 348 274 l 2,15,16
 299 180 299 180 299 127 c 0,17,18
 299 91 299 91 332 72 c 128,-1,19
 365 53 365 53 457 47 c 1,20,-1
 457 0 l 1,21,-1
 31 0 l 1,22,-1
 31 47 l 1,23,24
 77 49 77 49 129 91 c 128,-1,25
 181 133 181 133 244 258 c 2,26,-1
 758 1286 l 1,27,-1
 575 1288 l 1,28,-1
 575 1356 l 1,29,-1
 1040 1356 l 1,30,-1
 1040 737 l 1,0,-1
1040 96 m 1,31,32
 1100 70 1100 70 1169 70 c 0,33,34
 1312 70 1312 70 1399.5 143.5 c 128,-1,35
 1487 217 1487 217 1487 354 c 0,36,37
 1487 500 1487 500 1401.5 577.5 c 128,-1,38
 1316 655 1316 655 1118 655 c 2,39,-1
 1040 655 l 1,40,-1
 1040 96 l 1,31,32
EndSplineSet
KernsSLIFO: 182 -102 1 0
EndChar
StartChar: afii10059
Encoding: 1034 1034 306
Width: 1786
Flags: W
Fore
1090 737 m 1,0,-1
 1167 737 l 2,1,2
 1435 737 1435 737 1576.5 646 c 128,-1,3
 1718 555 1718 555 1718 377 c 0,4,5
 1718 196 1718 196 1586.5 98 c 128,-1,6
 1455 0 1455 0 1235 0 c 2,7,-1
 729 0 l 1,8,-1
 729 47 l 1,9,10
 811 47 811 47 845.5 65 c 128,-1,11
 880 83 880 83 888.5 123.5 c 128,-1,12
 897 164 897 164 897 260 c 2,13,-1
 897 655 l 1,14,-1
 436 655 l 1,15,-1
 436 260 l 2,16,17
 436 164 436 164 444.5 123.5 c 128,-1,18
 453 83 453 83 487.5 65 c 128,-1,19
 522 47 522 47 604 47 c 1,20,-1
 604 0 l 1,21,-1
 51 0 l 1,22,-1
 51 47 l 1,23,24
 148 47 148 47 187 64 c 128,-1,25
 226 81 226 81 235 120.5 c 128,-1,26
 244 160 244 160 244 260 c 2,27,-1
 244 1096 l 2,28,29
 244 1196 244 1196 235 1235.5 c 128,-1,30
 226 1275 226 1275 187 1292 c 128,-1,31
 148 1309 148 1309 51 1309 c 1,32,-1
 51 1356 l 1,33,-1
 604 1356 l 1,34,-1
 604 1309 l 1,35,36
 522 1309 522 1309 487.5 1291 c 128,-1,37
 453 1273 453 1273 444.5 1232.5 c 128,-1,38
 436 1192 436 1192 436 1096 c 2,39,-1
 436 737 l 1,40,-1
 897 737 l 1,41,-1
 897 1096 l 2,42,43
 897 1192 897 1192 888.5 1232.5 c 128,-1,44
 880 1273 880 1273 845.5 1291 c 128,-1,45
 811 1309 811 1309 729 1309 c 1,46,-1
 729 1356 l 1,47,-1
 1282 1356 l 1,48,-1
 1282 1309 l 1,49,50
 1186 1309 1186 1309 1146.5 1292 c 128,-1,51
 1107 1275 1107 1275 1098.5 1235.5 c 128,-1,52
 1090 1196 1090 1196 1090 1096 c 2,53,-1
 1090 737 l 1,0,-1
1090 98 m 1,54,55
 1138 70 1138 70 1214 70 c 0,56,57
 1347 70 1347 70 1418 142 c 128,-1,58
 1489 214 1489 214 1489 354 c 0,59,60
 1489 524 1489 524 1407 589.5 c 128,-1,61
 1325 655 1325 655 1184 655 c 2,62,-1
 1090 655 l 1,63,-1
 1090 98 l 1,54,55
EndSplineSet
KernsSLIFO: 182 -102 1 0
EndChar
StartChar: afii10060
Encoding: 1035 1035 307
Width: 1518
Flags: W
Fore
1493 0 m 1,0,-1
 969 0 l 1,1,-1
 969 47 l 1,2,3
 1049 47 1049 47 1082.5 64 c 128,-1,4
 1116 81 1116 81 1124.5 121 c 128,-1,5
 1133 161 1133 161 1133 260 c 2,6,-1
 1133 586 l 2,7,8
 1133 733 1133 733 1093.5 781 c 128,-1,9
 1054 829 1054 829 979 829 c 0,10,11
 859 829 859 829 670 668 c 1,12,-1
 670 260 l 2,13,14
 670 157 670 157 678.5 118.5 c 128,-1,15
 687 80 687 80 725.5 63.5 c 128,-1,16
 764 47 764 47 860 47 c 1,17,-1
 860 0 l 1,18,-1
 285 0 l 1,19,-1
 285 47 l 1,20,21
 380 47 380 47 419 64 c 128,-1,22
 458 81 458 81 466.5 119.5 c 128,-1,23
 475 158 475 158 475 260 c 2,24,-1
 475 1280 l 1,25,-1
 350 1280 l 2,26,27
 251 1280 251 1280 191.5 1229 c 128,-1,28
 132 1178 132 1178 106 1051 c 1,29,-1
 55 1051 l 1,30,-1
 55 1356 l 1,31,-1
 1102 1356 l 1,32,-1
 1102 1051 l 1,33,-1
 1051 1051 l 1,34,35
 1028 1177 1028 1177 968.5 1228.5 c 128,-1,36
 909 1280 909 1280 809 1280 c 2,37,-1
 670 1280 l 1,38,-1
 670 766 l 1,39,40
 909 944 909 944 1067 944 c 0,41,42
 1194 944 1194 944 1259.5 864 c 128,-1,43
 1325 784 1325 784 1325 635 c 2,44,-1
 1325 260 l 2,45,46
 1325 163 1325 163 1334.5 122 c 128,-1,47
 1344 81 1344 81 1378 64 c 128,-1,48
 1412 47 1412 47 1493 47 c 1,49,-1
 1493 0 l 1,0,-1
EndSplineSet
EndChar
StartChar: afii10062
Encoding: 1038 1038 309
Width: 1450
Flags: W
Fore
1415 1309 m 1,0,1
 1352 1309 1352 1309 1300 1272.5 c 128,-1,2
 1248 1236 1248 1236 1184 1108 c 2,3,-1
 756 250 l 2,4,5
 675 87 675 87 598.5 28 c 128,-1,6
 522 -31 522 -31 401 -31 c 0,7,8
 338 -31 338 -31 294 -4 c 128,-1,9
 250 23 250 23 250 72 c 0,10,11
 250 105 250 105 273.5 128.5 c 128,-1,12
 297 152 297 152 334 152 c 0,13,14
 360 152 360 152 409 124 c 0,15,16
 454 98 454 98 477 98 c 0,17,18
 528 98 528 98 574.5 129.5 c 128,-1,19
 621 161 621 161 674 279 c 1,20,-1
 254 1122 l 2,21,22
 203 1222 203 1222 157.5 1261.5 c 128,-1,23
 112 1301 112 1301 27 1309 c 1,24,-1
 27 1356 l 1,25,-1
 586 1356 l 1,26,-1
 586 1309 l 1,27,28
 434 1309 434 1309 434 1231 c 0,29,30
 434 1203 434 1203 464 1141 c 2,31,-1
 782 483 l 1,32,33
 1062 1046 1062 1046 1091 1110.5 c 128,-1,34
 1120 1175 1120 1175 1120 1210 c 0,35,36
 1120 1265 1120 1265 1091 1287 c 128,-1,37
 1062 1309 1062 1309 989 1309 c 1,38,-1
 989 1356 l 1,39,-1
 1415 1356 l 1,40,-1
 1415 1309 l 1,0,1
1073 1804 m 0,41,42
 1103 1804 1103 1804 1126 1778 c 128,-1,43
 1149 1752 1149 1752 1149 1716 c 0,44,45
 1149 1623 1149 1623 1050.5 1561 c 128,-1,46
 952 1499 952 1499 764 1499 c 0,47,48
 583 1499 583 1499 482 1559.5 c 128,-1,49
 381 1620 381 1620 381 1716 c 0,50,51
 381 1752 381 1752 403 1778 c 128,-1,52
 425 1804 425 1804 457 1804 c 0,53,54
 486 1804 486 1804 511 1781.5 c 128,-1,55
 536 1759 536 1759 567 1693 c 0,56,57
 614 1594 614 1594 661 1568 c 128,-1,58
 708 1542 708 1542 764 1542 c 0,59,60
 820 1542 820 1542 867.5 1568.5 c 128,-1,61
 915 1595 915 1595 960 1691 c 0,62,63
 994 1765 994 1765 1019.5 1784.5 c 128,-1,64
 1045 1804 1045 1804 1073 1804 c 0,41,42
EndSplineSet
EndChar
StartChar: afii10145
Encoding: 1039 1039 310
Width: 1479
Flags: W
Fore
1427 0 m 1,0,-1
 981 0 l 2,1,2
 829 0 829 0 798.5 -82.5 c 128,-1,3
 768 -165 768 -165 768 -315 c 1,4,-1
 702 -315 l 1,5,6
 702 -165 702 -165 673 -82.5 c 128,-1,7
 644 0 644 0 489 0 c 2,8,-1
 51 0 l 1,9,-1
 51 47 l 1,10,11
 148 47 148 47 187 64 c 128,-1,12
 226 81 226 81 235 120.5 c 128,-1,13
 244 160 244 160 244 260 c 2,14,-1
 244 1096 l 2,15,16
 244 1196 244 1196 235 1235.5 c 128,-1,17
 226 1275 226 1275 187 1292 c 128,-1,18
 148 1309 148 1309 51 1309 c 1,19,-1
 51 1356 l 1,20,-1
 629 1356 l 1,21,-1
 629 1309 l 1,22,23
 532 1309 532 1309 493.5 1293 c 128,-1,24
 455 1277 455 1277 445.5 1237.5 c 128,-1,25
 436 1198 436 1198 436 1096 c 2,26,-1
 436 74 l 1,27,-1
 1042 74 l 1,28,-1
 1042 1096 l 2,29,30
 1042 1197 1042 1197 1032 1237.5 c 128,-1,31
 1022 1278 1022 1278 983.5 1293.5 c 128,-1,32
 945 1309 945 1309 850 1309 c 1,33,-1
 850 1356 l 1,34,-1
 1427 1356 l 1,35,-1
 1427 1309 l 1,36,37
 1331 1309 1331 1309 1292 1292 c 128,-1,38
 1253 1275 1253 1275 1244 1235.5 c 128,-1,39
 1235 1196 1235 1196 1235 1096 c 2,40,-1
 1235 260 l 2,41,42
 1235 160 1235 160 1244 120.5 c 128,-1,43
 1253 81 1253 81 1292 64 c 128,-1,44
 1331 47 1331 47 1427 47 c 1,45,-1
 1427 0 l 1,0,-1
EndSplineSet
EndChar
StartChar: afii10018
Encoding: 1041 1041 312
Width: 1176
Flags: W
Fore
436 735 m 1,0,-1
 512 735 l 2,1,2
 1110 735 1110 735 1110 377 c 0,3,4
 1110 272 1110 272 1052.5 184.5 c 128,-1,5
 995 97 995 97 878.5 48.5 c 128,-1,6
 762 0 762 0 588 0 c 2,7,-1
 51 0 l 1,8,-1
 51 47 l 1,9,10
 148 47 148 47 187 64 c 128,-1,11
 226 81 226 81 235 120.5 c 128,-1,12
 244 160 244 160 244 260 c 2,13,-1
 244 1096 l 2,14,15
 244 1196 244 1196 235 1235.5 c 128,-1,16
 226 1275 226 1275 187 1292 c 128,-1,17
 148 1309 148 1309 51 1309 c 1,18,-1
 51 1356 l 1,19,-1
 1018 1356 l 1,20,-1
 1018 1053 l 1,21,-1
 965 1053 l 1,22,23
 965 1185 965 1185 924 1233.5 c 128,-1,24
 883 1282 883 1282 750 1282 c 2,25,-1
 436 1282 l 1,26,-1
 436 735 l 1,0,-1
436 98 m 1,27,28
 505 70 505 70 569 70 c 0,29,30
 709 70 709 70 795 143.5 c 128,-1,31
 881 217 881 217 881 354 c 0,32,33
 881 508 881 508 790.5 582.5 c 128,-1,34
 700 657 700 657 492 657 c 2,35,-1
 436 657 l 1,36,-1
 436 98 l 1,27,28
EndSplineSet
KernsSLIFO: 362 -51 1 0 354 -27 1 0 347 -51 1 0 342 -68 1 0 337 -78 1 0 334 -102 1 0 332 -51 1 0 331 -31 1 0 330 -72 1 0 329 -27 1 0 328 -14 1 0 325 -14 1 0 322 -51 1 0 317 -51 1 0 315 -78 1 0 311 -27 1 0
EndChar
StartChar: afii10020
Encoding: 1043 1043 314
Width: 1184
Flags: W
Fore
1128 944 m 1,0,-1
 1075 944 l 1,1,2
 1075 1123 1075 1123 1011 1202.5 c 128,-1,3
 947 1282 947 1282 807 1282 c 2,4,-1
 436 1282 l 1,5,-1
 436 258 l 2,6,7
 436 160 436 160 447 120.5 c 128,-1,8
 458 81 458 81 504.5 64 c 128,-1,9
 551 47 551 47 664 47 c 1,10,-1
 664 0 l 1,11,-1
 51 0 l 1,12,-1
 51 47 l 1,13,14
 148 47 148 47 187 64 c 128,-1,15
 226 81 226 81 235 120.5 c 128,-1,16
 244 160 244 160 244 260 c 2,17,-1
 244 1096 l 2,18,19
 244 1196 244 1196 235 1235.5 c 128,-1,20
 226 1275 226 1275 187 1292 c 128,-1,21
 148 1309 148 1309 51 1309 c 1,22,-1
 51 1356 l 1,23,-1
 1128 1356 l 1,24,-1
 1128 944 l 1,0,-1
EndSplineSet
KernsSLIFO: 374 -154 1 0 373 -102 1 0 371 -129 1 0 370 -129 1 0 362 -78 1 0 359 -129 1 0 357 -180 1 0 356 -78 1 0 355 -78 1 0 354 -154 1 0 351 -78 1 0 348 -156 1 0 347 -154 1 0 345 -78 1 0 343 -51 1 0 342 -154 1 0 328 -27 1 0 325 -51 1 0 323 -27 1 0 322 -154 1 0 318 51 1 0 315 -180 1 0 311 -223 1 0 178 -51 1 0 169 -51 1 0 168 -129 1 0 17 -231 1 0 15 -231 1 0
EndChar
StartChar: afii10021
Encoding: 1044 1044 315
Width: 1397
Flags: W
Fore
1356 -315 m 1,0,-1
 1313 -315 l 1,1,2
 1291 -149 1291 -149 1219.5 -74.5 c 128,-1,3
 1148 0 1148 0 987 0 c 2,4,-1
 393 0 l 2,5,6
 232 0 232 0 162.5 -74.5 c 128,-1,7
 93 -149 93 -149 70 -315 c 1,8,-1
 29 -315 l 1,9,-1
 29 47 l 1,10,11
 141 47 141 47 188 172 c 2,12,-1
 651 1382 l 1,13,-1
 694 1382 l 1,14,-1
 1161 180 l 2,15,16
 1192 101 1192 101 1229 74 c 128,-1,17
 1266 47 1266 47 1356 47 c 1,18,-1
 1356 -315 l 1,0,-1
1004 74 m 1,19,-1
 635 1055 l 1,20,-1
 260 74 l 1,21,-1
 1004 74 l 1,19,-1
EndSplineSet
KernsSLIFO: 350 51 1 0 348 25 1 0 340 51 1 0 330 25 1 0 318 51 1 0
EndChar
StartChar: afii10024
Encoding: 1046 1046 317
Width: 1835
Flags: W
Fore
1792 0 m 1,0,1
 1718 -20 1718 -20 1624 -20 c 0,2,3
 1556 -20 1556 -20 1493 29 c 128,-1,4
 1430 78 1430 78 1302 317 c 0,5,6
 1165 570 1165 570 1130 613.5 c 128,-1,7
 1095 657 1095 657 1036 657 c 2,8,-1
 1014 657 l 1,9,-1
 1014 260 l 2,10,11
 1014 166 1014 166 1026.5 124 c 128,-1,12
 1039 82 1039 82 1082 64.5 c 128,-1,13
 1125 47 1125 47 1223 47 c 1,14,-1
 1223 0 l 1,15,-1
 612 0 l 1,16,-1
 612 47 l 1,17,18
 710 47 710 47 753 64.5 c 128,-1,19
 796 82 796 82 808.5 124 c 128,-1,20
 821 166 821 166 821 260 c 2,21,-1
 821 657 l 1,22,-1
 797 657 l 2,23,24
 744 657 744 657 710.5 621 c 128,-1,25
 677 585 677 585 594 433 c 0,26,27
 458 183 458 183 426 129 c 128,-1,28
 394 75 394 75 339.5 27.5 c 128,-1,29
 285 -20 285 -20 211 -20 c 0,30,31
 115 -20 115 -20 41 0 c 1,32,-1
 41 47 l 1,33,34
 76 49 76 49 100 49 c 0,35,36
 148 49 148 49 204 109 c 128,-1,37
 260 169 260 169 406 443 c 0,38,39
 481 585 481 585 529 647 c 128,-1,40
 577 709 577 709 637 721 c 1,41,42
 571 741 571 741 529.5 811.5 c 128,-1,43
 488 882 488 882 424 1058 c 0,44,45
 387 1159 387 1159 359 1194 c 128,-1,46
 331 1229 331 1229 295 1229 c 0,47,48
 279 1229 279 1229 244 1204 c 0,49,50
 202 1176 202 1176 180 1176 c 0,51,52
 137 1176 137 1176 112.5 1197.5 c 128,-1,53
 88 1219 88 1219 88 1255 c 0,54,55
 88 1302 88 1302 131 1329 c 128,-1,56
 174 1356 174 1356 221 1356 c 0,57,58
 270 1356 270 1356 311.5 1344.5 c 128,-1,59
 353 1333 353 1333 390 1301.5 c 128,-1,60
 427 1270 427 1270 446.5 1228 c 128,-1,61
 466 1186 466 1186 503 1082 c 0,62,63
 564 911 564 911 594.5 857 c 128,-1,64
 625 803 625 803 672 776.5 c 128,-1,65
 719 750 719 750 821 741 c 1,66,-1
 821 1096 l 2,67,68
 821 1196 821 1196 812 1235.5 c 128,-1,69
 803 1275 803 1275 764 1292 c 128,-1,70
 725 1309 725 1309 629 1309 c 1,71,-1
 629 1356 l 1,72,-1
 1206 1356 l 1,73,-1
 1206 1309 l 1,74,75
 1110 1309 1110 1309 1071 1292 c 128,-1,76
 1032 1275 1032 1275 1023 1235.5 c 128,-1,77
 1014 1196 1014 1196 1014 1096 c 2,78,-1
 1014 741 l 1,79,80
 1116 751 1116 751 1163 778 c 128,-1,81
 1210 805 1210 805 1240.5 860 c 128,-1,82
 1271 915 1271 915 1327 1076 c 0,83,84
 1361 1172 1361 1172 1379.5 1213.5 c 128,-1,85
 1398 1255 1398 1255 1436 1290 c 128,-1,86
 1474 1325 1474 1325 1519 1340.5 c 128,-1,87
 1564 1356 1564 1356 1612 1356 c 0,88,89
 1661 1356 1661 1356 1703 1328 c 128,-1,90
 1745 1300 1745 1300 1745 1255 c 0,91,92
 1745 1219 1745 1219 1720.5 1197.5 c 128,-1,93
 1696 1176 1696 1176 1653 1176 c 0,94,95
 1631 1176 1631 1176 1591 1204 c 0,96,97
 1555 1229 1555 1229 1538 1229 c 0,98,99
 1502 1229 1502 1229 1475 1192.5 c 128,-1,100
 1448 1156 1448 1156 1412 1062 c 0,101,102
 1327 833 1327 833 1283 781.5 c 128,-1,103
 1239 730 1239 730 1196 721 c 1,104,105
 1257 709 1257 709 1306.5 645 c 128,-1,106
 1356 581 1356 581 1436 430 c 0,107,108
 1577 164 1577 164 1631.5 106.5 c 128,-1,109
 1686 49 1686 49 1733 49 c 0,110,111
 1759 49 1759 49 1792 47 c 1,112,-1
 1792 0 l 1,0,1
EndSplineSet
KernsSLIFO: 362 -100 1 0 357 -104 1 0 348 -104 1 0 344 -102 1 0 343 -51 1 0 337 -20 1 0 330 -29 1 0 329 -35 1 0 328 -51 1 0 325 -51 1 0 318 -51 1 0
EndChar
StartChar: afii10025
Encoding: 1047 1047 318
Width: 1026
Flags: W
Fore
567 711 m 1,0,1
 741 693 741 693 840.5 600 c 128,-1,2
 940 507 940 507 940 371 c 0,3,4
 940 196 940 196 807.5 82.5 c 128,-1,5
 675 -31 675 -31 469 -31 c 0,6,7
 337 -31 337 -31 224 34.5 c 128,-1,8
 111 100 111 100 41 215 c 1,9,-1
 86 248 l 1,10,11
 213 76 213 76 434 76 c 0,12,13
 576 76 576 76 657.5 150.5 c 128,-1,14
 739 225 739 225 739 354 c 0,15,16
 739 513 739 513 626.5 592.5 c 128,-1,17
 514 672 514 672 313 672 c 1,18,-1
 313 737 l 1,19,20
 519 737 519 737 627 817 c 128,-1,21
 735 897 735 897 735 1049 c 0,22,23
 735 1157 735 1157 661 1236 c 128,-1,24
 587 1315 587 1315 469 1315 c 0,25,26
 337 1315 337 1315 249 1232 c 128,-1,27
 161 1149 161 1149 133 991 c 1,28,-1
 86 991 l 1,29,-1
 86 1386 l 1,30,-1
 131 1386 l 1,31,32
 141 1331 141 1331 182 1331 c 0,33,34
 198 1331 198 1331 260 1346 c 0,35,36
 424 1386 424 1386 537 1386 c 0,37,38
 704 1386 704 1386 809.5 1288 c 128,-1,39
 915 1190 915 1190 915 1051 c 0,40,41
 915 926 915 926 821 830.5 c 128,-1,42
 727 735 727 735 567 711 c 1,0,1
EndSplineSet
KernsSLIFO: 354 -27 1 0 347 -51 1 0 342 -78 1 0 334 -78 1 0 330 -51 1 0 322 -90 1 0 317 -27 1 0 315 -125 1 0
EndChar
StartChar: afii10026
Encoding: 1048 1048 319
Width: 1479
Flags: W
Fore
1427 0 m 1,0,-1
 850 0 l 1,1,-1
 850 47 l 1,2,3
 946 47 946 47 985.5 64 c 128,-1,4
 1025 81 1025 81 1033.5 120.5 c 128,-1,5
 1042 160 1042 160 1042 260 c 2,6,-1
 1042 1190 l 1,7,-1
 436 0 l 1,8,-1
 51 0 l 1,9,-1
 51 47 l 1,10,11
 148 47 148 47 187 64 c 128,-1,12
 226 81 226 81 235 120.5 c 128,-1,13
 244 160 244 160 244 260 c 2,14,-1
 244 1096 l 2,15,16
 244 1196 244 1196 235 1235.5 c 128,-1,17
 226 1275 226 1275 187 1292 c 128,-1,18
 148 1309 148 1309 51 1309 c 1,19,-1
 51 1356 l 1,20,-1
 629 1356 l 1,21,-1
 629 1309 l 1,22,23
 532 1309 532 1309 493 1292 c 128,-1,24
 454 1275 454 1275 445 1235.5 c 128,-1,25
 436 1196 436 1196 436 1096 c 2,26,-1
 436 170 l 1,27,-1
 1042 1356 l 1,28,-1
 1427 1356 l 1,29,-1
 1427 1309 l 1,30,31
 1331 1309 1331 1309 1292 1292 c 128,-1,32
 1253 1275 1253 1275 1244 1235.5 c 128,-1,33
 1235 1196 1235 1196 1235 1096 c 2,34,-1
 1235 260 l 2,35,36
 1235 160 1235 160 1244 120.5 c 128,-1,37
 1253 81 1253 81 1292 64 c 128,-1,38
 1331 47 1331 47 1427 47 c 1,39,-1
 1427 0 l 1,0,-1
EndSplineSet
EndChar
StartChar: afii10027
Encoding: 1049 1049 320
Width: 1479
Flags: W
Fore
1427 0 m 1,0,-1
 850 0 l 1,1,-1
 850 47 l 1,2,3
 946 47 946 47 985.5 64 c 128,-1,4
 1025 81 1025 81 1033.5 120.5 c 128,-1,5
 1042 160 1042 160 1042 260 c 2,6,-1
 1042 1190 l 1,7,-1
 436 0 l 1,8,-1
 51 0 l 1,9,-1
 51 47 l 1,10,11
 148 47 148 47 187 64 c 128,-1,12
 226 81 226 81 235 120.5 c 128,-1,13
 244 160 244 160 244 260 c 2,14,-1
 244 1096 l 2,15,16
 244 1196 244 1196 235 1235.5 c 128,-1,17
 226 1275 226 1275 187 1292 c 128,-1,18
 148 1309 148 1309 51 1309 c 1,19,-1
 51 1356 l 1,20,-1
 629 1356 l 1,21,-1
 629 1309 l 1,22,23
 532 1309 532 1309 493 1292 c 128,-1,24
 454 1275 454 1275 445 1235.5 c 128,-1,25
 436 1196 436 1196 436 1096 c 2,26,-1
 436 170 l 1,27,-1
 1042 1356 l 1,28,-1
 1427 1356 l 1,29,-1
 1427 1309 l 1,30,31
 1331 1309 1331 1309 1292 1292 c 128,-1,32
 1253 1275 1253 1275 1244 1235.5 c 128,-1,33
 1235 1196 1235 1196 1235 1096 c 2,34,-1
 1235 260 l 2,35,36
 1235 160 1235 160 1244 120.5 c 128,-1,37
 1253 81 1253 81 1292 64 c 128,-1,38
 1331 47 1331 47 1427 47 c 1,39,-1
 1427 0 l 1,0,-1
1047 1804 m 0,40,41
 1076 1804 1076 1804 1098 1778 c 128,-1,42
 1120 1752 1120 1752 1120 1716 c 0,43,44
 1120 1620 1120 1620 1019 1559.5 c 128,-1,45
 918 1499 918 1499 735 1499 c 0,46,47
 554 1499 554 1499 453 1559.5 c 128,-1,48
 352 1620 352 1620 352 1716 c 0,49,50
 352 1752 352 1752 374 1778 c 128,-1,51
 396 1804 396 1804 428 1804 c 0,52,53
 489 1804 489 1804 542 1690 c 0,54,55
 587 1593 587 1593 634 1567.5 c 128,-1,56
 681 1542 681 1542 735 1542 c 0,57,58
 792 1542 792 1542 840.5 1569 c 128,-1,59
 889 1596 889 1596 934 1694 c 0,60,61
 967 1765 967 1765 992.5 1784.5 c 128,-1,62
 1018 1804 1018 1804 1047 1804 c 0,40,41
EndSplineSet
EndChar
StartChar: afii10028
Encoding: 1050 1050 321
Width: 1366
Flags: W
Fore
1356 0 m 1,0,1
 1262 -20 1262 -20 1163 -20 c 0,2,3
 1086 -20 1086 -20 1027.5 17 c 128,-1,4
 969 54 969 54 921.5 115.5 c 128,-1,5
 874 177 874 177 796 298 c 0,6,7
 616 577 616 577 575 627.5 c 128,-1,8
 534 678 534 678 467 678 c 2,9,-1
 436 678 l 1,10,-1
 436 260 l 2,11,12
 436 166 436 166 449 124 c 128,-1,13
 462 82 462 82 505 64.5 c 128,-1,14
 548 47 548 47 645 47 c 1,15,-1
 645 0 l 1,16,-1
 51 0 l 1,17,-1
 51 47 l 1,18,19
 148 47 148 47 187 64 c 128,-1,20
 226 81 226 81 235 120.5 c 128,-1,21
 244 160 244 160 244 260 c 2,22,-1
 244 1096 l 2,23,24
 244 1196 244 1196 235 1235.5 c 128,-1,25
 226 1275 226 1275 187 1292 c 128,-1,26
 148 1309 148 1309 51 1309 c 1,27,-1
 51 1356 l 1,28,-1
 629 1356 l 1,29,-1
 629 1309 l 1,30,31
 532 1309 532 1309 493 1292 c 128,-1,32
 454 1275 454 1275 445 1235.5 c 128,-1,33
 436 1196 436 1196 436 1096 c 2,34,-1
 436 762 l 1,35,36
 529 764 529 764 591 813 c 128,-1,37
 653 862 653 862 799 1087 c 0,38,39
 889 1223 889 1223 925.5 1263.5 c 128,-1,40
 962 1304 962 1304 1021.5 1330 c 128,-1,41
 1081 1356 1081 1356 1145 1356 c 0,42,43
 1195 1356 1195 1356 1235.5 1328 c 128,-1,44
 1276 1300 1276 1300 1276 1255 c 0,45,46
 1276 1222 1276 1222 1252.5 1199 c 128,-1,47
 1229 1176 1229 1176 1192 1176 c 0,48,49
 1168 1176 1168 1176 1125 1202 c 0,50,51
 1082 1229 1082 1229 1059 1229 c 0,52,53
 1020 1229 1020 1229 988 1196 c 128,-1,54
 956 1163 956 1163 875 1041 c 0,55,56
 757 865 757 865 706 814 c 128,-1,57
 655 763 655 763 621 754 c 1,58,59
 707 745 707 745 773 669.5 c 128,-1,60
 839 594 839 594 951 411 c 0,61,62
 1102 165 1102 165 1166 104 c 128,-1,63
 1230 43 1230 43 1282 43 c 0,64,65
 1333 43 1333 43 1356 47 c 1,66,-1
 1356 0 l 1,0,1
EndSplineSet
KernsSLIFO: 372 -27 1 0 362 -154 1 0 361 -78 1 0 360 -51 1 0 357 -102 1 0 350 -27 1 0 348 -78 1 0 343 -27 1 0 340 25 1 0 334 -27 1 0 331 -90 1 0 330 -41 1 0 328 -51 1 0 325 -51 1 0
EndChar
StartChar: afii10029
Encoding: 1051 1051 322
Width: 1389
Flags: W
Fore
1362 0 m 1,0,-1
 827 0 l 1,1,-1
 827 47 l 1,2,3
 903 50 903 50 935 71 c 128,-1,4
 967 92 967 92 967 139 c 0,5,6
 967 163 967 163 918 295 c 2,7,-1
 633 1057 l 1,8,-1
 322 200 l 2,9,10
 301 147 301 147 301 127 c 0,11,12
 301 91 301 91 334 72 c 128,-1,13
 367 53 367 53 459 47 c 1,14,-1
 459 0 l 1,15,-1
 33 0 l 1,16,-1
 33 47 l 1,17,18
 110 54 110 54 156 98.5 c 128,-1,19
 202 143 202 143 244 254 c 2,20,-1
 668 1386 l 1,21,-1
 705 1386 l 1,22,-1
 1120 291 l 2,23,24
 1177 139 1177 139 1238 93.5 c 128,-1,25
 1299 48 1299 48 1362 47 c 1,26,-1
 1362 0 l 1,0,-1
EndSplineSet
KernsSLIFO: 362 -51 1 0 357 -51 1 0 348 -14 1 0 344 -27 1 0 331 -27 1 0
EndChar
StartChar: afii10033
Encoding: 1055 1055 326
Width: 1479
Flags: W
Fore
1438 0 m 1,0,-1
 860 0 l 1,1,-1
 860 47 l 1,2,3
 957 47 957 47 996 64 c 128,-1,4
 1035 81 1035 81 1044 120.5 c 128,-1,5
 1053 160 1053 160 1053 260 c 2,6,-1
 1053 1282 l 1,7,-1
 426 1282 l 1,8,-1
 426 260 l 2,9,10
 426 160 426 160 435 120.5 c 128,-1,11
 444 81 444 81 483 64 c 128,-1,12
 522 47 522 47 618 47 c 1,13,-1
 618 0 l 1,14,-1
 41 0 l 1,15,-1
 41 47 l 1,16,17
 137 47 137 47 176.5 64 c 128,-1,18
 216 81 216 81 224.5 120.5 c 128,-1,19
 233 160 233 160 233 260 c 2,20,-1
 233 1096 l 2,21,22
 233 1196 233 1196 224.5 1235.5 c 128,-1,23
 216 1275 216 1275 176.5 1292 c 128,-1,24
 137 1309 137 1309 41 1309 c 1,25,-1
 41 1356 l 1,26,-1
 1438 1356 l 1,27,-1
 1438 1309 l 1,28,29
 1341 1309 1341 1309 1302 1292 c 128,-1,30
 1263 1275 1263 1275 1254 1235.5 c 128,-1,31
 1245 1196 1245 1196 1245 1096 c 2,32,-1
 1245 260 l 2,33,34
 1245 160 1245 160 1254 120.5 c 128,-1,35
 1263 81 1263 81 1302 64 c 128,-1,36
 1341 47 1341 47 1438 47 c 1,37,-1
 1438 0 l 1,0,-1
EndSplineSet
EndChar
StartChar: afii10037
Encoding: 1059 1059 330
Width: 1450
Flags: W
Fore
1415 1309 m 1,0,1
 1352 1309 1352 1309 1300 1272.5 c 128,-1,2
 1248 1236 1248 1236 1184 1108 c 2,3,-1
 756 250 l 2,4,5
 675 87 675 87 598.5 28 c 128,-1,6
 522 -31 522 -31 401 -31 c 0,7,8
 338 -31 338 -31 294 -4 c 128,-1,9
 250 23 250 23 250 72 c 0,10,11
 250 105 250 105 273.5 128.5 c 128,-1,12
 297 152 297 152 334 152 c 0,13,14
 360 152 360 152 409 124 c 0,15,16
 454 98 454 98 477 98 c 0,17,18
 528 98 528 98 574.5 129.5 c 128,-1,19
 621 161 621 161 674 279 c 1,20,-1
 254 1122 l 2,21,22
 203 1222 203 1222 157.5 1261.5 c 128,-1,23
 112 1301 112 1301 27 1309 c 1,24,-1
 27 1356 l 1,25,-1
 586 1356 l 1,26,-1
 586 1309 l 1,27,28
 434 1309 434 1309 434 1231 c 0,29,30
 434 1203 434 1203 464 1141 c 2,31,-1
 782 483 l 1,32,33
 1062 1046 1062 1046 1091 1110.5 c 128,-1,34
 1120 1175 1120 1175 1120 1210 c 0,35,36
 1120 1265 1120 1265 1091 1287 c 128,-1,37
 1062 1309 1062 1309 989 1309 c 1,38,-1
 989 1356 l 1,39,-1
 1415 1356 l 1,40,-1
 1415 1309 l 1,0,1
EndSplineSet
KernsSLIFO: 374 -231 1 0 373 -180 1 0 368 -180 1 0 367 -180 1 0 365 -180 1 0 364 -205 1 0 360 -246 1 0 359 -180 1 0 358 -180 1 0 357 -231 1 0 356 -180 1 0 355 -180 1 0 354 -231 1 0 353 -180 1 0 352 -102 1 0 351 -180 1 0 350 -180 1 0 349 -180 1 0 348 -246 1 0 347 -287 1 0 346 -180 1 0 345 -231 1 0 344 -129 1 0 342 -231 1 0 340 -27 1 0 331 -152 1 0 325 -102 1 0 322 -231 1 0 318 -27 1 0 315 -207 1 0 311 -391 1 0 178 -51 1 0 169 -129 1 0 168 -180 1 0 30 -78 1 0 29 -78 1 0 17 -334 1 0 15 -334 1 0
EndChar
StartChar: afii10038
Encoding: 1060 1060 331
Width: 1618
Flags: W
Fore
905 1174 m 1,0,1
 1206 1151 1206 1151 1374 1016.5 c 128,-1,2
 1542 882 1542 882 1542 686 c 0,3,4
 1542 489 1542 489 1374 354 c 128,-1,5
 1206 219 1206 219 905 197 c 1,6,7
 906 108 906 108 942 77.5 c 128,-1,8
 978 47 978 47 1098 47 c 1,9,-1
 1098 0 l 1,10,-1
 520 0 l 1,11,-1
 520 47 l 1,12,13
 645 47 645 47 678 76.5 c 128,-1,14
 711 106 711 106 713 197 c 1,15,16
 412 219 412 219 244 354 c 128,-1,17
 76 489 76 489 76 686 c 0,18,19
 76 882 76 882 244 1016.5 c 128,-1,20
 412 1151 412 1151 713 1174 c 1,21,22
 710 1257 710 1257 671.5 1283 c 128,-1,23
 633 1309 633 1309 520 1309 c 1,24,-1
 520 1356 l 1,25,-1
 1098 1356 l 1,26,-1
 1098 1309 l 1,27,28
 985 1309 985 1309 946.5 1282 c 128,-1,29
 908 1255 908 1255 905 1174 c 1,0,1
905 268 m 1,30,31
 1117 287 1117 287 1224 397.5 c 128,-1,32
 1331 508 1331 508 1331 690 c 0,33,34
 1331 870 1331 870 1224.5 977 c 128,-1,35
 1118 1084 1118 1084 905 1104 c 1,36,-1
 905 268 l 1,30,31
713 268 m 1,37,-1
 713 1104 l 1,38,39
 500 1084 500 1084 393.5 977 c 128,-1,40
 287 870 287 870 287 690 c 0,41,42
 287 508 287 508 394 397.5 c 128,-1,43
 501 287 501 287 713 268 c 1,37,-1
EndSplineSet
KernsSLIFO: 354 -102 1 0 342 -180 1 0 334 -129 1 0 330 -156 1 0 329 -51 1 0 325 25 1 0 322 -154 1 0 315 -180 1 0 311 -129 1 0
EndChar
StartChar: afii10040
Encoding: 1062 1062 333
Width: 1479
Flags: W
Fore
1427 -315 m 1,0,-1
 1382 -315 l 1,1,2
 1361 -144 1361 -144 1287 -72 c 128,-1,3
 1213 0 1213 0 1077 0 c 2,4,-1
 51 0 l 1,5,-1
 51 47 l 1,6,7
 148 47 148 47 187 64 c 128,-1,8
 226 81 226 81 235 120.5 c 128,-1,9
 244 160 244 160 244 260 c 2,10,-1
 244 1096 l 2,11,12
 244 1195 244 1195 234.5 1235 c 128,-1,13
 225 1275 225 1275 185.5 1292 c 128,-1,14
 146 1309 146 1309 49 1309 c 1,15,-1
 49 1356 l 1,16,-1
 629 1356 l 1,17,-1
 629 1309 l 1,18,19
 532 1309 532 1309 493.5 1293 c 128,-1,20
 455 1277 455 1277 445.5 1237.5 c 128,-1,21
 436 1198 436 1198 436 1096 c 2,22,-1
 436 74 l 1,23,-1
 1042 74 l 1,24,-1
 1042 1096 l 2,25,26
 1042 1196 1042 1196 1031.5 1237 c 128,-1,27
 1021 1278 1021 1278 982.5 1293.5 c 128,-1,28
 944 1309 944 1309 850 1309 c 1,29,-1
 850 1356 l 1,30,-1
 1427 1356 l 1,31,-1
 1427 1309 l 1,32,33
 1331 1309 1331 1309 1292 1292 c 128,-1,34
 1253 1275 1253 1275 1244 1235.5 c 128,-1,35
 1235 1196 1235 1196 1235 1096 c 2,36,-1
 1235 260 l 2,37,38
 1235 160 1235 160 1244 120.5 c 128,-1,39
 1253 81 1253 81 1292 64 c 128,-1,40
 1331 47 1331 47 1427 47 c 1,41,-1
 1427 -315 l 1,0,-1
EndSplineSet
KernsSLIFO: 357 -27 1 0 325 -27 1 0
EndChar
StartChar: afii10041
Encoding: 1063 1063 334
Width: 1331
Flags: W
Fore
1239 0 m 1,0,-1
 664 0 l 1,1,-1
 664 47 l 1,2,3
 759 47 759 47 798 64 c 128,-1,4
 837 81 837 81 845.5 119.5 c 128,-1,5
 854 158 854 158 854 260 c 2,6,-1
 854 608 l 1,7,8
 711 498 711 498 526 498 c 0,9,10
 377 498 377 498 278.5 585.5 c 128,-1,11
 180 673 180 673 180 807 c 2,12,-1
 180 1096 l 2,13,14
 180 1193 180 1193 170 1233.5 c 128,-1,15
 160 1274 160 1274 121.5 1291.5 c 128,-1,16
 83 1309 83 1309 -10 1309 c 1,17,-1
 -10 1356 l 1,18,-1
 563 1356 l 1,19,-1
 563 1309 l 1,20,21
 467 1309 467 1309 427.5 1292 c 128,-1,22
 388 1275 388 1275 379.5 1235.5 c 128,-1,23
 371 1196 371 1196 371 1096 c 2,24,-1
 371 856 l 2,25,26
 371 618 371 618 616 618 c 0,27,28
 666 618 666 618 735.5 636.5 c 128,-1,29
 805 655 805 655 854 686 c 1,30,-1
 854 1096 l 2,31,32
 854 1198 854 1198 845.5 1236.5 c 128,-1,33
 837 1275 837 1275 798 1292 c 128,-1,34
 759 1309 759 1309 664 1309 c 1,35,-1
 664 1356 l 1,36,-1
 1239 1356 l 1,37,-1
 1239 1309 l 1,38,39
 1143 1309 1143 1309 1104.5 1292 c 128,-1,40
 1066 1275 1066 1275 1057.5 1236.5 c 128,-1,41
 1049 1198 1049 1198 1049 1096 c 2,42,-1
 1049 260 l 2,43,44
 1049 158 1049 158 1057.5 119.5 c 128,-1,45
 1066 81 1066 81 1104.5 64 c 128,-1,46
 1143 47 1143 47 1239 47 c 1,47,-1
 1239 0 l 1,0,-1
EndSplineSet
EndChar
StartChar: afii10042
Encoding: 1064 1064 335
Width: 2066
Flags: W
Fore
2015 0 m 1,0,-1
 51 0 l 1,1,-1
 51 47 l 1,2,3
 148 47 148 47 187 64 c 128,-1,4
 226 81 226 81 235 120.5 c 128,-1,5
 244 160 244 160 244 260 c 2,6,-1
 244 1096 l 2,7,8
 244 1196 244 1196 235 1235.5 c 128,-1,9
 226 1275 226 1275 187 1292 c 128,-1,10
 148 1309 148 1309 51 1309 c 1,11,-1
 51 1356 l 1,12,-1
 608 1356 l 1,13,-1
 608 1309 l 1,14,15
 524 1309 524 1309 489 1291 c 128,-1,16
 454 1273 454 1273 445 1232.5 c 128,-1,17
 436 1192 436 1192 436 1096 c 2,18,-1
 436 74 l 1,19,-1
 938 74 l 1,20,-1
 938 1096 l 2,21,22
 938 1192 938 1192 929.5 1232.5 c 128,-1,23
 921 1273 921 1273 886 1291 c 128,-1,24
 851 1309 851 1309 768 1309 c 1,25,-1
 768 1356 l 1,26,-1
 1303 1356 l 1,27,-1
 1303 1309 l 1,28,29
 1219 1309 1219 1309 1183 1291 c 128,-1,30
 1147 1273 1147 1273 1137.5 1232 c 128,-1,31
 1128 1191 1128 1191 1128 1096 c 2,32,-1
 1128 74 l 1,33,-1
 1630 74 l 1,34,-1
 1630 1096 l 2,35,36
 1630 1192 1630 1192 1621.5 1232.5 c 128,-1,37
 1613 1273 1613 1273 1577.5 1291 c 128,-1,38
 1542 1309 1542 1309 1458 1309 c 1,39,-1
 1458 1356 l 1,40,-1
 2015 1356 l 1,41,-1
 2015 1309 l 1,42,43
 1919 1309 1919 1309 1880 1292 c 128,-1,44
 1841 1275 1841 1275 1832 1235.5 c 128,-1,45
 1823 1196 1823 1196 1823 1096 c 2,46,-1
 1823 260 l 2,47,48
 1823 160 1823 160 1832 120.5 c 128,-1,49
 1841 81 1841 81 1880 64 c 128,-1,50
 1919 47 1919 47 2015 47 c 1,51,-1
 2015 0 l 1,0,-1
EndSplineSet
EndChar
StartChar: afii10043
Encoding: 1065 1065 336
Width: 2066
Flags: W
Fore
2015 -315 m 1,0,-1
 1970 -315 l 1,1,2
 1949 -144 1949 -144 1874.5 -72 c 128,-1,3
 1800 0 1800 0 1665 0 c 2,4,-1
 51 0 l 1,5,-1
 51 47 l 1,6,7
 148 47 148 47 187 64 c 128,-1,8
 226 81 226 81 235 120.5 c 128,-1,9
 244 160 244 160 244 260 c 2,10,-1
 244 1096 l 2,11,12
 244 1196 244 1196 235 1235.5 c 128,-1,13
 226 1275 226 1275 187 1292 c 128,-1,14
 148 1309 148 1309 51 1309 c 1,15,-1
 51 1356 l 1,16,-1
 608 1356 l 1,17,-1
 608 1309 l 1,18,19
 524 1309 524 1309 489 1291 c 128,-1,20
 454 1273 454 1273 445 1232.5 c 128,-1,21
 436 1192 436 1192 436 1096 c 2,22,-1
 436 74 l 1,23,-1
 938 74 l 1,24,-1
 938 1096 l 2,25,26
 938 1192 938 1192 929.5 1232.5 c 128,-1,27
 921 1273 921 1273 886 1291 c 128,-1,28
 851 1309 851 1309 768 1309 c 1,29,-1
 768 1356 l 1,30,-1
 1303 1356 l 1,31,-1
 1303 1309 l 1,32,33
 1219 1309 1219 1309 1183 1291 c 128,-1,34
 1147 1273 1147 1273 1137.5 1232 c 128,-1,35
 1128 1191 1128 1191 1128 1096 c 2,36,-1
 1128 74 l 1,37,-1
 1630 74 l 1,38,-1
 1630 1096 l 2,39,40
 1630 1192 1630 1192 1621.5 1232.5 c 128,-1,41
 1613 1273 1613 1273 1577.5 1291 c 128,-1,42
 1542 1309 1542 1309 1458 1309 c 1,43,-1
 1458 1356 l 1,44,-1
 2015 1356 l 1,45,-1
 2015 1309 l 1,46,47
 1919 1309 1919 1309 1880 1292 c 128,-1,48
 1841 1275 1841 1275 1832 1235.5 c 128,-1,49
 1823 1196 1823 1196 1823 1096 c 2,50,-1
 1823 260 l 2,51,52
 1823 160 1823 160 1832 120.5 c 128,-1,53
 1841 81 1841 81 1880 64 c 128,-1,54
 1919 47 1919 47 2015 47 c 1,55,-1
 2015 -315 l 1,0,-1
EndSplineSet
KernsSLIFO: 362 25 1 0
EndChar
StartChar: afii10044
Encoding: 1066 1066 337
Width: 1446
Flags: W
Fore
694 737 m 1,0,-1
 774 737 l 2,1,2
 1090 737 1090 737 1235 646 c 128,-1,3
 1380 555 1380 555 1380 377 c 0,4,5
 1380 272 1380 272 1322.5 184.5 c 128,-1,6
 1265 97 1265 97 1148.5 48.5 c 128,-1,7
 1032 0 1032 0 858 0 c 2,8,-1
 309 0 l 1,9,-1
 309 47 l 1,10,11
 405 47 405 47 443 61.5 c 128,-1,12
 481 76 481 76 491.5 116 c 128,-1,13
 502 156 502 156 502 258 c 2,14,-1
 502 1282 l 1,15,-1
 360 1282 l 2,16,17
 129 1282 129 1282 109 1053 c 1,18,-1
 55 1053 l 1,19,-1
 55 1356 l 1,20,-1
 887 1356 l 1,21,-1
 887 1309 l 1,22,23
 790 1309 790 1309 751 1292.5 c 128,-1,24
 712 1276 712 1276 703 1237 c 128,-1,25
 694 1198 694 1198 694 1096 c 2,26,-1
 694 737 l 1,0,-1
694 86 m 1,27,28
 772 70 772 70 864 70 c 0,29,30
 986 70 986 70 1068.5 145.5 c 128,-1,31
 1151 221 1151 221 1151 354 c 0,32,33
 1151 503 1151 503 1064 579 c 128,-1,34
 977 655 977 655 819 655 c 2,35,-1
 694 655 l 1,36,-1
 694 86 l 1,27,28
EndSplineSet
KernsSLIFO: 342 -123 1 0 182 -129 1 0
EndChar
StartChar: afii10046
Encoding: 1068 1068 339
Width: 1176
Flags: W
Fore
436 737 m 1,0,-1
 512 737 l 2,1,2
 1110 737 1110 737 1110 377 c 0,3,4
 1110 272 1110 272 1052.5 184.5 c 128,-1,5
 995 97 995 97 878.5 48.5 c 128,-1,6
 762 0 762 0 588 0 c 2,7,-1
 51 0 l 1,8,-1
 51 47 l 1,9,10
 148 47 148 47 187 64 c 128,-1,11
 226 81 226 81 235 120.5 c 128,-1,12
 244 160 244 160 244 260 c 2,13,-1
 244 1096 l 2,14,15
 244 1196 244 1196 235 1235.5 c 128,-1,16
 226 1275 226 1275 187 1292 c 128,-1,17
 148 1309 148 1309 51 1309 c 1,18,-1
 51 1356 l 1,19,-1
 629 1356 l 1,20,-1
 629 1309 l 1,21,22
 532 1309 532 1309 493 1292 c 128,-1,23
 454 1275 454 1275 445 1235.5 c 128,-1,24
 436 1196 436 1196 436 1096 c 2,25,-1
 436 737 l 1,0,-1
436 98 m 1,26,27
 483 70 483 70 569 70 c 0,28,29
 709 70 709 70 795 143.5 c 128,-1,30
 881 217 881 217 881 354 c 0,31,32
 881 655 881 655 537 655 c 2,33,-1
 436 655 l 1,34,-1
 436 98 l 1,26,27
EndSplineSet
KernsSLIFO: 342 -109 1 0 340 -27 1 0 334 -229 1 0 332 -147 1 0 329 -154 1 0 328 -51 1 0 325 -51 1 0 323 -82 1 0 322 -82 1 0 318 -78 1 0 317 -129 1 0 315 -150 1 0 311 -88 1 0 182 -129 1 0
EndChar
StartChar: afii10047
Encoding: 1069 1069 340
Width: 1352
Flags: W
Fore
170 1386 m 1,0,1
 180 1331 180 1331 221 1331 c 0,2,3
 233 1331 233 1331 292 1344 c 0,4,5
 477 1384 477 1384 588 1384 c 0,6,7
 888 1384 888 1384 1084 1183 c 128,-1,8
 1280 982 1280 982 1280 678 c 0,9,10
 1280 371 1280 371 1097.5 170 c 128,-1,11
 915 -31 915 -31 625 -31 c 0,12,13
 263 -31 263 -31 63 246 c 1,14,-1
 94 276 l 1,15,16
 280 90 280 90 547 90 c 0,17,18
 757 90 757 90 903.5 234.5 c 128,-1,19
 1050 379 1050 379 1059 657 c 1,20,-1
 768 657 l 2,21,22
 644 657 644 657 613 624 c 128,-1,23
 582 591 582 591 582 457 c 1,24,-1
 512 457 l 1,25,-1
 512 932 l 1,26,-1
 582 932 l 1,27,28
 582 797 582 797 614 764 c 128,-1,29
 646 731 646 731 768 731 c 2,30,-1
 1059 731 l 1,31,32
 1046 1016 1046 1016 914.5 1165.5 c 128,-1,33
 783 1315 783 1315 580 1315 c 0,34,35
 421 1315 421 1315 313 1228 c 128,-1,36
 205 1141 205 1141 166 975 c 1,37,-1
 125 975 l 1,38,-1
 125 1386 l 1,39,-1
 170 1386 l 1,0,1
EndSplineSet
KernsSLIFO: 354 -27 1 0 347 -51 1 0 342 -111 1 0 332 -104 1 0 331 10 1 0 325 25 1 0 322 -129 1 0 318 25 1 0 317 -51 1 0 315 -172 1 0
EndChar
